<?xml version="1.0" encoding="UTF-8"?>
<svg width="200px" height="200px" viewBox="0 0 200 200" version="1.1" xmlns="http://www.w3.org/2000/svg" xmlns:xlink="http://www.w3.org/1999/xlink">
    <title>esp32</title>
    <g id="esp32" stroke="none" stroke-width="1" fill="none" fill-rule="evenodd">
        <g id="espressif-systems" fill="#000000" fill-rule="nonzero">
            <path d="M65.9839106,149.036543 C65.9843926,153.256689 64.0936348,157.254949 60.8314166,159.93218 C57.5691985,162.60941 53.2788945,163.683812 49.1399325,162.860025 C43.5488396,161.748271 39.1782008,157.377633 38.0664469,151.78654 C36.8564014,145.698041 39.772045,139.534666 45.2466169,136.60839 C50.7211887,133.682113 57.4657081,134.681922 61.8559159,139.070556 C64.4989525,141.713768 65.9839106,145.298601 65.9839106,149.036543 L65.9839106,149.036543 Z M188.95425,134.365562 C179.726037,70.2011922 129.317282,19.792437 65.1529116,10.564724 C57.6866177,14.5281578 50.7977364,19.4945449 44.6779383,25.3257047 L44.6779383,38.9436869 C108.627251,38.995701 160.470281,90.795788 160.575287,154.745036 L174.193769,154.745036 C179.972654,148.61722 184.934035,141.76715 188.95425,134.365562 L188.95425,134.365562 Z" id="Shape"></path>
            <path d="M199.980736,91.6141182 C199.982208,54.4295461 177.506375,20.9329139 143.09681,6.83772882 C131.926815,2.26183213 119.962634,-0.0615062688 107.891856,0.00123773253 C104.65436,0.00123773253 101.511364,0.00123773253 98.3688683,0.477737111 L96.273871,6.57272916 C141.439082,22.4006386 176.966154,57.8925759 192.838745,103.042103 L198.933237,100.851606 C198.933237,97.8041102 199.504736,94.7566141 199.504736,91.3286186 M108.945854,199.981977 C48.9627842,199.982275 0.263347302,151.495615 0.000495442255,91.5131184 C-0.0869396281,62.6010699 11.401682,34.8567824 31.9034549,14.4707189 L38.0934469,20.2802113 C19.0409434,39.1644916 8.32310308,64.8782473 8.32310308,91.7038681 C8.32310308,118.529489 19.0409434,144.243245 38.0934469,163.127525 C56.9781253,182.179283 82.6917319,192.896607 109.517104,192.896607 C136.342476,192.896607 162.056082,182.179283 180.940761,163.127525 L186.750253,168.936517 C166.042718,189.322395 137.999336,200.512246 108.945854,199.981977 L108.945854,199.981977 Z" id="Shape"></path>
            <path d="M107.719356,161.037028 C109.717171,139.241654 100.318577,117.959777 82.8638885,104.755101 C73.6658394,97.5124568 62.6051092,93.0221175 50.9614301,91.803618 C47.9410525,91.4101071 45.7378851,88.749938 45.9139367,85.7091259 C46.0974201,83.4043476 47.6737155,81.4471225 49.8864315,80.7766324 C50.6042946,80.5590799 51.3584917,80.4876726 52.1044286,80.5666327 C93.0214768,84.8222979 122.811771,121.336657 118.766342,162.275026 C118.374339,166.632723 117.544828,170.939915 116.290345,175.131509 L132.860323,179.797503 C137.764299,178.387532 142.542445,176.571937 147.145305,174.36951 C148.377805,167.935766 148.983804,161.397706 148.955796,154.847036 C148.89559,103.17891 111.173082,59.2703623 60.1039182,51.4256707 C54.5947285,50.4131437 48.9471296,50.4131437 43.4379399,51.4256707 C36.4643386,53.2681233 30.1981187,57.1472367 25.4394634,62.5676561 C17.6471852,71.5901757 14.8857195,83.9129547 18.0823608,95.3980295 C21.2790021,106.883104 30.0097895,116.007244 41.3429426,119.706582 C44.294866,120.410601 47.283411,120.95109 50.294931,121.325579 C66.3551802,124.064908 78.1013692,137.983344 78.1023947,154.275537 C78.1021096,160.66459 76.249686,166.916563 72.7694016,172.274513 L84.1973867,179.607503 C89.7983731,181.143904 95.542325,182.101089 101.338864,182.464 C104.754963,175.608481 106.885338,168.184789 107.624356,160.561028" id="Path"></path>
        </g>
    </g>
</svg>