<?xml version="1.0" encoding="UTF-8"?>
<svg width="200px" height="200px" viewBox="0 0 200 200" version="1.1" xmlns="http://www.w3.org/2000/svg" xmlns:xlink="http://www.w3.org/1999/xlink">
    <title>stm32</title>
    <g id="stm32" stroke="none" stroke-width="1" fill="none" fill-rule="evenodd">
        <g id="st-microelectronics" transform="translate(-7.000000, 34.000000)" fill-rule="nonzero">
            <polygon id="Path" points="47.6213214 2.61544648e-14 216 2.61544648e-14 158.570999 133 0 133 0 110.099809"></polygon>
            <polygon id="Path" fill="#000000" points="156.997035 46 189 46 152.92183 129 121 129"></polygon>
            <polygon id="Path" fill="#000000" points="199.159402 22.3559347 65.6311947 22.3559347 62.3787711 23.0264654 59.7097363 23.864319 56.7076889 25.0380577 52.2872542 27.4685768 50.4519845 28.8926801 48.6167148 30.7369495 45.7811737 33.6706766 44.1136437 36.8547682 42.5287501 39.5368912 41.5284787 42.6379411 40.4443376 46.6611257 40.4443376 54.6232138 41.5284787 58.7306795 42.2783739 61.3285214 43.3625151 63.7590405 44.7809023 65.8536745 46.5323022 68.2854331 48.2010656 70.1284631 49.8685957 71.9714931 75.1393226 95.9420385 75.3896988 97.0314961 76.2234638 98.2895159 76.6415797 99.7136191 76.6415797 101.137722 76.2234638 102.3127 75.2231925 103.988408 74.3881941 104.74322 73.3879227 105.162146 71.9695355 106 7 106 50.6184908 4 207 4"></polygon>
            <polygon id="Path" fill="#000000" points="134 46 98.1296092 129 82.2249173 129 81.3147127 128.668927 80.9827269 128.088936 81.3147127 127.258801 81.8108539 127.01111 85.3732696 125.268685 88.4383192 123.36195 91.5854465 120.542924 92.9942423 119.21618 94.2364327 117.558363 95.6452285 115.484865 96.6387358 113.660285 97.6334681 111.670168 98.1296092 109.680051 99.538405 106.197654 99.8703908 102.384184 99.8703908 98.1550326 99.2897219 94.009263 98.0475315 89.8634933 96.0592919 86.2977145 94.2364327 83.4786893 92.4147985 81.0741184 65.8228592 55.6182836 64.9947323 54.6238384 64.4152885 53.6281671 64 52.384804 64 51.3903588 64.4152885 50.2279248 64.4973662 48.9857879 65.2421904 47.9901166 66.2369227 47.1612079 67.0650496 46.5799908 68.2251623 46.1655365 69.7160358 46 134 46"></polygon>
        </g>
    </g>
</svg>