<?xml version="1.0" encoding="UTF-8"?>
<svg width="200px" height="200px" viewBox="0 0 200 200" version="1.1" xmlns="http://www.w3.org/2000/svg" xmlns:xlink="http://www.w3.org/1999/xlink">
    <title>stm32</title>
    <g id="stm32" stroke="none" stroke-width="1" fill="none" fill-rule="evenodd">
        <g id="subbrand-stm32" transform="translate(0.000000, 12.000000)" fill="#000000" fill-rule="nonzero">
            <path d="M168.677621,82.0419393 C184.737968,67.7186743 197.422574,27.8181506 183.20354,6.94710736 C162.642204,-23.3363671 114.563456,54.4184997 107.914268,67.3094382 C106.277544,62.7055316 102.288031,56.7716076 97.4801564,55.5438991 C93.7975289,59.2270244 93.6952337,66.797893 94.7181858,71.0948725 C80.7037424,58.203934 22.8046549,32.9336023 3.0616799,48.2799576 C-0.825537982,51.2469196 0.0951188855,57.2831527 0.0951188855,57.2831527 C2.44790866,78.8703592 25.8735112,115.190067 47.969276,113.348504 C30.6813859,136.981891 28.4308914,177.905505 72.5201258,176.984724 C103.004098,176.268561 106.58443,148.952048 112.517552,124.193262 C114.358866,135.03802 119.985102,152.225937 124.997567,158.159862 C127.043471,149.361285 123.360844,133.298766 119.269036,122.658626 C137.886763,143.222742 164.278927,171.153109 190.26191,140.358089 C212.050789,114.473903 193.944537,94.8305687 168.677621,82.0419393 Z" id="Path"></path>
        </g>
    </g>
</svg>