<?xml version="1.0" encoding="UTF-8"?>
<svg width="200px" height="200px" viewBox="0 0 200 200" version="1.1" xmlns="http://www.w3.org/2000/svg" xmlns:xlink="http://www.w3.org/1999/xlink">
    <title>raspberry</title>
    <g id="raspberry" stroke="none" stroke-width="1" fill="none" fill-rule="evenodd">
        <g id="raspberry-logo-raspberry-pi-svgrepo-com" transform="translate(22.000000, 0.000000)" fill="#000000" fill-rule="nonzero">
            <g id="Group" transform="translate(10.909290, 0.000000)">
                <path d="M51.4285714,31.4285714 C41.4285714,23.5714286 30.7142857,17.8571429 18.5714286,13.5714286 C29.2857143,20 40,25.7142857 48.5714286,34.2857143 C47.8571429,42.1428571 37.8571429,47.1428571 26.4285714,46.4285714 C25.7142857,45.7142857 27.1428571,45.7142857 27.1428571,44.2857143 C24.2857143,43.5714286 20.7142857,44.2857143 18.5714286,42.8571429 C18.5714286,42.1428571 20,42.1428571 19.2857143,41.4285714 C17.1428571,40 14.2857143,39.2857143 12.1428571,37.8571429 C12.1428571,37.1428571 13.5714286,37.1428571 14.2857143,36.4285714 C12.1428571,35 9.28571429,34.2857143 7.14285714,32.1428571 C7.85714286,31.4285714 8.57142857,32.1428571 9.28571429,30.7142857 C7.14285714,29.2857143 5,27.8571429 3.57142857,25.7142857 C4.28571429,25 5,25.7142857 5.71428571,25 C5,22.8571429 2.14285714,21.4285714 1.42857143,19.2857143 C2.85714286,19.2857143 3.57142857,20 5,18.5714286 C3.57142857,16.4285714 0.714285714,15.7142857 -8.12048841e-15,12.8571429 C0.714285714,12.1428571 2.14285714,12.8571429 2.85714286,12.1428571 C2.85714286,10 1.42857143,8.57142857 0.714285714,6.42857143 C2.85714286,5.71428571 5.71428571,6.42857143 7.85714286,5.71428571 C7.85714286,5 7.14285714,4.28571429 7.14285714,3.57142857 C10,2.14285714 12.8571429,3.57142857 15.7142857,4.28571429 C16.4285714,2.85714286 15,2.85714286 15.7142857,1.42857143 C17.8571429,1.42857143 20,2.85714286 22.8571429,2.85714286 C23.5714286,1.42857143 21.4285714,1.42857143 21.4285714,0 C24.2857143,0 26.4285714,1.42857143 28.5714286,2.85714286 C29.2857143,2.14285714 28.5714286,1.42857143 29.2857143,0 C31.4285714,0.714285714 32.8571429,2.14285714 35,3.57142857 C36.4285714,3.57142857 35.7142857,2.14285714 36.4285714,1.42857143 C38.5714286,2.14285714 40,4.28571429 41.4285714,5 C42.8571429,5 42.1428571,3.57142857 42.8571429,2.85714286 C45,4.28571429 46.4285714,6.42857143 47.8571429,7.85714286 C49.2857143,7.85714286 48.5714286,6.42857143 50,6.42857143 C54.2857143,11.4285714 58.5714286,17.1428571 57.8571429,24.2857143 C57.8571429,27.8571429 55,30 51.4285714,31.4285714 L51.4285714,31.4285714 Z" id="Path"></path>
                <path d="M120.714286,36.4285714 C121.428571,37.1428571 122.142857,37.1428571 122.857143,37.1428571 C120.714286,39.2857143 117.857143,39.2857143 115,40.7142857 C115,41.4285714 115.714286,41.4285714 115.714286,42.1428571 C113.571429,43.5714286 110,42.8571429 107.857143,43.5714286 C107.142857,44.2857143 108.571429,45 107.857143,45.7142857 C105,46.4285714 102.142857,45.7142857 98.5714286,45 C92.1428571,43.5714286 87.1428571,40.7142857 85,34.2857143 C93.5714286,25 104.285714,19.2857143 115,13.5714286 C102.857143,17.8571429 92.1428571,23.5714286 82.1428571,30.7142857 C77.8571429,29.2857143 75.7142857,25.7142857 75.7142857,21.4285714 C75.7142857,16.4285714 80,8.57142857 84.2857143,5 L85.7142857,7.14285714 C87.8571429,5.71428571 89.2857143,2.85714286 91.4285714,2.14285714 C92.1428571,2.85714286 91.4285714,4.28571429 92.8571429,4.28571429 C94.2857143,3.57142857 95.7142857,1.42857143 97.8571429,0.714285714 C98.5714286,1.42857143 97.8571429,2.14285714 99.2857143,2.85714286 C101.428571,2.85714286 102.857143,0.714285714 105.714286,0 C105.714286,0.714285714 105,1.42857143 105.714286,2.85714286 C107.857143,1.42857143 110,0 112.857143,0 C112.857143,0.714285714 111.428571,1.42857143 112.142857,2.85714286 C114.285714,2.85714286 116.428571,1.42857143 119.285714,1.42857143 C119.285714,2.14285714 118.571429,2.85714286 119.285714,4.28571429 C122.142857,3.57142857 125,2.85714286 127.857143,3.57142857 C127.857143,4.28571429 127.142857,5 127.142857,5.71428571 C129.285714,6.42857143 132.142857,5.71428571 134.285714,6.42857143 C133.571429,8.57142857 131.428571,10 131.428571,12.1428571 C132.142857,12.8571429 133.571429,12.1428571 134.285714,12.8571429 C133.571429,15.7142857 130.714286,16.4285714 130,18.5714286 C130.714286,20 132.142857,18.5714286 132.857143,19.2857143 C132.142857,21.4285714 129.285714,22.8571429 127.857143,25 C128.571429,26.4285714 129.285714,25.7142857 130,25.7142857 C128.571429,27.8571429 126.428571,28.5714286 125,30.7142857 C125.714286,31.4285714 126.428571,31.4285714 127.142857,32.1428571 C125.714286,34.2857143 122.857143,35 120.714286,36.4285714 L120.714286,36.4285714 Z" id="Path"></path>
            </g>
            <g id="Group" transform="translate(0.000000, 50.955964)">
                <path d="M73.7664329,49.0440358 C73.7664329,61.9011787 63.7664329,74.7583216 50.9092901,77.6154644 C38.0521472,80.4726073 26.6235758,71.186893 25.9092901,58.3297501 C25.1950043,45.4726073 34.4807186,32.6154644 46.6235758,29.7583216 C61.6235758,25.4726073 73.7664329,34.7583216 73.7664329,49.0440358 Z" id="Path"></path>
                <path d="M130.90929,55.4726073 C130.90929,70.4726073 118.052147,79.7583216 103.766433,75.4726073 C90.9092901,71.186893 81.6235758,57.6154644 83.7664329,44.0440358 C85.9092901,31.186893 98.7664329,23.3297501 111.623576,28.3297501 C123.052147,32.6154644 130.90929,44.0440358 130.90929,55.4726073 L130.90929,55.4726073 Z" id="Path"></path>
                <path d="M78.7664329,73.3297501 C85.9092901,73.3297501 93.0521472,76.186893 98.0521472,81.9011787 C106.623576,91.186893 105.90929,104.758322 96.6235758,112.615464 C87.3378615,120.472607 72.3378615,121.186893 63.0521472,113.32975 C55.9092901,107.615464 53.0521472,100.472607 54.4807186,91.186893 C56.6235758,81.9011787 63.0521472,76.9011787 71.6235758,74.0440358 C73.7664329,74.0440358 75.9092901,73.3297501 78.7664329,73.3297501 L78.7664329,73.3297501 Z" id="Path"></path>
                <path d="M105.195004,115.472607 C105.90929,108.32975 108.766433,101.186893 114.480719,94.7583216 C118.052147,91.186893 121.623576,87.6154644 125.195004,84.7583216 C127.337861,83.3297501 129.480719,82.6154644 131.623576,81.9011787 C135.90929,81.186893 139.480719,82.6154644 140.90929,86.9011787 C143.766433,94.0440358 144.480719,101.186893 140.90929,108.32975 C136.623576,118.32975 128.766433,124.758322 118.052147,126.901179 C117.337861,126.901179 115.90929,126.901179 114.480719,126.901179 C108.052147,127.615464 105.195004,124.758322 105.195004,115.472607 Z" id="Path"></path>
                <path d="M13.0521472,96.9011787 C13.0521472,96.9011787 13.0521472,95.4726073 13.0521472,94.7583216 C13.7664329,86.9011787 18.0521472,84.0440358 25.9092901,86.186893 C38.0521472,89.7583216 49.4807186,104.044036 50.1950043,116.901179 C50.1950043,124.758322 46.6235758,128.32975 38.7664329,126.901179 C28.0521472,125.472607 20.9092901,119.758322 16.6235758,110.472607 C13.7664329,106.186893 13.0521472,101.901179 13.0521472,96.9011787 L13.0521472,96.9011787 Z" id="Path"></path>
                <path d="M79.4807186,26.186893 C73.7664329,26.186893 68.0521472,25.4726073 63.0521472,22.6154644 C53.7664329,17.6154644 53.7664329,11.186893 61.6235758,5.47260727 C72.3378615,-2.38453558 86.6235758,-1.67024987 96.6235758,6.9011787 C97.3378615,7.61546442 98.0521472,8.32975013 98.7664329,9.04403584 C102.337861,13.3297501 101.623576,17.6154644 97.3378615,21.186893 C93.7664329,24.0440358 89.4807186,24.7583216 85.1950043,25.4726073 C83.0521472,26.186893 80.9092901,26.186893 79.4807186,26.186893 L79.4807186,26.186893 Z" id="Path"></path>
                <path d="M78.0521472,149.044036 C69.4807186,149.044036 62.3378615,145.472607 55.9092901,139.044036 C53.0521472,136.186893 53.0521472,133.32975 56.6235758,131.186893 C61.6235758,128.32975 66.6235758,126.901179 72.3378615,126.186893 C79.4807186,125.472607 86.6235758,125.472607 93.7664329,127.615464 C95.1950043,128.32975 97.3378615,129.044036 98.7664329,129.758322 C103.052147,131.901179 103.766433,134.044036 100.195004,138.32975 C100.195004,138.32975 100.195004,138.32975 99.4807186,139.044036 C94.4807186,145.472607 87.3378615,149.044036 78.0521472,149.044036 Z" id="Path"></path>
                <path d="M19.4807186,54.7583216 C19.4807186,62.6154644 18.0521472,69.7583216 15.1950043,76.9011787 C14.4807186,79.0440358 13.7664329,80.4726073 12.3378615,81.9011787 C10.1950043,84.7583216 8.76643291,84.7583216 6.62357577,82.6154644 C-3.37642423,72.6154644 -1.9478528,53.3297501 10.1950043,44.7583216 C14.4807186,41.186893 17.3378615,41.9011787 18.7664329,47.6154644 C18.7664329,49.7583216 19.4807186,52.6154644 19.4807186,54.7583216 L19.4807186,54.7583216 Z" id="Path"></path>
                <path d="M155.90929,65.4726073 C155.90929,71.186893 153.766433,77.6154644 149.480719,82.6154644 C147.337861,84.7583216 145.90929,84.7583216 143.766433,82.6154644 C141.623576,79.7583216 140.195004,76.186893 139.480719,72.6154644 C137.337861,65.4726073 136.623576,57.6154644 137.337861,49.7583216 C137.337861,48.3297501 138.052147,46.186893 138.766433,44.7583216 C140.195004,41.9011787 141.623576,41.186893 144.480719,43.3297501 C151.623576,47.6154644 155.90929,55.4726073 155.90929,65.4726073 Z" id="Path"></path>
                <path d="M17.3378615,34.0440358 C16.6235758,24.7583216 19.4807186,16.186893 27.3378615,10.4726073 C35.1950043,4.75832156 43.7664329,3.32975013 53.0521472,4.75832156 C53.0521472,6.9011787 51.6235758,8.32975013 50.9092901,9.75832156 C45.9092901,16.186893 39.4807186,21.186893 33.7664329,26.186893 C30.1950043,29.0440358 26.6235758,31.186893 23.0521472,33.3297501 C20.1950043,34.0440358 18.7664329,35.4726073 17.3378615,34.0440358 Z" id="Path"></path>
                <path d="M139.480719,34.7583216 C138.052147,35.4726073 135.90929,34.7583216 134.480719,33.3297501 C129.480719,30.4726073 124.480719,26.9011787 120.195004,23.3297501 C115.195004,19.0440358 110.90929,14.7583216 106.623576,10.4726073 C105.90929,9.04403584 104.480719,7.61546442 104.480719,6.18689299 C108.766433,4.04403584 123.052147,4.75832156 130.195004,11.186893 C137.337861,16.9011787 141.623576,28.3297501 139.480719,34.7583216 Z" id="Path"></path>
            </g>
        </g>
    </g>
</svg>