<?xml version="1.0" encoding="UTF-8"?>
<svg width="200px" height="200px" viewBox="0 0 200 200" version="1.1" xmlns="http://www.w3.org/2000/svg" xmlns:xlink="http://www.w3.org/1999/xlink">
    <title>lcd-spm</title>
    <g id="lcd-spm" stroke="none" stroke-width="1" fill="none" fill-rule="evenodd">
        <g id="Group" transform="translate(31.000000, 2.000000)">
            <g id="package-copy-3">
                <rect id="Rectangle" x="0" y="0" width="139.873637" height="139.873637"></rect>
                <path d="M6.29431365,114.696382 L17.4842046,114.696382 C17.6655858,127.43445 17.6655858,134.195009 17.4842046,134.978059 C17.2121327,136.152635 16.4909109,140 11.8892591,140 C7.28760736,140 6.54107629,136.211824 6.29431365,134.978059 C6.12980522,134.15555 6.12980522,127.394991 6.29431365,114.696382 Z" id="Rectangle" fill="#000000"></path>
                <path d="M29.3734637,114.696382 L40.5633546,114.696382 C40.7447359,127.43445 40.7447359,134.195009 40.5633546,134.978059 C40.2912827,136.152635 39.5700609,140 34.9684091,140 C30.3667574,140 29.6202263,136.211824 29.3734637,134.978059 C29.2089553,134.15555 29.2089553,127.394991 29.3734637,114.696382 Z" id="Rectangle-Copy" fill="#000000"></path>
                <path d="M52.4526137,114.696382 L63.6425046,114.696382 C63.8238859,127.43445 63.8238859,134.195009 63.6425046,134.978059 C63.3704328,136.152635 62.6492109,140 58.0475592,140 C53.4459074,140 52.6993764,136.211824 52.4526137,134.978059 C52.2881053,134.15555 52.2881053,127.394991 52.4526137,114.696382 Z" id="Rectangle-Copy-2" fill="#000000"></path>
                <path d="M75.5317638,114.696382 L86.7216547,114.696382 C86.9030359,127.43445 86.9030359,134.195009 86.7216547,134.978059 C86.4495828,136.152635 85.728361,140 81.1267092,140 C76.5250575,140 75.7785264,136.211824 75.5317638,134.978059 C75.3672553,134.15555 75.3672553,127.394991 75.5317638,114.696382 Z" id="Rectangle-Copy-3" fill="#000000"></path>
                <path d="M98.6109138,114.696382 L109.800805,114.696382 C109.982186,127.43445 109.982186,134.195009 109.800805,134.978059 C109.528733,136.152635 108.807511,140 104.205859,140 C99.6042075,140 98.8576764,136.211824 98.6109138,134.978059 C98.4464054,134.15555 98.4464054,127.394991 98.6109138,114.696382 Z" id="Rectangle-Copy-4" fill="#000000"></path>
                <path d="M121.690064,114.696382 L132.879955,114.696382 C133.061336,127.43445 133.061336,134.195009 132.879955,134.978059 C132.607883,136.152635 131.886661,140 127.285009,140 C122.683358,140 121.936826,136.211824 121.690064,134.978059 C121.525555,134.15555 121.525555,127.394991 121.690064,114.696382 Z" id="Rectangle-Copy-5" fill="#000000"></path>
                <path d="M6.29431365,9.93861964e-15 L17.4842046,9.93861964e-15 C17.6655858,12.7380675 17.6655858,19.4986266 17.4842046,20.2816773 C17.2121327,21.4562533 16.4909109,25.303618 11.8892591,25.303618 C7.28760736,25.303618 6.54107629,21.5154418 6.29431365,20.2816773 C6.12980522,19.4591677 6.12980522,12.6986086 6.29431365,9.93861964e-15 Z" id="Rectangle-Copy-11" fill="#000000" transform="translate(11.895586, 12.651809) scale(1, -1) translate(-11.895586, -12.651809) "></path>
                <path d="M29.3734637,9.93861964e-15 L40.5633546,9.93861964e-15 C40.7447359,12.7380675 40.7447359,19.4986266 40.5633546,20.2816773 C40.2912827,21.4562533 39.5700609,25.303618 34.9684091,25.303618 C30.3667574,25.303618 29.6202263,21.5154418 29.3734637,20.2816773 C29.2089553,19.4591677 29.2089553,12.6986086 29.3734637,9.93861964e-15 Z" id="Rectangle-Copy-10" fill="#000000" transform="translate(34.974736, 12.651809) scale(1, -1) translate(-34.974736, -12.651809) "></path>
                <path d="M52.4526137,9.93861964e-15 L63.6425046,9.93861964e-15 C63.8238859,12.7380675 63.8238859,19.4986266 63.6425046,20.2816773 C63.3704328,21.4562533 62.6492109,25.303618 58.0475592,25.303618 C53.4459074,25.303618 52.6993764,21.5154418 52.4526137,20.2816773 C52.2881053,19.4591677 52.2881053,12.6986086 52.4526137,9.93861964e-15 Z" id="Rectangle-Copy-9" fill="#000000" transform="translate(58.053886, 12.651809) scale(1, -1) translate(-58.053886, -12.651809) "></path>
                <path d="M75.5317638,9.93861964e-15 L86.7216547,9.93861964e-15 C86.9030359,12.7380675 86.9030359,19.4986266 86.7216547,20.2816773 C86.4495828,21.4562533 85.728361,25.303618 81.1267092,25.303618 C76.5250575,25.303618 75.7785264,21.5154418 75.5317638,20.2816773 C75.3672553,19.4591677 75.3672553,12.6986086 75.5317638,9.93861964e-15 Z" id="Rectangle-Copy-8" fill="#000000" transform="translate(81.133037, 12.651809) scale(1, -1) translate(-81.133037, -12.651809) "></path>
                <path d="M98.6109138,9.93861964e-15 L109.800805,9.93861964e-15 C109.982186,12.7380675 109.982186,19.4986266 109.800805,20.2816773 C109.528733,21.4562533 108.807511,25.303618 104.205859,25.303618 C99.6042075,25.303618 98.8576764,21.5154418 98.6109138,20.2816773 C98.4464054,19.4591677 98.4464054,12.6986086 98.6109138,9.93861964e-15 Z" id="Rectangle-Copy-7" fill="#000000" transform="translate(104.212187, 12.651809) scale(1, -1) translate(-104.212187, -12.651809) "></path>
                <path d="M121.690064,9.93861964e-15 L132.879955,9.93861964e-15 C133.061336,12.7380675 133.061336,19.4986266 132.879955,20.2816773 C132.607883,21.4562533 131.886661,25.303618 127.285009,25.303618 C122.683358,25.303618 121.936826,21.5154418 121.690064,20.2816773 C121.525555,19.4591677 121.525555,12.6986086 121.690064,9.93861964e-15 Z" id="Rectangle-Copy-6" fill="#000000" transform="translate(127.291337, 12.651809) scale(1, -1) translate(-127.291337, -12.651809) "></path>
                <rect id="Rectangle" stroke="#000000" stroke-width="10" x="5" y="33.6740955" width="129.873637" height="72.5254456"></rect>
            </g>
            <text id="LCD" font-family="SFCompact-Regular, SF Compact" font-size="55" font-weight="normal" fill="#000000">
                <tspan x="24.4357399" y="89">LCD</tspan>
            </text>
        </g>
        <text id="SPM-Copy-2" font-family="SFCompact-Bold, SF Compact" font-size="64" font-weight="bold" fill="#000000">
            <tspan x="38.21875" y="199">SPM</tspan>
        </text>
    </g>
</svg>