<?xml version="1.0" encoding="UTF-8"?>
<svg width="200px" height="200px" viewBox="0 0 200 200" version="1.1" xmlns="http://www.w3.org/2000/svg" xmlns:xlink="http://www.w3.org/1999/xlink">
    <title>lcd</title>
    <g id="lcd" stroke="none" stroke-width="1" fill="none" fill-rule="evenodd">
        <g id="package-copy-3">
            <rect id="Rectangle" x="0" y="0" width="200" height="200"></rect>
            <path d="M9,164 L25,164 C25.2593502,182.213679 25.2593502,191.880346 25,193 C24.6109748,194.679482 23.579727,200.180682 17,200.180682 C10.420273,200.180682 9.35283653,194.764113 9,193 C8.76477564,191.823925 8.76477564,182.157258 9,164 Z" id="Rectangle" fill="#000000"></path>
            <path d="M42,164 L58,164 C58.2593502,182.213679 58.2593502,191.880346 58,193 C57.6109748,194.679482 56.579727,200.180682 50,200.180682 C43.420273,200.180682 42.3528365,194.764113 42,193 C41.7647756,191.823925 41.7647756,182.157258 42,164 Z" id="Rectangle-Copy" fill="#000000"></path>
            <path d="M75,164 L91,164 C91.2593502,182.213679 91.2593502,191.880346 91,193 C90.6109748,194.679482 89.579727,200.180682 83,200.180682 C76.420273,200.180682 75.3528365,194.764113 75,193 C74.7647756,191.823925 74.7647756,182.157258 75,164 Z" id="Rectangle-Copy-2" fill="#000000"></path>
            <path d="M108,164 L124,164 C124.25935,182.213679 124.25935,191.880346 124,193 C123.610975,194.679482 122.579727,200.180682 116,200.180682 C109.420273,200.180682 108.352837,194.764113 108,193 C107.764776,191.823925 107.764776,182.157258 108,164 Z" id="Rectangle-Copy-3" fill="#000000"></path>
            <path d="M141,164 L157,164 C157.25935,182.213679 157.25935,191.880346 157,193 C156.610975,194.679482 155.579727,200.180682 149,200.180682 C142.420273,200.180682 141.352837,194.764113 141,193 C140.764776,191.823925 140.764776,182.157258 141,164 Z" id="Rectangle-Copy-4" fill="#000000"></path>
            <path d="M174,164 L190,164 C190.25935,182.213679 190.25935,191.880346 190,193 C189.610975,194.679482 188.579727,200.180682 182,200.180682 C175.420273,200.180682 174.352837,194.764113 174,193 C173.764776,191.823925 173.764776,182.157258 174,164 Z" id="Rectangle-Copy-5" fill="#000000"></path>
            <path d="M9,1.42108547e-14 L25,1.42108547e-14 C25.2593502,18.2136789 25.2593502,27.8803456 25,29 C24.6109748,30.6794817 23.579727,36.1806823 17,36.1806823 C10.420273,36.1806823 9.35283653,30.764113 9,29 C8.76477564,27.8239247 8.76477564,18.157258 9,1.42108547e-14 Z" id="Rectangle-Copy-11" fill="#000000" transform="translate(17.009047, 18.090341) scale(1, -1) translate(-17.009047, -18.090341) "></path>
            <path d="M42,1.42108547e-14 L58,1.42108547e-14 C58.2593502,18.2136789 58.2593502,27.8803456 58,29 C57.6109748,30.6794817 56.579727,36.1806823 50,36.1806823 C43.420273,36.1806823 42.3528365,30.764113 42,29 C41.7647756,27.8239247 41.7647756,18.157258 42,1.42108547e-14 Z" id="Rectangle-Copy-10" fill="#000000" transform="translate(50.009047, 18.090341) scale(1, -1) translate(-50.009047, -18.090341) "></path>
            <path d="M75,1.42108547e-14 L91,1.42108547e-14 C91.2593502,18.2136789 91.2593502,27.8803456 91,29 C90.6109748,30.6794817 89.579727,36.1806823 83,36.1806823 C76.420273,36.1806823 75.3528365,30.764113 75,29 C74.7647756,27.8239247 74.7647756,18.157258 75,1.42108547e-14 Z" id="Rectangle-Copy-9" fill="#000000" transform="translate(83.009047, 18.090341) scale(1, -1) translate(-83.009047, -18.090341) "></path>
            <path d="M108,1.42108547e-14 L124,1.42108547e-14 C124.25935,18.2136789 124.25935,27.8803456 124,29 C123.610975,30.6794817 122.579727,36.1806823 116,36.1806823 C109.420273,36.1806823 108.352837,30.764113 108,29 C107.764776,27.8239247 107.764776,18.157258 108,1.42108547e-14 Z" id="Rectangle-Copy-8" fill="#000000" transform="translate(116.009047, 18.090341) scale(1, -1) translate(-116.009047, -18.090341) "></path>
            <path d="M141,1.42108547e-14 L157,1.42108547e-14 C157.25935,18.2136789 157.25935,27.8803456 157,29 C156.610975,30.6794817 155.579727,36.1806823 149,36.1806823 C142.420273,36.1806823 141.352837,30.764113 141,29 C140.764776,27.8239247 140.764776,18.157258 141,1.42108547e-14 Z" id="Rectangle-Copy-7" fill="#000000" transform="translate(149.009047, 18.090341) scale(1, -1) translate(-149.009047, -18.090341) "></path>
            <path d="M174,1.42108547e-14 L190,1.42108547e-14 C190.25935,18.2136789 190.25935,27.8803456 190,29 C189.610975,30.6794817 188.579727,36.1806823 182,36.1806823 C175.420273,36.1806823 174.352837,30.764113 174,29 C173.764776,27.8239247 173.764776,18.157258 174,1.42108547e-14 Z" id="Rectangle-Copy-6" fill="#000000" transform="translate(182.009047, 18.090341) scale(1, -1) translate(-182.009047, -18.090341) "></path>
            <rect id="Rectangle" stroke="#000000" stroke-width="10" x="5" y="46" width="190" height="108"></rect>
        </g>
        <text id="LCD" font-family="SFCompact-Regular, SF Compact" font-size="55" font-weight="normal" fill="#000000">
            <tspan x="54.4357399" y="119">LCD</tspan>
        </text>
    </g>
</svg>