<?xml version="1.0" encoding="UTF-8"?>
<svg width="200px" height="200px" viewBox="0 0 200 200" version="1.1" xmlns="http://www.w3.org/2000/svg" xmlns:xlink="http://www.w3.org/1999/xlink">
    <title>led-blink</title>
    <g id="led-blink" stroke="none" stroke-width="1" fill="none" fill-rule="evenodd">
        <g id="package-copy-3">
            <rect id="Rectangle" x="0" y="0" width="200" height="200"></rect>
            <g id="Screenshot-2025-04-21-at-04.45.35" transform="translate(14.000000, 0.000000)" fill="#000000" fill-rule="nonzero">
                <path d="M88.8740434,38.0001603 C89.6804958,38.0011763 90.4866963,38.0222584 91.292645,38.0634068 C92.09809,38.1045552 92.9020238,38.1657697 93.7044465,38.2470504 C94.5073728,38.3278231 95.3075288,38.428408 96.1049143,38.5488051 C96.9028035,38.6692021 97.6971666,38.8094114 98.4880038,38.9694328 C99.278841,39.1294542 100.065397,39.3087797 100.84767,39.5074095 C101.629944,39.7060392 102.406929,39.9239731 103.178625,40.1612112 C103.950321,40.3979413 104.71572,40.6539755 105.474823,40.929314 C106.233926,41.2041444 106.985725,41.497771 107.73022,41.8101937 C108.475219,42.1221084 109.212159,42.4523113 109.941038,42.8008024 C110.669918,43.1498015 111.389731,43.5163267 112.100477,43.900378 C112.811727,44.2849374 113.512902,44.6865149 114.204003,45.1051106 C114.895608,45.5242143 115.576383,45.9600821 116.246328,46.4127141 C116.916776,46.8653461 117.575639,47.3342342 118.222917,47.8193784 C118.870698,48.3045227 119.506138,48.8054151 120.129237,49.3220556 C120.751833,49.8386962 121.361835,50.3703228 121.959245,50.9169356 C122.556654,51.4640564 123.140211,52.0254014 123.709916,52.6009704 C124.20356,53.0962748 124.686877,53.6019932 125.159868,54.1181257 C125.632356,54.6337502 126.093761,55.1592809 126.544085,55.6947176 C126.994913,56.2306623 127.434155,56.775751 127.861811,57.3299839 C128.289468,57.8842168 128.705287,58.4473397 129.109269,59.0193527 C129.513251,59.5918738 129.905143,60.1725229 130.284946,60.7613 C130.66475,61.3500772 131.03196,61.9467284 131.386578,62.5512537 C131.741195,63.155271 132.082968,63.7669084 132.411895,64.3861658 C132.740823,65.0054233 133.056654,65.6312848 133.359389,66.2637503 C133.662123,66.8962159 133.951509,67.5347775 134.227547,68.1794351 C134.503584,68.8246008 134.766021,69.4751005 135.014858,70.1309343 C135.263694,70.787276 135.498427,71.4484438 135.719055,72.1144377 C135.940188,72.7804315 136.147216,73.4507434 136.34014,74.1253733 C136.533064,74.8005113 136.711632,75.4792052 136.875844,76.1614552 C137.040056,76.8442132 137.190164,77.5300192 137.326168,78.2188733 C137.461668,78.9077273 137.582812,79.5993754 137.6896,80.2938175 C137.795884,80.9877516 137.887813,81.6837177 137.965386,82.3817158 C138.508645,87.3393313 138.386997,92.3540973 138.385486,97.333049 L138.383975,118.403296 L138.35753,145.967857 C141.911008,146.28028 145.206079,147.379856 147.796197,149.931816 C151.301318,153.38523 151.936002,157.599127 151.976804,162.332713 C152.026672,168.148348 152.330414,174.070664 147.940512,178.511639 C146.410469,180.060037 144.411212,181.327254 142.309197,181.901045 C137.824093,183.126351 132.399051,182.614283 127.765853,182.610473 L111.159784,182.611235 L111.159028,199.99238 L102.09815,200 L102.09815,191.458895 L102.097395,182.610473 L74.8920929,182.611235 L74.8913373,191.451275 L65.8304591,191.458895 L65.8304591,182.610473 L47.8318618,182.610473 C43.7857476,182.610473 39.3588225,182.968616 35.3973328,182.101453 C33.7222189,181.734927 32.0335045,180.876908 30.6455097,179.874107 C27.7320052,177.770206 25.8747972,174.613213 25.3232261,171.055404 C24.9994727,168.966743 25.0149507,166.830076 25.0043726,164.720842 L25.0006075,163.904722 L24.9997269,163.088961 C25.0085714,159.012689 25.2614021,154.986565 27.7954737,151.560224 C30.5888415,147.783719 34.2050325,146.595751 38.6425356,145.945759 C38.5844277,141.097543 38.5603343,137.84906 38.5555951,135.292284 L38.554755,134.579814 C38.5546621,134.38919 38.5546795,134.202281 38.5548,134.018649 L38.5554639,133.477151 C38.5570627,132.589589 38.5610644,131.77306 38.566588,130.972991 L38.5719462,130.2559 C38.5732177,130.096879 38.5745394,129.937861 38.5759044,129.778411 L38.5801221,129.298324 C38.6068445,126.324391 38.6459565,123.052824 38.6528276,116.71935 L38.6536522,115.665024 C38.6538282,115.304344 38.6539029,114.934282 38.6538693,114.5544 L38.6425356,96.9040393 C38.6395133,90.3279215 38.4861312,83.7533278 39.8877263,77.2869391 C40.0992879,76.3080145 40.340065,75.336456 40.6100579,74.3722635 C40.8795469,73.407563 41.1779998,72.4522606 41.5054165,71.5063563 C41.8328331,70.560452 42.1882061,69.6252158 42.5715355,68.7006477 C42.9548648,67.7765876 43.3656468,66.8649736 43.8038814,65.9658057 C44.2426197,65.0666378 44.7075514,64.1816941 45.1986764,63.3109744 C45.6903051,62.4402548 46.2076234,61.5852833 46.7506313,60.7460599 C47.2931355,59.9068365 47.8605738,59.0848853 48.4529461,58.2802063 C49.0453183,57.4760352 49.6611135,56.6904063 50.3003316,55.9233196 C50.8287317,55.285266 51.3724952,54.6609285 51.9316221,54.0503071 C52.4912527,53.4396858 53.0654912,52.8435425 53.6543374,52.2618774 C54.2431837,51.6802123 54.846134,51.1137874 55.4631885,50.5626025 C56.0797393,50.0114177 56.7098904,49.476235 57.3536419,48.9570544 C57.9973934,48.4373659 58.653486,47.9344414 59.3219197,47.4482812 C59.9903534,46.9621209 60.6703726,46.4929788 61.3619774,46.0408548 C62.0535821,45.5887309 62.7560167,45.154387 63.4692813,44.7378234 C64.1830496,44.3212597 64.9063886,43.9229842 65.6392982,43.5429969 C66.3722078,43.1630096 67.1141843,42.8015644 67.8652277,42.4586614 C68.6162711,42.1162664 69.3753741,41.7929215 70.1425365,41.4886269 C70.9091952,41.1843322 71.6831578,40.8995957 72.4644243,40.6344174 C73.2456908,40.369239 74.0330019,40.1238729 74.8263577,39.8983189 C75.6197134,39.6727649 76.4181063,39.4672771 77.2215364,39.2818555 C78.0249665,39.0964339 78.8326782,38.9315864 79.6446715,38.7873132 C80.4561611,38.6425319 81.2709249,38.5185788 82.0889628,38.4154539 C82.906497,38.311821 83.7262979,38.2290163 84.5483656,38.1670397 C85.9879915,38.0522307 87.429884,37.9966042 88.8740434,38.0001603 Z M138.251927,156.102265 C133.564641,155.900832 128.776,156.119112 124.075855,156.113252 L124.075855,156.113252 L92.8971199,156.104462 L57.9606896,156.10373 C51.6411357,156.10373 45.2739298,155.942584 38.9611834,156.160863 C37.6322239,156.39599 36.4999232,156.790797 35.6777383,157.89538 C35.2148338,158.516524 34.9614466,159.222636 34.8124397,159.969767 C34.4342498,161.873487 34.4992984,168.152319 34.8714373,170.078745 C35.0862492,171.188455 35.5287315,172.234439 36.5332039,172.881952 C37.5777646,173.555103 39.4656887,173.602714 40.694806,173.653988 C46.2163792,173.883987 51.8324998,173.692077 57.3639059,173.692077 L57.3639059,173.692077 L89.1485012,173.689147 L121.481472,173.687682 C127.406196,173.68988 133.381597,173.868605 139.298,173.628351 C140.584602,173.443766 141.579998,173.161028 142.402939,172.101859 C144.18497,169.809192 143.93007,163.011031 143.470191,160.229066 C143.283366,159.098847 142.762976,157.506432 141.728249,156.839874 C140.828913,156.260481 139.313884,156.147679 138.251927,156.102265 Z M88.8763244,46.1303046 C76.8616231,46.5287969 66.6030291,50.369841 58.3092728,59.0718888 C57.6910409,59.7207257 57.0951454,60.388646 56.5215863,61.0756498 C55.9480273,61.7626536 55.3983451,62.4674853 54.8725399,63.190145 C54.3467346,63.9128046 53.8455765,64.6515346 53.3690655,65.4063348 C52.893068,66.161135 52.4430013,66.9304988 52.0188654,67.7144264 C51.5947295,68.4983539 51.1972947,69.2948364 50.8265609,70.1038737 C50.4558271,70.9134132 50.1128214,71.7340011 49.7975436,72.5656372 C49.4822658,73.3972734 49.1954863,74.2382001 48.937205,75.0884175 C48.6784103,75.9386349 48.4486272,76.7961341 48.2478559,77.6609152 C46.9666744,83.297713 47.1301334,89.1598838 47.1514875,94.9065962 L47.1533696,95.6894912 L47.1587612,112.536903 C47.162554,129.275201 46.931023,129.464856 47.1432567,145.698082 L47.1533696,146.458819 L66.7809982,146.456559 L66.7825386,122.614063 C66.7786875,118.704469 66.4590452,114.553821 66.870344,110.685658 C66.9866476,109.591876 67.1799735,108.043104 68.0025711,107.242353 C70.1260747,105.176069 76.7877294,105.676256 79.7815844,105.78473 C81.4968699,105.847254 82.9410372,106.229927 84.1302608,107.502993 C85.2293684,108.679637 85.9487562,110.376055 86.7020338,111.782454 C87.2550536,111.177559 87.7988307,110.559105 88.3788083,109.977562 C90.5123247,107.650638 92.1698436,105.98134 95.5796188,105.79377 C98.4240506,105.637838 106.562992,105.547443 109.075458,105.952715 C109.904988,106.086048 110.774569,106.330868 111.414624,106.889059 C112.995121,108.267586 112.971244,110.260801 113.008985,112.164374 C113.211639,122.313415 113.019939,132.49043 113.012163,142.64992 L113.018997,146.458819 L130.358199,146.458819 L130.349727,111.116944 L130.358199,95.3655749 L130.359888,94.5699267 L130.366471,92.9773393 C130.389524,87.6665568 130.383583,82.338934 129.145869,77.1366229 C128.923532,76.2391991 128.670385,75.3503126 128.38643,74.4699635 C128.101961,73.5891121 127.787197,72.719058 127.442137,71.8598011 C127.096564,71.0005442 126.721722,70.1535911 126.317612,69.3189418 C125.912988,68.4847946 125.479867,67.6649601 125.018247,66.8594381 C124.556627,66.0539162 124.067279,65.2649667 123.550202,64.4925896 C123.033126,63.7197104 122.489863,62.9651613 121.920412,62.2289423 C121.350447,61.4927234 120.755578,60.7763411 120.135806,60.0797956 C119.516034,59.3832501 118.872641,58.7082991 118.205628,58.0549424 C110.382478,50.3502554 99.9559756,46.2003609 88.8763244,46.1303046 Z M77.1524452,115.05428 C76.6933474,117.789374 76.9741705,121.855561 77.008602,124.885347 L77.0119197,125.408775 L77.0341457,146.458819 L102.822015,146.456585 L102.835638,137.620451 L102.838506,115.200233 L96.0387904,115.200978 C93.091339,118.10813 89.4068455,123.330429 85.4377161,124.230723 C83.4803961,123.66627 82.4802271,122.834485 81.4628509,120.995176 C80.4512105,119.165546 79.6023215,117.214538 78.7032449,115.322357 C78.1877456,115.229275 77.6715294,115.125022 77.1524452,115.05428 Z" id="Combined-Shape"></path>
                <path d="M85.8911004,50.0363754 C86.3163792,50.0109058 86.3524589,49.9128864 86.6925284,50.2046292 C87.2598229,52.4474984 86.8713912,56.689346 86.8560382,59.1699315 C79.9226105,59.7264039 73.9710089,61.4305522 68.6450433,66.13394 C62.3764017,71.6701068 59.6765716,78.7761276 59.1852747,86.9989522 L50.9053863,86.9989522 C50.604467,87.0082139 50.450169,86.9565028 50.1791881,86.8268394 C50.1093318,86.6215389 50.0578992,86.4633186 50.0364049,86.246441 C49.8882482,84.7707473 50.2252472,83.0712298 50.4555426,81.6163749 C51.593202,74.4177373 54.4872479,67.875135 59.3311285,62.407659 C66.3497655,54.4866107 75.4932617,50.6345253 85.8911004,50.0363754 Z" id="Path"></path>
                <polygon id="Path" points="84.0090008 0.000288910557 92.987999 0 93 25.991116 84 26"></polygon>
                <path d="M164.462408,36 C165.883657,36.6600869 169.532954,41.0183086 171,42.3829965 C168.0224,45.5736861 164.85703,48.6111179 161.783255,51.710931 C158.376684,55.1472952 155.020491,58.6668345 151.515457,62 L151.341426,61.9630333 C149.514106,59.8020207 147.257053,57.3183196 145,55.6371042 C151.426915,49.0500976 157.875202,42.4222736 164.462408,36 Z" id="Path"></path>
                <path d="M6.31861292,36 C7.38149566,36.3683251 24.0122593,52.9093012 26,54.9017701 C23.7597749,56.6451804 21.520315,58.8911555 19.6504004,61 C18.5861404,60.6901592 2.30946699,44.4376019 0,42.1582708 C2.13265141,40.1309633 4.23885572,38.0782064 6.31861292,36 Z" id="Path"></path>
            </g>
        </g>
    </g>
</svg>