<?xml version="1.0" encoding="UTF-8"?>
<svg width="200px" height="200px" viewBox="0 0 200 200" version="1.1" xmlns="http://www.w3.org/2000/svg" xmlns:xlink="http://www.w3.org/1999/xlink">
    <title>led-blink-sdk</title>
    <g id="led-blink-sdk" stroke="none" stroke-width="1" fill="none" fill-rule="evenodd">
        <g id="package-copy-3">
            <rect id="Rectangle" x="0" y="0" width="200" height="200"></rect>
            <g id="Screenshot-2025-04-21-at-04.45.35" transform="translate(36.000000, 0.000000)" fill="#000000" fill-rule="nonzero">
                <path d="M67.2828441,29.0001207 C67.8924446,29.0008858 68.5018547,29.0167625 69.1110744,29.0477508 C69.7199134,29.0787391 70.3276101,29.1248389 70.9341645,29.1860503 C71.5410997,29.2468791 72.1459407,29.3226283 72.7486875,29.4132976 C73.351815,29.503967 73.9522772,29.6095567 74.5500741,29.7300666 C75.147871,29.8505766 75.7424314,29.9856242 76.3337553,30.1352096 C76.9250792,30.284795 77.5124051,30.448918 78.095733,30.6275788 C78.679061,30.805857 79.2576293,30.9986729 79.8314382,31.2060266 C80.405247,31.4129976 80.9735348,31.6341238 81.5363016,31.8694051 C82.0994491,32.1043039 82.6565044,32.3529752 83.2074675,32.6154191 C83.7584306,32.8782455 84.30254,33.1542707 84.8397957,33.4434946 C85.3774321,33.733101 85.9074533,34.0355236 86.4298592,34.3507623 C86.9526459,34.6663836 87.4672462,34.9946297 87.9736601,35.3355007 C88.4804548,35.6763717 88.9784919,36.029485 89.4677715,36.3948406 C89.9574319,36.7601961 90.4377636,37.1374114 90.9087666,37.5264863 C91.3793889,37.9155613 91.8404921,38.3159221 92.2920762,38.7275688 C92.7436604,39.1395981 93.1847735,39.5623393 93.6154157,39.9957925 C93.9885628,40.3687995 94.3539043,40.7496492 94.7114401,41.1383416 C95.0685952,41.5266514 95.4173735,41.9224214 95.7577751,42.3256515 C96.0985574,42.7292642 96.4305821,43.1397631 96.7538493,43.5571484 C97.0771166,43.9745336 97.3914359,44.3986139 97.6968073,44.8293891 C98.0021787,45.2605469 98.2984118,45.6978259 98.5855066,46.141226 C98.8726014,46.584626 99.1501771,47.033956 99.4182338,47.4892158 C99.6862905,47.944093 99.9446378,48.4047088 100.193276,48.8710632 C100.441913,49.3374175 100.680651,49.8087453 100.90949,50.2850465 C101.138328,50.7613478 101.357076,51.2422398 101.565733,51.7277228 C101.774391,52.2135883 101.972768,52.7034708 102.160865,53.1973703 C102.348962,53.6916523 102.526397,54.1895688 102.693171,54.6911197 C102.860325,55.1926707 103.016819,55.6974734 103.162651,56.2055281 C103.308483,56.7139653 103.443463,57.2250805 103.567591,57.7388737 C103.69172,58.2530494 103.805187,58.7695206 103.907993,59.2882873 C104.010418,59.8070539 104.101991,60.3279247 104.182713,60.8508996 C104.263054,61.3734919 104.332543,61.8976145 104.39118,62.4232675 C104.801833,66.1567804 104.709878,69.9333326 104.708736,73.6829135 L104.707594,89.5506303 L104.687604,110.309127 C107.373692,110.544408 109.864449,111.372484 111.822329,113.294331 C114.471863,115.89505 114.951624,119.068479 114.982466,122.633278 L114.989275,123.307547 C115.034379,127.467457 115.079589,131.644479 111.931417,134.817407 C110.774851,135.983484 109.263606,136.937808 107.674684,137.369923 C104.284377,138.292684 100.183566,137.907053 96.6813141,137.904183 L84.128722,137.904757 L84.1281508,150.994261 L77.2789978,151 L77.2784267,137.904183 L56.7138333,137.904757 L56.7132622,144.562071 L49.8641092,144.56781 L49.8641092,137.904183 L36.2588996,137.904183 C33.200426,137.904183 29.8540962,138.173896 26.8595908,137.520847 C25.5933656,137.244822 24.3168598,136.598659 23.2676692,135.843463 C21.0653398,134.259044 19.6614691,131.881555 19.2445343,129.202217 C18.9998078,127.629276 19.0115077,126.020181 19.0035117,124.431745 C19.00233,124.191596 19.0010207,123.95134 19.000319,123.711176 L19.0007722,122.991154 C19.0163838,119.993849 19.2418361,117.041676 21.1133159,114.520663 C23.2248334,111.676628 25.9583263,110.781985 29.3126521,110.292485 C29.2687495,106.64314 29.2505336,104.197358 29.2469387,102.272315 L29.2463253,101.781494 C29.2462266,101.621525 29.2462311,101.465045 29.2463316,101.311604 L29.2471799,100.733881 C29.2490005,99.9393192 29.2533745,99.2173216 29.259138,98.4960642 L29.2646689,97.8451931 C29.2847956,95.5906332 29.3149199,93.1361181 29.3203658,88.3419332 L29.3212193,86.6520792 L29.3126521,73.359832 L29.31144,72.534459 L29.3080063,70.8841072 C29.3043706,66.7592982 29.371004,62.6445849 30.2538967,58.5864603 C30.4138168,57.8492455 30.5958212,57.1175779 30.7999098,56.3914577 C31.0036177,55.6649549 31.2292194,54.9455296 31.4767149,54.2331819 C31.7242104,53.5208343 31.9928383,52.8165206 32.2825984,52.1202409 C32.5723586,51.4243438 32.8828702,50.7378196 33.2141335,50.0606685 C33.5457775,49.3835174 33.8972211,48.7170782 34.2684644,48.0613511 C34.6400885,47.405624 35.0311314,46.7617565 35.4415932,46.1297488 C35.8516742,45.4977411 36.280603,44.8787408 36.7283795,44.2727479 C37.176156,43.6671376 37.641638,43.0754912 38.1248254,42.4978086 C38.5242451,42.0172991 38.9352781,41.547119 39.3579243,41.0872683 C39.7809512,40.6274177 40.2150203,40.1784703 40.6601315,39.7404262 C41.1052426,39.3023821 41.5610152,38.8758152 42.027449,38.4607254 C42.4935021,38.0456355 42.9698358,37.6425967 43.4564501,37.2516089 C43.9430644,36.8602385 44.4390073,36.4814929 44.944279,36.1153722 C45.4495506,35.7492516 45.9635797,35.395947 46.4863664,35.0554586 C47.0091531,34.7149702 47.5401262,34.3878717 48.0792857,34.0741633 C48.6188259,33.7604549 49.1656007,33.460519 49.7196099,33.1743557 C50.2736191,32.8881924 50.834482,32.6159929 51.4021987,32.3577573 C51.9699153,32.0999043 52.5437242,31.8563977 53.1236252,31.6272375 C53.7031455,31.3980773 54.2881868,31.1836461 54.8787492,30.9839439 C55.4693116,30.7842417 56.0644432,30.5994598 56.6641439,30.4295982 C57.2638445,30.2597366 57.8673529,30.1049865 58.4746688,29.965348 C59.0819847,29.8257095 59.6925371,29.7015651 60.306326,29.5929148 C60.9197342,29.483882 61.5356173,29.3905347 62.1539753,29.3128727 C62.7719526,29.2348281 63.3916433,29.172469 64.0130474,29.1257953 C65.1012662,29.0393342 66.1911984,28.9974427 67.2828441,29.0001207 Z M104.607778,117.941212 C101.06464,117.789516 97.4448878,117.953899 93.8920302,117.949486 L93.8920302,117.949486 L70.3239032,117.942867 L43.9153198,117.942315 C39.1383444,117.942315 34.3253488,117.820958 29.5535192,117.985341 C28.5489536,118.162412 27.6930431,118.459736 27.0715503,119.291582 C26.721639,119.759358 26.5301026,120.291121 26.4174678,120.853775 C26.1315925,122.287441 26.1807631,127.015944 26.4620643,128.46671 C26.6244414,129.302417 26.9589155,130.090133 27.7182001,130.577767 C28.5077876,131.084707 29.9348768,131.120563 30.8639713,131.159176 C35.0377499,131.332385 39.2829973,131.18786 43.4642087,131.18786 L43.4642087,131.18786 L67.4903078,131.185654 L91.9309261,131.184551 C96.4094476,131.186206 100.926277,131.320801 105.398509,131.139869 C106.371056,131.000861 107.12348,130.787935 107.745545,129.990289 C109.092589,128.263713 108.899909,123.14411 108.552285,121.04905 C108.411062,120.197897 108.017698,118.998671 107.235543,118.496695 C106.555732,118.060362 105.410516,117.975412 104.607778,117.941212 Z M67.2845683,35.122822 C58.2026089,35.4229211 50.4480978,38.3155593 44.1788152,44.8689533 C43.7114913,45.3575835 43.2610516,45.8605853 42.8274961,46.3779585 C42.3939405,46.8953317 41.9784337,47.4261309 41.5809754,47.9703561 C41.1835172,48.5145813 40.8046898,49.0709087 40.4444933,49.6393385 C40.0846849,50.2077683 39.7444778,50.7871658 39.4238718,51.377531 C39.1032658,51.9678962 38.8028433,52.5677163 38.5226042,53.1769913 C38.2423651,53.7866445 37.9830857,54.4046181 37.744766,55.030912 C37.5064463,55.6572059 37.2896686,56.2904964 37.0944328,56.9307836 C36.8988088,57.5710707 36.7251149,58.2168418 36.573351,58.8680966 C35.6171289,63.0594941 35.7255142,67.4163579 35.7439416,71.691613 L35.7460247,72.4451724 L35.7501002,85.1327292 L35.7497524,86.4336785 C35.7454708,91.9274195 35.7062923,94.8873048 35.6847036,97.8229878 L35.6806359,98.4105453 C35.6755666,99.1955079 35.6719969,99.9906472 35.6709221,100.843553 L35.6709934,101.975724 C35.6738766,104.083174 35.6923888,106.608766 35.7388451,110.14135 L35.7460247,110.678863 L50.5826253,110.677162 L50.5837898,92.7217015 C50.5808787,89.7774395 50.3392598,86.651643 50.6501622,83.7385822 C50.7380765,82.9148696 50.8842123,81.7485107 51.5060171,81.1454759 C53.1111817,79.5893852 58.1467523,79.9660692 60.409819,80.0477597 C61.70641,80.0948452 62.7980616,80.3830312 63.6970004,81.3417601 C64.5278201,82.2278751 65.0716081,83.5054239 65.6410136,84.564564 C66.0590434,84.109026 66.4700867,83.6432766 66.908494,83.2053248 C68.5212273,81.4529499 69.7741523,80.1958238 72.3516146,80.0545673 C74.5017317,79.9371372 80.6539892,79.8690618 82.5531719,80.1742666 C83.1802166,80.2746778 83.8375365,80.4590487 84.3213565,80.8794145 C85.3368545,81.7618421 85.4761391,82.9787244 85.5125958,84.2043163 L85.5224525,84.6367094 L85.5265399,84.8521827 C85.6127076,89.1514293 85.6045566,93.4573416 85.5798853,97.7638212 L85.5402128,104.223204 C85.5329655,105.658378 85.5282047,107.093276 85.5288118,108.527673 L85.5341087,110.678863 L98.6408789,110.678863 L98.6344745,84.0633778 L98.6408789,72.2012354 L98.6425788,71.4758505 L98.648688,70.0237551 C98.6633449,66.149904 98.6305216,62.2673294 97.7244737,58.4732592 C97.5564079,57.7974215 97.3650535,57.1280132 97.1504105,56.4650342 C96.9353794,55.801677 96.6974479,55.1464511 96.4366159,54.4993564 C96.1753958,53.8522617 95.8920515,53.2144328 95.5865832,52.5858697 C95.2807266,51.9576849 94.9533282,51.3402786 94.6043878,50.7336509 C94.2554474,50.1270233 93.8855473,49.5328761 93.4946875,48.9512095 C93.1038277,48.3691646 92.6931726,47.8009239 92.2627222,47.2464874 C91.8318837,46.6920509 91.3822203,46.1525532 90.9137319,45.6279942 C90.4452436,45.1034353 89.9589006,44.5951388 89.4547031,44.1031048 C83.5411534,38.3008096 75.6597197,35.1755804 67.2845683,35.122822 Z M58.4224425,87.0285315 C58.0794914,89.0640613 58.2827666,92.0785715 58.3127161,94.3513233 L58.3162187,94.826361 L58.3330194,110.678863 L77.8261703,110.677181 L77.8364675,104.022809 L77.8386353,87.138447 L72.6987042,87.1390078 C70.4707142,89.3283445 67.6855912,93.2611872 64.6853109,93.9391862 C63.2057651,93.5141049 62.4497335,92.8876989 61.6806949,91.5025397 C60.9159919,90.1246708 60.2743135,88.6553926 59.594698,87.2304171 C59.2050301,87.1603179 58.8148202,87.0818069 58.4224425,87.0285315 Z" id="Combined-Shape"></path>
                <path d="M65.1608327,38.0275274 C65.4826654,38.0082531 65.5099689,37.9340762 65.7673188,38.1548545 C66.1966227,39.8521609 65.9026744,43.0622078 65.8910559,44.9394076 C60.6441377,45.3605218 56.140223,46.6501476 52.1097625,50.2094681 C47.3659256,54.3989997 45.3228109,59.776529 44.9510187,65.9992071 L38.6851572,65.9992071 C38.4574345,66.0062159 38.3406685,65.9670832 38.1356018,65.8689595 C38.0827376,65.713597 38.0438156,65.5938627 38.0275497,65.4297392 C37.9154311,64.312998 38.1704573,63.0268766 38.3447349,61.9259053 C39.2056664,56.4782877 41.3957552,51.5271292 45.0613945,47.3895798 C50.3727955,41.395273 57.292198,38.4801813 65.1608327,38.0275274 Z" id="Path"></path>
                <polygon id="Path" points="63.0070006 0.00022223889 69.9906659 0 70 19.9931662 63 20"></polygon>
                <path d="M123.971083,27 C125.064351,27.5077592 127.871503,30.8602374 129,31.9099973 C126.709538,34.3643739 124.274638,36.7008599 121.910196,39.0853315 C119.289757,41.7286886 116.70807,44.4360266 114.01189,47 L113.87802,46.9715641 C112.472389,45.3092467 110.736195,43.3987073 109,42.1054647 C113.943781,37.0385366 118.904001,31.9402105 123.971083,27 Z" id="Path"></path>
                <path d="M4.86047148,27 C5.67807359,27.2799271 18.4709687,39.8510689 20,41.3653453 C18.27675,42.6903371 16.5540885,44.3972781 15.1156926,46 C14.2970311,45.764521 1.77651307,33.4125775 0,31.6802858 C1.64050108,30.1395321 3.26065824,28.5794369 4.86047148,27 Z" id="Path"></path>
            </g>
            <text id="SPM" font-family="SFCompact-Bold, SF Compact" font-size="64" font-weight="bold" fill="#000000">
                <tspan x="38.21875" y="199">SPM</tspan>
            </text>
        </g>
    </g>
</svg>