<?xml version="1.0" encoding="UTF-8"?>
<svg width="512px" height="408px" viewBox="0 0 512 408" version="1.1" xmlns="http://www.w3.org/2000/svg" xmlns:xlink="http://www.w3.org/1999/xlink">
    <title>bootstrap-5-logo-icon</title>
    <g id="Page-1" stroke="none" stroke-width="1" fill="none" fill-rule="evenodd">
        <g id="bootstrap-5-logo-icon" fill="#000000" fill-rule="nonzero">
            <path d="M405.7,0 C424.9786,0 440.94664,11.142648 449.300305,26.6947877 L310.516,408 L106.34,408 C77.13,408 55.52,382.42 56.48,354.68 C57.41,328.03 56.2,293.52 47.52,265.37 C38.8,237.14 24.07,219.29 0,217 L0,191 C24.07,188.71 38.8,170.86 47.52,142.63 C56.2,114.48 57.41,79.97 56.48,53.32 C55.52,25.58 77.13,0 106.34,0 L405.7,0 Z M464.52,142.63 C473.24,170.86 487.93,188.71 512,191 L512,217 C487.93,219.29 473.24,237.14 464.52,265.37 C455.83,293.52 454.63,328.03 455.56,354.68 C456.52,382.42 434.91,408 405.7,408 L363.725,408 L462.674413,136.139603 C463.248307,138.335351 463.86273,140.500867 464.52,142.63 Z M266.64,95.46 L177.9,95.46 L177.9,312.46 L267.1,312.46 C314.4,312.46 342.9,289.3 342.9,251.1 C342.9,222.23 322.57,201.33 292.37,198.02 L292.37,198.02 L292.37,196.81 C314.56,193.21 331.96,172.6 331.96,149.59 C331.96,116.81 306.08,95.46 266.64,95.46 L266.64,95.46 Z M258.01,213.51 C290.67,213.51 307.62,225.54 307.62,249 C307.62,272.46 291.14,284.94 260.02,284.94 L212.41,284.94 L212.41,213.51 L258.01,213.51 Z M258.32,122.98 C283.28,122.98 297.45,134.11 297.45,154.26 C297.45,175.76 280.97,187.79 251.08,187.79 L212.41,187.79 L212.41,122.98 L258.32,122.98 Z" id="Combined-Shape"></path>
        </g>
    </g>
</svg>