<?xml version="1.0" encoding="UTF-8"?>
<svg width="506px" height="261px" viewBox="0 0 506 261" version="1.1" xmlns="http://www.w3.org/2000/svg" xmlns:xlink="http://www.w3.org/1999/xlink">
    <title>Group</title>
    <g id="Page-1" stroke="none" stroke-width="1" fill="none" fill-rule="evenodd">
        <g id="materialize-css-logo-icon" transform="translate(-0.000000, -124.000000)">
            <g id="Group" transform="translate(0.000000, 124.407931)">
                <path d="M210.931955,0.1869002 C214.792199,2.2746152 218.139323,5.6149592 219.935245,9.6591614 C222.421905,14.2839472 224.367816,19.2825334 226.163737,24.3089558 C231.573868,41.1874136 235.462083,58.490042 239.170107,75.853765 L240.094136,80.1957584 L240.094136,80.1957584 L240.554791,82.3673158 C243.9411,98.8402301 247.130571,115.353594 250.122513,131.903822 L250.122513,131.903822 L254.732702,154.129039 L251.156647,153.186585 C252.54602,189.31002 268.586953,220.27978 216.746004,259.974202 C213.422563,260.67806 211.058262,258.164849 209.132087,255.929999 C205.670498,251.476207 203.452239,246.1754 201.502381,240.878568 C194.579203,221.886327 190.430822,202.214087 186.140346,182.545823 C182.947158,167.196147 180.03816,151.838518 176.998908,136.484865 C175.61743,128.674823 173.801774,121.007938 172.842633,113.193919 L172.842633,113.193919 L172.420296,110.410299 C141.025221,76.8318886 163.472265,11.3770526 205.66655,0.1869002 L205.66655,0.1869002 Z M407.137313,121.503329 C408.137574,126.922798 409.119501,132.339036 410.085824,137.745447 C410.562629,140.253939 411.013935,142.767282 411.439672,145.285081 L411.439672,145.285081 L412.852727,155.68389 C425.925456,202.838413 423.722985,259.974202 375.596239,259.850927 C370.48477,260.399698 367.567878,255.532339 365.073323,251.889774 C363.909198,249.869296 362.874493,247.798418 361.934982,245.690082 Z M71.3276827,139.574683 C72.0568538,139.680377 72.7942252,139.739531 73.5357687,139.792147 L74.4273656,139.854709 C76.2135336,139.9838 78.0144517,140.167406 79.7744339,140.95854 C83.6425723,142.489531 87.1160027,145.281104 89.7329167,148.645308 L89.7329167,148.645308 L90.5460152,149.567879 C120.488564,185.397045 158.364744,256.745202 57.0589885,259.699816 C56.0840597,259.854904 55.2630671,259.143092 54.418392,258.586368 C51.5251823,256.780992 49.8516204,253.563922 48.1859526,250.633168 C43.2327468,239.230268 40.8873273,227.089634 38.7177961,214.89035 L37.8815384,210.166576 C36.6944832,203.474545 35.465956,196.791228 33.794899,190.228614 C31.1503554,180.179746 27.9808501,170.254152 23.1259417,161.056277 C20.228785,155.477107 16.6172068,150.180276 11.8964991,145.984963 C8.30465632,143.3445 4.29047596,140.95854 0,139.980297 C1.52357288,139.853045 3.16950524,139.574683 4.83912008,139.574683 L4.83912008,139.574683 Z M370.184792,0.1869002 C373.37798,1.849119 375.596239,4.6287624 377.668456,7.5674698 C381.003738,12.8722542 383.075955,18.8808968 385.148172,24.5873178 C385.798204,26.5655881 386.425909,28.553034 387.033546,30.5481392 L340.033253,159.678632 C338.073175,149.474276 336.200629,139.248477 334.328972,129.017028 L333.208258,122.893253 C332.834263,120.851854 332.459616,118.810355 332.083629,116.768882 L332.083629,116.768882 L331.558667,113.90573 C331.556199,113.748161 331.518419,113.59319 331.448149,113.452398 L331.448149,113.452398 L331.01397,111.141993 C295.581033,57.1119292 320.033193,15.2582142 364.248384,0.1869002 L364.248384,0.1869002 Z" id="Combined-Shape" fill="#161616"></path>
                <path d="M134.477016,0 C133.78233,0 133.087643,0.0357894 132.400852,0.1869002 C128.939262,1.7178912 126.59075,4.7838498 124.771146,7.8498084 C121.601641,13.4289782 119.383382,19.5807784 117.437471,25.5615848 C113.423291,38.1236642 110.384039,51.1112398 107.336894,63.9477046 C103.599009,80.4108286 100.263726,97.1403848 97.0902738,113.746666 C95.1483105,125.05214 92.6419147,136.361591 90.9762469,147.671041 C89.5947689,157.851137 87.2344151,167.888075 85.1621981,178.064195 C81.8466509,193.413871 78.5311037,208.914658 74.2208923,224.121176 C71.4539892,233.617297 68.5568325,243.093535 63.9703256,251.89375 C62.295366,254.959249 59.9821217,257.623504 57.1892421,259.703793 C61.3494644,260.125312 65.3596977,259.69584 69.5278142,259.850927 L130.454941,259.850927 C131.974567,259.974202 133.095538,258.868707 134.066519,257.890463 C138.483302,253.846261 140.697614,247.988729 143.069809,242.540787 C148.039182,229.302686 151.382359,215.599322 154.551864,201.939701 C161.352683,172.21064 166.744395,142.36228 171.997958,112.36281 C173.67152,103.296162 175.467441,94.0823794 177.413352,84.8845036 C181.703828,64.6316798 185.994304,44.4106688 192.23069,24.734452 C194.448949,18.3241728 196.793515,11.7627828 200.40904,5.885368 C201.656317,3.5232676 203.570651,1.7178912 205.66655,0.039766 L136.561074,0.039766 C135.862441,0.039766 135.171702,0 134.477016,0 Z M328.022083,0.1312278 C315.904548,0.1113448 303.787012,0.1113448 291.677371,0.1869002 C286.822462,1.849119 284.197654,6.5892262 281.979395,10.7885158 C276.299547,22.6507136 273.106359,35.610453 270.21315,48.4469178 C263.151824,77.8896642 257.594335,107.618726 252.332877,137.467085 C247.916095,160.63078 243.605883,183.794475 238.072077,206.687762 C235.024932,218.975456 231.973839,231.382448 227.407067,243.240669 C224.912513,249.245335 222.425852,255.798772 217.286754,259.974202 C218.534031,260.121336 219.931298,260.121336 221.178575,260.121336 C244.30057,260.121336 267.438352,260.276423 290.5564,260.121336 C294.021936,258.443211 296.244142,254.824505 298.186106,251.480184 C302.054244,244.071778 304.548799,236.130508 306.897311,228.312512 C310.639143,215.603299 313.552088,202.643559 316.322938,189.803118 C321.698141,164.179038 326.59339,138.455145 331.006076,112.645148 C335.718889,86.411518 340.834305,60.3130922 348.041673,34.7833202 C350.812523,25.4383102 353.575479,16.085347 358.288293,7.5674698 C359.807919,4.7838498 362.160378,2.3978898 364.378637,0.1869002 C352.261102,0.1869002 340.139619,0.1471342 328.022083,0.1312278 L328.022083,0.1312278 Z M494.778319,139.534917 C491.281206,139.570707 487.780146,139.638309 484.326451,139.574683 L434.332736,139.574683 C428.522634,139.296321 422.834892,142.087895 418.943071,146.414435 C416.594559,148.645308 415.351228,151.846471 413.555307,154.355706 C411.329154,157.445524 410.504214,161.191481 409.260884,164.682936 C405.37301,177.117764 402.878456,190.08148 400.806239,202.917945 C399.153326,213.023509 396.795015,222.999038 393.74886,232.770281 C391.526654,240.031553 388.613708,247.141713 384.050884,253.146379 C381.828678,256.08111 378.915733,258.164849 375.596239,259.703793 C376.993505,259.974202 378.521025,259.974202 380.036704,259.974202 C402.882403,259.842974 425.724155,260.129289 448.715896,259.850927 C456.069306,253.997372 460.359782,245.205109 463.130632,236.412847 C467.290854,223.846791 467.290854,210.453602 469.217029,197.621114 C471.158993,184.506287 473.507505,171.109121 480.162282,159.378151 C484.406348,152.074817 490.790126,146.273946 498.437262,142.77187 C500.659468,141.666375 503.154023,141.105674 505.22624,139.709888 C501.746587,139.53192 498.261921,139.473562 494.778319,139.534917 L494.778319,139.534917 Z" id="Shape" fill="#000000"></path>
            </g>
        </g>
    </g>
</svg>