<?xml version="1.0" encoding="UTF-8"?>
<svg width="57px" height="57px" viewBox="0 0 57 57" version="1.1" xmlns="http://www.w3.org/2000/svg" xmlns:xlink="http://www.w3.org/1999/xlink">
    <title>package</title>
    <g id="Page-1" stroke="none" stroke-width="1" fill="none" fill-rule="evenodd">
        <g id="Artboard" transform="translate(-377.000000, -210.000000)">
            <g id="package" transform="translate(377.000000, 210.000000)">
                <rect id="Rectangle" x="0" y="0" width="57" height="57"></rect>
                <path d="M6.45442541,44.6978412 C5.25048647,44.0189495 4.34005176,43.2376594 3.72312126,42.3539711 C3.10619077,41.4702827 2.79772552,40.1139813 2.79772552,38.2850668 L2.79772552,17.7654589 C2.79772552,16.4274353 3.05679116,15.3071229 3.57492245,14.4045215 C4.09305373,13.5019202 4.91146404,12.7372849 6.03015338,12.1106156 L24.0943186,1.8933659 C25.665226,1.0044553 27.2334518,0.56 28.7989958,0.56 C30.3645398,0.56 31.9329067,1.0044553 33.5040964,1.8933659 L51.5682616,12.1106156 C52.686951,12.7372849 53.5048673,13.5019202 54.0220106,14.4045215 C54.5391539,15.3071229 54.7977255,16.4274353 54.7977255,17.7654589 L54.7977255,38.2850668 C54.7977255,40.1139813 54.4938474,41.4702827 53.8860911,42.3539711 C53.2783348,43.2376594 52.3724872,44.0189495 51.1685483,44.6978412 L30.9411038,56.0790867 C30.2108365,56.4875509 29.4963771,56.6917829 28.7977255,56.6917829 C28.099074,56.6917829 27.3928008,56.4875509 26.6789059,56.0790867 L6.45442541,44.6978412 Z M8.98185034,41.0148889 L26.6039596,51.0022187 L26.6039596,30.1087265 L7.05568917,19.0086353 L7.05568917,37.9797772 C7.05568917,38.6832276 7.20127687,39.2640964 7.49245225,39.7223836 C7.78362764,40.1806707 8.28009366,40.6115059 8.98185034,41.0148889 Z M48.6140241,41.0148889 C49.3338469,40.6115059 49.8392755,40.1806707 50.1303097,39.7223836 C50.421344,39.2640964 50.5668611,38.6832276 50.5668611,37.9797772 L50.5668611,19.0086353 L31.0185906,30.1087265 L31.0185906,51.0022187 L48.6140241,41.0148889 Z M28.7977255,26.1827282 L36.3351172,21.9273051 L16.9896674,10.9978542 L9.46032079,15.2964667 L28.7977255,26.1827282 Z M40.841208,19.4083486 L48.1380942,15.2964667 L31.6215481,5.91886913 C29.7734383,4.83546522 27.8918779,4.83546522 25.9768669,5.91886913 L21.4326679,8.49795192 L40.841208,19.4083486 Z" id="Shape" fill="#000000" fill-rule="nonzero"></path>
            </g>
        </g>
    </g>
</svg>