<?xml version="1.0" encoding="UTF-8"?>
<svg width="505px" height="505px" viewBox="0 0 505 505" version="1.1" xmlns="http://www.w3.org/2000/svg" xmlns:xlink="http://www.w3.org/1999/xlink">
    <title>Combined Shape</title>
    <g id="Page-1" stroke="none" stroke-width="1" fill="none" fill-rule="evenodd">
        <g id="Unofficial_JavaScript_logo_2" transform="translate(-0.000074, -0.000378)" fill="#000000" fill-rule="nonzero">
            <path d="M505.000074,0.000377856813 L505.000074,505.000378 L7.36054096e-05,505.000378 L0,426.424 L155.206,-4.54747351e-13 L505.000074,0.000377856813 Z M384.536623,229.000378 C342.132639,229.000378 314.999544,256.05964 314.999544,291.604944 C314.999544,329.806538 337.308545,348.078313 371.000325,362.577546 L372.024761,363.015779 L383.894989,368.099397 C405.550135,377.554128 418.463018,383.310226 418.463018,399.561794 C418.463018,413.123449 405.895013,422.938435 386.220912,422.938435 C363.035469,422.938435 349.825405,410.98839 339.687898,394.654256 L339.381634,394.157948 L300.795372,416.533876 C314.73487,444.025447 343.223417,465.000378 387.31971,465.000378 C432.418557,465.000378 466.000074,441.623737 466.000074,398.953361 C466.000074,359.768987 443.675351,342.122942 404.084341,325.018532 L402.879334,324.500361 L391.009106,319.424748 C370.637228,310.618479 361.814761,304.862381 361.814761,290.64426 C361.814761,279.140071 370.629207,270.333802 384.536623,270.333802 C398.019848,270.333802 406.757947,275.947039 414.822839,290.161847 L415.09444,290.64426 L452.068596,266.947391 C436.428769,239.487844 414.725501,229.000378 384.536623,229.000378 Z M275.130014,231.706304 L227.649102,231.706304 L227.649102,392.861024 C227.649102,416.549888 217.808041,422.642225 202.208316,422.642225 C186.057908,422.642225 179.246152,411.696517 171.874077,398.660532 L171.650499,398.264871 L133.000074,421.621498 C144.196586,445.274336 166.212651,464.912315 204.229463,464.912315 C245.883857,464.912315 274.552181,443.020899 275.121382,394.965711 L275.130014,393.50148 L275.130014,231.706304 Z M101.997,-4.54747351e-13 L0,280.235 L7.36054096e-05,0.000377856813 L101.997,-4.54747351e-13 Z" id="Combined-Shape"></path>
        </g>
    </g>
</svg>