<?xml version="1.0" encoding="UTF-8"?>
<svg width="407px" height="195px" viewBox="0 0 407 195" version="1.1" xmlns="http://www.w3.org/2000/svg" xmlns:xlink="http://www.w3.org/1999/xlink">
    <title>logo-spa</title>
    <g id="Page-1" stroke="none" stroke-width="1" fill="none" fill-rule="evenodd">
        <g id="logo-spa" transform="translate(0.105469, 0.000000)" fill="#000000" fill-rule="nonzero">
            <path d="M197.684531,126.09 L229.334531,126.09 C237.981966,126.211419 246.604355,125.131096 254.954531,122.88 L263.134531,97.69 L286.014531,27.3 C284.249335,24.5212992 282.241489,21.9044076 280.014531,19.48 C268.294531,6.49333333 251.117864,1.13686838e-13 228.484531,1.13686838e-13 L148.894531,1.13686838e-13 L148.894531,192 L197.684531,192 L197.684531,126.09 Z M239.584531,44.17 C244.177865,48.7833333 246.471198,54.9566667 246.46456,62.69 C246.457865,70.4233333 244.457865,76.6 240.464531,81.22 C236.037865,86.3 227.891198,88.8366667 216.024531,88.8300262 L197.684531,88.8300262 L197.684531,37.25 L216.104531,37.25 C227.164531,37.25 234.991198,39.5566667 239.584531,44.17 L239.584531,44.17 Z M271.744531,157.61 L286.534531,120.36 L329.224531,120.36 L308.964531,63.85 L334.304531,0 L406.894531,192 L353.364531,192 L340.964531,157.61 L271.744531,157.61 Z" id="Shape"></path>
            <path d="M44.2900391,135.540039 L44.5498047,136.96875 C46.8876953,149.047852 60.9150391,156.970703 79.2285156,156.970703 C93.735127,156.970703 103.985141,152.258042 108.00152,144.809756 L108.000709,191.040034 C99.1500283,193.228794 89.2240615,194.376953 78.3193359,194.376953 C31.6914062,194.376953 2.20800781,173.725586 0.129882812,137.87793 L0.129882812,137.87793 L0,135.540039 L44.2900391,135.540039 Z M77.9296875,0.202148438 C89.1316782,0.202148438 99.1761683,1.45549309 108.001679,3.82517274 L108.000928,53.3584575 C104.558126,43.5358295 93.3977972,37.6083984 78.3193359,37.6083984 C60.7851562,37.6083984 50.9140625,45.53125 50.9140625,56.3115234 L50.9140625,56.3115234 L50.9140625,56.4414062 C50.9140625,66.5722656 59.0966797,70.6530637 79.2285156,74.4196653 L79.2285156,74.4196653 L100.746181,76.7955365 C103.25575,77.2794077 105.67383,77.8069276 108.00197,78.3782081 L108.000532,130.420686 C104.243714,125.039375 94.7299145,122.791165 78.3193359,119.586733 L78.3193359,119.586733 L58.7705956,116.018112 C21.6241112,109.134323 3.63671875,88.3925781 3.63671875,59.6884766 L3.63671875,59.6884766 L3.63671875,59.5585938 C3.63671875,23.4511719 34.9384766,0.202148438 77.9296875,0.202148438 Z" id="Combined-Shape" opacity="0.919999957"></path>
        </g>
    </g>
</svg>