<?xml version="1.0" encoding="UTF-8"?>
<svg width="204px" height="204px" viewBox="0 0 204 204" version="1.1" xmlns="http://www.w3.org/2000/svg" xmlns:xlink="http://www.w3.org/1999/xlink">
    <title>hummingbird</title>
    <g id="Page-1" stroke="none" stroke-width="1" fill="none" fill-rule="evenodd">
        <g id="Artboard" transform="translate(-392.000000, -442.000000)">
            <g id="hummingbird" transform="translate(392.000000, 442.000000)">
                <rect id="Rectangle" x="0" y="0" width="204" height="204"></rect>
                <path d="M204,0.751498066 C203.279371,3.78379368 201.154977,4.88425102 198.703214,6.50730394 C197.869572,7.07765449 197.036364,7.64863751 196.203584,8.2202418 C195.79417,8.49864911 195.384756,8.77705641 194.962936,9.0639003 C190.484573,12.1283275 186.367385,15.4821136 182.412665,19.1859722 C181.17045,20.3432982 179.910788,21.4647967 178.622362,22.570018 C177.962238,23.1491306 177.30288,23.7291158 176.644448,24.3101454 C176.345058,24.5668978 176.045668,24.8236502 175.737206,25.0881831 C170.294995,30.0795061 164.745292,38.2569958 164.324393,45.7040909 C164.312243,46.8850812 164.326893,48.0664441 164.357917,49.2470906 C164.609256,59.4185714 160.46135,67.9037751 153.686821,75.2925305 C151.36117,78.228412 150.691178,80.6764322 150.797475,84.3800946 C150.803568,84.7373109 150.809661,85.0945271 150.815939,85.462568 C150.841825,86.969892 150.886694,88.4764734 150.931047,89.9833518 C151.404042,107.624755 142.38271,123.515623 130.542717,136.132151 C130.179715,136.512449 129.816714,136.892746 129.442712,137.284568 C129.129493,137.637257 128.816275,137.989947 128.493565,138.353324 C124.101753,143.10022 118.283216,146.449831 112.781304,149.766635 C105.487279,154.210634 101.781909,159.529687 99.4052434,167.803724 C97.6567181,176.25454 99.5117824,184.489271 102.158399,192.537794 C103.060223,195.449287 103.211288,197.975102 103.159927,201 C101.308994,200.847347 100.225208,200.708248 98.7976216,199.481572 C95.036625,194.69672 91.826254,189.602777 88.6775761,184.401862 C88.4447365,184.022341 88.2118968,183.64282 87.9720015,183.251799 C84.7522242,177.972352 82.3750966,172.666796 80.6318256,166.732877 C80.4492876,166.128266 80.2667496,165.523655 80.0786802,164.900723 C75.777657,147.647902 80.1906886,123.708821 88.1411927,107.836258 C87.627459,108.075756 87.1137252,108.315254 86.5844238,108.562009 C73.9654459,114.329692 61.1738955,116.522087 47.3425328,116.503431 C46.7330628,116.503213 46.7330628,116.503213 46.1112803,116.50299 C7.97418072,116.440872 7.97418072,116.440872 0.878323674,110.346058 C-0.0829225219,108.381313 -0.147774768,107.338324 0.174320504,105.159139 C3.75120216,95.3482111 14.2948956,90.558488 23.1570906,86.3147314 C42.3973371,77.3956169 61.9778448,73.098465 82.936074,70.7507092 C93.4670581,69.7985395 93.4670581,69.7985395 101.883921,63.9984347 C104.211407,60.8783855 106.041243,57.4406078 107.953853,54.0596303 C112.937006,45.2668162 119.103753,35.3671007 129.442057,32.4181035 C134.536145,31.2820215 139.49449,30.9140334 144.696114,30.701767 C145.90805,30.6502737 147.119772,30.5968334 148.331377,30.53805 C149.420293,30.4854288 150.509533,30.4395826 151.598776,30.3941859 C154.355954,30.123673 156.960667,29.6520246 159.182655,27.920073 C159.499547,27.6778578 159.816439,27.4356426 160.142934,27.1860875 C160.47737,26.9216998 160.811807,26.6573121 161.156379,26.3849126 C161.70315,25.9650369 161.70315,25.9650369 162.260967,25.5366789 C163.483404,24.5972568 164.699994,23.6505741 165.916781,22.7038739 C196.816683,-1.16232761 196.816683,-1.16232761 204,0.751498066 Z M133.197396,40.9082832 C132.392776,42.5876602 131.941117,43.5560092 132.526916,45.3589936 C133.148463,46.339055 133.148463,46.339055 134.270162,46.797945 C136.485772,46.9993454 136.485772,46.9993454 138.494181,46.1955933 C139.381115,44.7200141 139.308763,43.6653118 139.097613,41.9791308 C138.313145,40.8436876 137.715177,40.4677634 136.44922,39.9378276 C134.966875,39.80331 134.382127,40.0016142 133.197396,40.9082832 Z" id="Shape" fill="#000000" fill-rule="nonzero"></path>
                <path d="M203,0.614102658 C202.284442,3.67500426 200.174998,4.78584306 197.740489,6.42420748 C196.912714,6.99993859 196.085369,7.57630814 195.258449,8.15330481 C194.851917,8.43433855 194.445384,8.71537228 194.026532,9.00492219 C189.579684,12.0982585 185.49147,15.4836834 181.564581,19.2224834 C180.331108,20.3907274 179.08031,21.5228058 177.800951,22.6384535 C177.145472,23.2230293 176.490755,23.8084859 175.836957,24.3949968 C175.539673,24.6541714 175.24239,24.913346 174.936099,25.1803744 C173.307479,26.6988401 172.021241,28.2678369 170.841669,30.1628771 C170.61639,30.5237707 170.391111,30.8846644 170.159005,31.2564942 C169.7151,31.9813655 169.281923,32.7131488 168.861291,33.4521733 C167.425597,35.8150363 166.178218,36.8204017 163.567062,37.6734457 C160.205472,38.4240962 157.258081,37.7705473 154,36.8259188 C154.017915,36.0822207 154.055188,35.3389975 154.099864,34.59646 C154.118401,34.1826167 154.136939,33.7687734 154.156038,33.3423894 C155.05996,30.028044 157.810878,28.1324051 160.491168,26.2866589 C163.526844,24.1580963 166.449093,21.9172873 169.345788,19.5982824 C175.560356,14.6539852 181.965627,10.0645693 188.619565,5.7486139 C189.026999,5.48238516 189.434433,5.21615643 189.854214,4.94186016 C198.436829,-0.543538634 198.436829,-0.543538634 203,0.614102658 Z" id="Path" fill="#3F3F3F" fill-rule="nonzero"></path>
            </g>
        </g>
    </g>
</svg>