<?xml version="1.0" encoding="UTF-8"?>
<svg width="505px" height="505px" viewBox="0 0 505 505" version="1.1" xmlns="http://www.w3.org/2000/svg" xmlns:xlink="http://www.w3.org/1999/xlink">
    <title>Combined Shape</title>
    <g id="Page-1" stroke="none" stroke-width="1" fill="none" fill-rule="evenodd">
        <g id="semantic-ui" fill="#000000" fill-rule="nonzero">
            <path d="M505,0 L505,62.287 L343.865,505 L0,505 L0,0 L505,0 Z M505,208.477 L505,505 L397.075,505 L505,208.477 Z M206.435942,87.1041281 C159.381473,101.666112 140.190044,148.483484 140.190044,171.64651 C137.319211,211.151319 154.374756,244.68532 196.290493,261.830182 C218.965541,271.104074 242.044516,281.094227 265.166838,289.261172 C284.588801,296.121879 304.501387,308.404853 300.12716,331.317287 C295.274132,356.72578 270.798163,357.757747 249.196968,355.902968 C218.561615,353.272734 195.555544,336.406089 166.271866,323.923825 C153.555081,343.322045 138.712265,356.64488 125.918635,376.16149 C176.606471,408.687202 236.598406,431.986377 298.377469,416.690374 C345.65656,404.985537 375.405245,369.482315 378.86522,319.981434 C381.584334,281.076468 358.580234,250.754786 313.716819,232.031389 C289.037902,221.733422 267.172678,211.954399 242.056338,202.692345 C226.912054,197.108278 212.354941,188.011971 215.328233,171.612966 C218.522207,153.986651 233.71378,144.355615 251.407726,144.047801 C282.334695,143.511099 305.975225,155.67963 332.606782,171.153218 C346.361953,152.932979 357.066987,139.821274 370.991611,121.38004 C318.565906,87.6408299 278.732854,64.728396 206.435942,87.1041281 Z" id="Combined-Shape"></path>
        </g>
    </g>
</svg>