<?xml version="1.0" encoding="UTF-8"?>
<svg width="395px" height="592px" viewBox="0 0 395 592" version="1.1" xmlns="http://www.w3.org/2000/svg" xmlns:xlink="http://www.w3.org/1999/xlink">
    <title>water-drop-icon</title>
    <g id="Page-1" stroke="none" stroke-width="1" fill="none" fill-rule="evenodd">
        <g id="water-drop-icon" fill="#000000">
            <path d="M196.996823,0 C230.42921,143.017925 270.185188,166.423754 333.061715,253.535964 L210.031639,591.622393 C205.768677,591.874097 201.455843,592 197.093036,592 C143.26167,592 97.0311579,572.729167 58.1609668,534.380208 C19.3869889,496.03125 0,450.022135 0,396.352865 C0,357.522135 14.528215,323.605469 35.1659774,291.760417 C113.964707,170.209635 159.810365,161.634115 196.996823,0 Z M394.330392,396.352865 C394.330392,450.022135 374.99151,496.03125 336.265639,534.380208 C315.518847,554.848794 292.647806,569.882322 267.623255,579.451488 L367.434583,305.17421 C383.601744,333.115774 394.330392,362.871241 394.330392,396.352865 Z M106.219532,363.929687 C105.257399,352.945312 95.5398511,344.803385 84.5234232,345.815104 C73.6032086,346.826823 65.4250743,356.606771 66.4353144,367.542969 C69.273608,397.75 76.0566488,427.8125 90.2481172,454.839844 C104.343372,481.674479 125.173561,504.606771 155.240231,522.239583 C164.717246,527.828125 176.984447,524.648438 182.564821,515.109375 C188.145195,505.61849 184.970155,493.333333 175.445034,487.744792 C152.353831,474.207031 136.382416,456.622396 125.654628,436.195312 C114.541987,415.045573 108.721079,390.523437 106.219532,363.929687 Z" id="Combined-Shape"></path>
        </g>
    </g>
</svg>