<?xml version="1.0" encoding="UTF-8"?>
<svg width="356px" height="192px" viewBox="0 0 356 192" version="1.1" xmlns="http://www.w3.org/2000/svg" xmlns:xlink="http://www.w3.org/1999/xlink">
    <title>Combined Shape</title>
    <g id="Page-1" stroke="none" stroke-width="1" fill="none" fill-rule="evenodd">
        <g id="iconmonstr-telegram-1" transform="translate(0.164425, 0.000000)" fill="#000000">
            <path d="M283.245575,0 L355.835575,192 L302.305575,192 L289.905575,157.61 L220.685575,157.61 L235.475575,120.36 L278.165575,120.36 L257.905575,63.85 L283.245575,0 Z M244.403374,0.0745381084 L167.345408,190.802835 C166.147551,190.213148 165.040527,189.42113 164.078249,188.447138 C159.15383,183.435069 153.187543,177.293719 147.148909,171.048433 L145.854162,169.70894 L144.55932,168.368508 C143.82595,167.609087 143.093555,166.850293 142.363872,166.093962 L141.489664,165.187665 C128.108512,151.312838 115.880389,138.520529 115.618966,138.24703 L115.614697,138.242563 L115.588795,138.259644 C115.016049,138.637335 105.03224,145.221035 94.3600671,152.258441 L93.4168402,152.88042 C91.6851297,154.022337 89.9421195,155.171698 88.2247331,156.304155 L87.29074,156.920036 C84.6528839,158.659454 82.0922627,160.347922 79.7451687,161.895561 C77.2542049,163.538269 74.0572358,163.784767 71.3289578,162.534511 C68.5925038,161.272558 66.8036983,158.700863 66.3514336,155.749487 C65.2696737,148.697599 63.9069564,139.607055 62.5292145,130.335718 L62.2535445,128.47959 L61.9779467,126.621945 C59.0090899,106.600208 56.135213,86.889549 56.0214454,86.1091313 L56.0179514,86.0851618 L56.0179514,86.0851618 C56.0179514,86.0851618 40.1037215,77.759162 22.8108297,68.8979351 L21.7283602,68.343482 C21.3670263,68.1584789 21.0052255,67.973314 20.6430891,67.7880577 L19.2307585,67.0659716 L17.81676,66.3438863 L16.402821,65.6227276 L15.6964137,65.262785 L15.6964137,65.262785 L14.2858027,64.5447522 C10.998813,62.8727637 7.74757647,61.2272451 4.63084144,59.6611237 C1.40552569,58.036064 -0.41936347,54.5657499 0.0823399122,51.0236532 C0.592219364,47.4932541 3.32168092,44.6721576 6.86568096,44.0253386 C62.7010589,33.8410047 199.423497,8.25940881 243.78162,0.163909143 C243.988723,0.125889322 244.196115,0.0961518169 244.403374,0.0745381084 Z M201.014132,27.5387169 C186.260778,33.6324104 167.962456,41.1908426 149.734844,48.7202715 L146.208773,50.176817 C106.865856,66.4285729 68.9428793,82.094686 68.9428793,82.094686 L76.0019635,140.092734 L85.8723413,105.893465 C85.8723413,105.893465 121.591895,83.6443723 157.787824,61.0998329 L160.935638,59.1392282 C176.147581,49.6645406 191.263225,40.250069 203.666061,32.525685 C204.916165,31.7418096 205.353349,30.1382273 204.656255,28.8367926 C203.969147,27.5371186 202.378958,26.9800297 201.014132,27.5387169 Z" id="Combined-Shape"></path>
        </g>
    </g>
</svg>