<?xml version="1.0" encoding="UTF-8"?>
<svg width="512px" height="307px" viewBox="0 0 512 307" version="1.1" xmlns="http://www.w3.org/2000/svg" xmlns:xlink="http://www.w3.org/1999/xlink">
    <title>Combined Shape</title>
    <g id="Page-1" stroke="none" stroke-width="1" fill="none" fill-rule="evenodd">
        <g id="Tailwind_CSS_Logo" fill="#000000">
            <path d="M128,153.5 C191.450074,153.5 220.501333,182.96821 245.598815,208.428364 C252.314403,215.2387 258.747187,221.764616 265.480518,227.362727 L236.844485,306.035962 C186.401133,300.76293 160.823278,274.817741 138.401185,252.071636 C122.993778,236.446852 109.074963,222.328642 89.6,217.458333 C55.4666667,208.930556 25.6,221.722222 0,255.833333 C17.0666667,187.611111 59.7333333,153.5 128,153.5 Z M384,204.666667 C370.061545,260.384189 339.047653,293.349284 290.958324,303.561952 L312.065503,245.564391 C338.937789,246.392999 362.915955,232.760424 384,204.666667 Z M512,51.1666667 C494.933333,119.388889 452.266667,153.5 384,153.5 C370.122092,153.5 357.889795,152.090265 346.984548,149.621072 L379.341077,60.7227865 C392.585931,73.9519782 405.368196,85.290631 422.4,89.5416667 C456.533333,98.0694444 486.4,85.2777778 512,51.1666667 Z M256,0 C293.890936,0 319.514547,10.5089701 339.35458,24.397615 L301.12243,129.434876 C287.517396,119.992513 276.630858,108.949134 266.401185,98.5716358 C250.993778,82.9468519 237.074963,68.8191667 217.6,63.9583333 C183.466667,55.4305556 153.6,68.2222222 128,102.333333 C145.066667,34.1111111 187.733333,0 256,0 Z" id="Combined-Shape"></path>
        </g>
    </g>
</svg>