<?xml version="1.0" encoding="UTF-8"?>
<svg width="57px" height="57px" viewBox="0 0 57 57" version="1.1" xmlns="http://www.w3.org/2000/svg" xmlns:xlink="http://www.w3.org/1999/xlink">
    <title>phone</title>
    <g id="Page-1" stroke="none" stroke-width="1" fill="none" fill-rule="evenodd">
        <g id="Artboard" transform="translate(-391.000000, -284.000000)">
            <g id="phone" transform="translate(391.000000, 284.000000)">
                <rect id="Rectangle-Copy" x="0" y="0" width="57" height="57"></rect>
                <path d="M18.9007006,56.0121078 C16.7614946,56.0121078 15.0364504,55.387928 13.7255678,54.1395683 C12.4146853,52.8912086 11.759244,51.2423248 11.759244,49.1929169 L11.759244,8.08516693 C11.759244,6.05198415 12.4146853,4.40722656 13.7255678,3.15089417 C15.0364504,1.89456177 16.7614946,1.26639557 18.9007006,1.26639557 L38.3381853,1.26639557 C40.4438219,1.26639557 42.1459971,1.89456177 43.4447107,3.15089417 C44.7434244,4.40722656 45.3927813,6.05296326 45.3927813,8.08810425 L45.3927813,49.1903992 C45.3927813,51.2414856 44.7434244,52.8912086 43.4447107,54.1395683 C42.1459971,55.387928 40.4438219,56.0121078 38.3381853,56.0121078 L18.9007006,56.0121078 Z M19.5846758,51.3774414 L37.5728045,51.3774414 C38.6106564,51.3774414 39.4136629,51.1060193 39.9818239,50.5631752 C40.5499849,50.0203311 40.8340654,49.2525024 40.8340654,48.2596893 L40.8340654,9.01839447 C40.8340654,8.02558136 40.5499849,7.25775274 39.9818239,6.7149086 C39.4136629,6.17206446 38.6106564,5.9006424 37.5728045,5.9006424 L34.2817507,5.9006424 C33.8845135,5.9006424 33.685895,6.10737356 33.685895,6.52083588 L33.685895,7.12382507 C33.685895,7.67296346 33.5208457,8.11300151 33.1907473,8.44393921 C32.8606488,8.77487691 32.4299822,8.94034576 31.8987475,8.94034576 L25.2801333,8.94034576 C24.74722,8.94034576 24.3201901,8.77487691 23.9990435,8.44393921 C23.6778968,8.11300151 23.5173235,7.67296346 23.5173235,7.12382507 L23.5173235,6.52083588 C23.5173235,6.10737356 23.3105923,5.9006424 22.89713,5.9006424 L19.5846758,5.9006424 C18.5448656,5.9006424 17.7445866,6.17122523 17.1838389,6.7123909 C16.6230911,7.25355657 16.3427172,8.02138519 16.3427172,9.01587677 L16.3427172,48.262207 C16.3427172,49.2566986 16.6230911,50.0245272 17.1838389,50.5656929 C17.7445866,51.1068586 18.5448656,51.3774414 19.5846758,51.3774414 Z M23.1568728,49.4354553 C22.802996,49.4354553 22.5094042,49.3232778 22.2760973,49.0989227 C22.0427904,48.8745677 21.926137,48.5756607 21.926137,48.2022018 C21.926137,47.8284632 22.0427904,47.5289968 22.2760973,47.3038025 C22.5094042,47.0786082 22.802996,46.966011 23.1568728,46.966011 L34.043828,46.966011 C34.3993832,46.966011 34.6938143,47.0786082 34.9271212,47.3038025 C35.1604281,47.5289968 35.2770815,47.8284632 35.2770815,48.2022018 C35.2770815,48.5756607 35.1604281,48.8745677 34.9271212,49.0989227 C34.6938143,49.3232778 34.3993832,49.4354553 34.043828,49.4354553 L23.1568728,49.4354553 Z" id="Shape" fill="#000000" fill-rule="nonzero"></path>
            </g>
        </g>
    </g>
</svg>