<?xml version="1.0" encoding="UTF-8"?>
<svg width="200px" height="200px" viewBox="0 0 200 200" version="1.1" xmlns="http://www.w3.org/2000/svg" xmlns:xlink="http://www.w3.org/1999/xlink">
    <title>nordic</title>
    <g id="nordic" stroke="none" stroke-width="1" fill="none" fill-rule="evenodd">
        <g id="Nordic_Semiconductor_Company_Logo" transform="translate(0.000000, 12.000000)" fill="#000000" fill-rule="nonzero">
            <g id="Group">
                <path d="M143.722222,1.1 C143.722222,1.1 143.444444,1.1 143.444444,1.375 C142.888889,1.65 142.611111,1.925 142.055556,1.925 L99,26.4 L149,55 L149,0 C147.333333,0 145.388889,0.55 143.722222,1.1 Z" id="Path" opacity="0.6"></path>
                <path d="M56.4444444,174.826296 L102,148.652939 L52,120 L52,175.928332 C53.3888889,176.203841 54.7777778,175.652823 56.4444444,174.826296 Z" id="Path" opacity="0.8"></path>
                <path d="M200,145.248577 L97.9253112,86.2390892 L97.9253112,86.2390892 L93.2226833,83.4686907 L1.10650069,30 C0.553250346,31.6622391 0,33.3244782 0,35.2637571 C0,35.540797 0,36.0948767 0,36.3719165 L0,142.201139 C0,145.525617 1.93637621,148.573055 4.70262794,150.235294 L46.7496542,174.891841 C48.1327801,175.72296 49.7925311,176 51.4522822,176 L51.4522822,121.97723 L51.4522822,119.760911 L146.887967,174.891841 C147.164592,175.16888 147.441217,175.16888 147.717842,175.16888 C147.717842,175.16888 147.994467,175.16888 147.994467,175.16888 C150.760719,176.27704 152.973721,175.44592 155.463347,173.783681 L171.507607,164.641366 L196.957123,149.404175 C198.340249,148.573055 199.44675,146.910816 200,145.248577 Z" id="Path" opacity="0.5"></path>
                <path d="M201,75.4 L201,35.352381 C201,30.1047619 198.229917,25.4095238 193.797784,22.9238095 L156.67867,1.65714286 C154.462604,0.552380952 151.969529,0 149.476454,0 L149.476454,55.5142857 L66.0969529,7.18095238 L56.6786704,1.93333333 C52.5235457,-0.276190476 48.9224377,-0.552380952 44.767313,1.38095238 C44.767313,1.38095238 44.4903047,1.38095238 44.4903047,1.65714286 C43.9362881,1.93333333 43.6592798,2.20952381 43.1052632,2.48571429 L28.4238227,11.047619 L7.37119114,23.2 C7.37119114,23.2 7.37119114,23.2 7.37119114,23.2 C4.60110803,24.8571429 2.38504155,27.3428571 1,30.3809524 C1,30.3809524 93.2437673,83.4095238 93.2437673,83.4095238 L97.9529086,86.1714286 L97.9529086,86.1714286 L200.168975,145 C200.722992,143.066667 200.722992,139.752381 200.722992,139.752381 L200.722992,75.4 L201,75.4 Z" id="Path"></path>
            </g>
        </g>
    </g>
</svg>