<?xml version="1.0" encoding="UTF-8"?>
<svg width="200px" height="200px" viewBox="0 0 200 200" version="1.1" xmlns="http://www.w3.org/2000/svg" xmlns:xlink="http://www.w3.org/1999/xlink">
    <title>library</title>
    <g id="library" stroke="none" stroke-width="1" fill="none" fill-rule="evenodd">
        <g id="library-svgrepo-com" transform="translate(0.000000, 1.000000)" fill="#000000" fill-rule="nonzero">
            <path d="M200.571211,175.027776 L156.219178,57.9701459 C154.980421,54.710164 152.495639,52.0753351 149.311621,50.645467 C146.127603,49.215599 142.505255,49.1078585 139.241693,50.3459543 L118.447565,58.1673232 L118.447565,38.9096671 C118.447565,31.9401917 112.790949,26.2903156 105.813158,26.2903156 L72.3846233,26.2903156 L72.3846233,12.6193515 C72.3846233,5.6498761 66.7280066,0 59.7502163,0 L13.1608406,0 C5.89230904,0 0,5.88528761 0,13.1451578 L0,190.604788 C0,194.234723 2.94615452,197.177367 6.5804203,197.177367 L111.867145,197.177367 C115.501411,197.177367 118.447565,194.234723 118.447565,190.604788 L118.447565,106.935859 L151.349667,193.759626 C151.969045,195.389617 153.211436,196.707031 154.803445,197.421965 C156.395454,198.136899 158.206628,198.19077 159.838409,197.571722 L196.754567,183.506403 C198.386502,182.887762 199.705489,181.646852 200.421276,180.05674 C201.137063,178.466628 201.190997,176.657612 200.571211,175.027776 Z M60,38.0423077 L60,183 L14,183 L14,13 L60,13 L60,38.0423077 Z M106,184 L73,184 L73,39 L106,39 L106,184 Z M162.197433,182 L120,71.3369863 L144.736426,62 L187,172.663014 L162.197433,182 Z" id="Shape"></path>
        </g>
    </g>
</svg>