<?xml version="1.0" encoding="UTF-8"?>
<svg width="200px" height="200px" viewBox="0 0 200 200" version="1.1" xmlns="http://www.w3.org/2000/svg" xmlns:xlink="http://www.w3.org/1999/xlink">
    <title>command-plugin</title>
    <g id="command-plugin" stroke="none" stroke-width="1" fill="none" fill-rule="evenodd">
        <g id="􀊃-copy" fill="#000000" fill-rule="nonzero">
            <path d="M9.8085168,130 C6.85404926,130 4.48067957,128.958501 2.68840774,126.875503 C0.896135914,124.792506 0,121.987064 0,118.459179 L0,11.5495456 C0,8.0158441 0.896135914,5.20749447 2.68840774,3.12449668 C4.48067957,1.04149889 6.85404926,0 9.8085168,0 C11.347596,0 12.82649,0.271072209 14.245199,0.813216628 C15.6639079,1.35536105 17.1975912,2.10917028 18.8462488,3.07464432 L107.176444,54.2717721 C110.42063,56.1163094 112.70227,57.828738 114.021362,59.4090578 C115.340454,60.9893776 116,62.853025 116,65 C116,67.1951656 115.340454,69.0708607 114.021362,70.6270852 C112.70227,72.1833097 110.42063,73.8836906 107.176444,75.7282279 L18.8462488,126.932834 C17.1975912,127.898308 15.6639079,128.65087 14.245199,129.190522 C12.82649,129.730174 11.347596,130 9.8085168,130 Z M14.5029574,113.445277 C14.7528295,113.445277 15.0637168,113.362606 15.4356194,113.197262 L97.1412991,65.8537217 C97.3438532,65.7531861 97.5075983,65.6376948 97.6325343,65.5072478 C97.7574704,65.3768008 97.8199384,65.2077182 97.8199384,65 C97.8199384,64.7922818 97.7574704,64.6246533 97.6325343,64.4971143 C97.5075983,64.3695754 97.3438532,64.2763099 97.1412991,64.2173179 L15.4356194,16.8662998 C15.0637168,16.6535964 14.7528295,16.5472447 14.5029574,16.5472447 C14.0347585,16.5472447 13.8006591,16.8372193 13.8006591,17.4171684 L13.8006591,112.575354 C13.8006591,113.155303 14.0347585,113.445277 14.5029574,113.445277 Z" id="Shape"></path>
        </g>
        <g id="􀡷-copy-2" transform="translate(58.000000, 102.000000)" fill="#000000" fill-rule="nonzero">
            <path d="M0,59.5298603 L0,38.423436 C0,34.2457413 1.11644741,31.0610351 3.34934224,28.8693174 C5.58223707,26.6775997 8.82881905,25.5817409 13.0890882,25.5817409 L31.2226042,25.5817409 C33.7065888,25.5817409 35.8402404,25.3372331 37.6235591,24.8482175 C39.4068778,24.359202 41.0461486,23.5162454 42.5413716,22.3193478 C44.0365946,21.1224501 45.6068998,19.4702674 47.2522873,17.3627996 C51.5761699,11.7504151 56.9249026,7.45351898 63.2984855,4.47211139 C69.6720683,1.4907038 76.3585194,0 83.3578388,0 L101.045449,0 C103.287824,0 105.094386,0.667283403 106.465135,2.00185021 C107.835883,3.33641701 108.521258,5.0699497 108.521258,7.20244825 L108.521258,90.6446199 C108.521258,92.8479372 107.835883,94.6246632 106.465135,95.9747979 C105.094386,97.3249326 103.287824,98 101.045449,98 L83.3578388,98 C76.3585194,98 69.6720683,96.5005965 63.2984855,93.5017895 C56.9249026,90.5029824 51.5761699,86.1952499 47.2522873,80.5785918 C45.6068998,78.474787 44.0365946,76.8334408 42.5413716,75.6545531 C41.0461486,74.4756654 39.4068778,73.6415612 37.6235591,73.1522403 C35.8402404,72.6629195 33.7065888,72.4182591 31.2226042,72.4182591 L13.0890882,72.4182591 C8.82881905,72.4182591 5.58223707,71.3137006 3.34934224,69.1045835 C1.11644741,66.8954664 0,63.703892 0,59.5298603 Z M9.95398274,58.6470682 C9.95398274,59.9633198 10.2746498,60.9407404 10.9159839,61.57933 C11.5573181,62.2179196 12.5021925,62.5372144 13.7506074,62.5372144 L31.2226042,62.5372144 C36.4468624,62.5372144 40.8791632,63.4578579 44.5195066,65.299145 C48.15985,67.140432 51.662721,70.2363096 55.0281195,74.5867776 C58.4742582,79.0312635 62.6655618,82.3966796 67.6020301,84.6830257 C72.5384985,86.9693719 77.7904347,88.112545 83.3578388,88.112545 L97.5580223,88.112545 C97.9452083,88.112545 98.2092961,88.0432525 98.3502856,87.9046676 C98.4912751,87.7660826 98.5617699,87.5227959 98.5617699,87.1748073 L98.5617699,10.8251927 C98.5617699,10.4735411 98.4912751,10.2284228 98.3502856,10.0898379 C98.2092961,9.95125294 97.9452083,9.88196047 97.5580223,9.88196047 L83.3578388,9.88196047 C77.7904347,9.88196047 72.5384985,11.0260493 67.6020301,13.314227 C62.6655618,15.6024046 58.4742582,18.970568 55.0281195,23.418717 C51.662721,27.7661325 48.15985,30.8613995 44.5195066,32.7045181 C40.8791632,34.5476366 36.4468624,35.4691959 31.2226042,35.4691959 L13.7506074,35.4691959 C12.5021925,35.4691959 11.5573181,35.7884907 10.9159839,36.4270803 C10.2746498,37.0656699 9.95398274,38.0409538 9.95398274,39.3529318 L9.95398274,58.6470682 Z M102.053784,38.7650143 L102.053784,20.4882867 L132.812132,20.4882867 C135.34872,20.4882867 137.514178,21.3758102 139.308507,23.1508574 C141.102836,24.9259045 142,27.0756498 142,29.6000934 C142,32.1599464 141.102836,34.3273965 139.308507,36.1024436 C137.514178,37.8774907 135.34872,38.7650143 132.812132,38.7650143 L102.053784,38.7650143 Z M102.053784,77.6371724 L102.053784,59.3549502 L132.812132,59.3549502 C135.34872,59.3549502 137.514178,60.2433896 139.308507,62.0202682 C141.102836,63.7971468 142,65.9478079 142,68.4722516 C142,70.9924216 141.102836,73.1499509 139.308507,74.9448395 C137.514178,76.7397281 135.34872,77.6371724 132.812132,77.6371724 L102.053784,77.6371724 Z" id="Shape"></path>
        </g>
    </g>
</svg>