<?xml version="1.0" encoding="UTF-8"?>
<svg width="200px" height="200px" viewBox="0 0 200 200" version="1.1" xmlns="http://www.w3.org/2000/svg" xmlns:xlink="http://www.w3.org/1999/xlink">
    <title>build-tool-plugin</title>
    <g id="build-tool-plugin" stroke="none" stroke-width="1" fill="none" fill-rule="evenodd">
        <g id="􀙄-copy" transform="translate(1.000000, 1.000000)" fill="#000000" fill-rule="nonzero" stroke="#000000" stroke-width="3">
            <path d="M3.82870407,127.319124 C1.07750228,124.50703 -0.190995867,121.572498 0.0232096244,118.515528 C0.237415116,115.458557 1.93432425,112.466465 5.11393702,109.539253 L78.198508,41.5708972 L84.8345272,48.1745926 L12.8313593,115.640884 C11.6632699,116.682942 10.9912002,117.731156 10.8151501,118.785524 C10.6390999,119.839893 11.2318467,121.043817 12.5933903,122.397295 L19.6521307,129.369304 C21.0136744,130.684187 22.2172415,131.273256 23.262832,131.136511 C24.3084226,130.999766 25.3550172,130.350808 26.402616,129.189639 L93.150386,56.3832975 L99.8506669,63.0438869 L32.59282,136.797463 C29.6053228,140.03543 26.5652782,141.76188 23.4726865,141.976813 C20.3800947,142.191745 17.4411284,140.912462 14.6557876,138.138964 L3.82870407,127.319124 Z M44.4731921,13.4692585 C49.0806183,8.92772067 54.1736886,5.51923831 59.7524029,3.24381141 C65.3311171,0.968384503 71.1369227,-0.109939607 77.1698196,0.00883907505 C83.2027164,0.127617757 89.1931069,1.48209398 95.140991,4.07226776 C101.088875,6.66244153 106.673112,10.5526929 111.893701,15.7430218 L125.4017,29.0552174 C127.320848,31.0015908 128.575456,32.7737887 129.165525,34.3718111 C129.755594,35.9698336 129.843452,37.7097582 129.429098,39.5915852 L128.013334,46.2012695 L131.743522,49.9023733 L135.223692,49.5889573 C136.7566,49.4572028 138.183911,49.6794553 139.505626,50.2557149 C140.827341,50.8319745 142.254317,51.8627206 143.786556,53.3479532 L148.553967,58.1510038 C150.13641,59.7280652 150.95106,61.4259017 150.997918,63.2445131 C151.044775,65.0631245 150.300746,66.735342 148.76583,68.2611657 L130.556689,86.413343 C129.021773,87.9398321 127.322354,88.6711361 125.458431,88.6072551 C123.594509,88.5433742 121.869318,87.7229029 120.282859,86.1458414 L115.508419,81.528445 C113.968148,80.000625 112.936112,78.5701238 112.412313,77.2369412 C111.888513,75.9037587 111.677822,74.4562891 111.780239,72.8945324 L112.04331,69.5437758 L108.139415,65.6630068 L101.793578,66.7879107 C99.9393613,67.1658732 98.2546686,67.1961501 96.7394994,66.8787415 C95.2243303,66.5613329 93.6229769,65.5834883 91.9354392,63.9452075 L77.8189626,49.7895834 C76.08189,48.0162211 74.9852583,46.1312333 74.5290675,44.1346202 C74.0728767,42.1380072 74.3736012,39.8098452 75.4312408,37.1501343 L78.9887254,28.4473501 C74.6443703,25.6239442 70.1853818,24.1209115 65.6117598,23.9382518 C61.0381379,23.7555921 56.4593281,24.2049216 51.8753306,25.2862401 C49.8095864,25.7833139 48.0263257,25.7167712 46.5255484,25.0866121 C45.0247712,24.4564529 43.8938332,23.5424892 43.1327343,22.344721 C42.3836844,21.0557893 42.0871437,19.5850298 42.2431121,17.9324423 C42.3990805,16.2798549 43.1424404,14.792127 44.4731921,13.4692585 Z M54.8213255,15.9416517 C54.4605231,16.2577295 54.3401999,16.5556743 54.4603558,16.8354863 C54.5805117,17.1152982 54.8812361,17.1953158 55.3625291,17.075539 C61.6534766,15.3021766 67.8426765,15.276724 73.9301289,16.9991813 C80.0175812,18.7216385 85.4861805,21.8689408 90.3359267,26.4410883 L84.866658,39.3819758 C84.404108,40.511205 84.2260497,41.4141892 84.3324831,42.0909282 C84.4389164,42.7676673 84.8967807,43.4893226 85.7060758,44.2558943 L97.8133718,56.2325783 C98.5456868,56.9612207 99.2286342,57.4010678 99.8622139,57.5521196 C100.495794,57.7031715 101.309607,57.6742255 102.303654,57.4652814 L111.720998,55.8932107 L121.204612,65.3775387 L120.831091,71.3763612 C120.792266,72.1569068 120.845817,72.7421496 120.991745,73.1320897 C121.137672,73.5220298 121.49814,74.0028007 122.073148,74.5744023 L125.392664,77.8742537 L140.131675,63.2285429 L136.813163,59.9217044 C136.238155,59.3507682 135.754352,59.0024173 135.361754,58.8766517 C134.969155,58.750886 134.39967,58.7073005 133.653298,58.7458953 L127.56049,59.0583132 L117.961407,49.6378661 L119.897289,40.5647719 C120.103461,39.500089 120.120866,38.6228902 119.949501,37.9331753 C119.778137,37.2434604 119.326297,36.5346145 118.593982,35.8066376 L103.615998,20.9882485 C100.204106,17.5959027 96.4565139,14.9340292 92.3732217,13.002628 C88.2899295,11.0712267 84.07711,9.88576889 79.734763,9.4462545 C75.392416,9.0067401 71.0984327,9.32481411 66.8528129,10.4004765 C62.6071931,11.4761389 58.5966973,13.3231973 54.8213255,15.9416517 Z" id="Shape"></path>
        </g>
        <g id="􀡷-copy" transform="translate(58.000000, 102.000000)" fill="#000000" fill-rule="nonzero">
            <path d="M0,59.5298603 L0,38.423436 C0,34.2457413 1.11644741,31.0610351 3.34934224,28.8693174 C5.58223707,26.6775997 8.82881905,25.5817409 13.0890882,25.5817409 L31.2226042,25.5817409 C33.7065888,25.5817409 35.8402404,25.3372331 37.6235591,24.8482175 C39.4068778,24.359202 41.0461486,23.5162454 42.5413716,22.3193478 C44.0365946,21.1224501 45.6068998,19.4702674 47.2522873,17.3627996 C51.5761699,11.7504151 56.9249026,7.45351898 63.2984855,4.47211139 C69.6720683,1.4907038 76.3585194,0 83.3578388,0 L101.045449,0 C103.287824,0 105.094386,0.667283403 106.465135,2.00185021 C107.835883,3.33641701 108.521258,5.0699497 108.521258,7.20244825 L108.521258,90.6446199 C108.521258,92.8479372 107.835883,94.6246632 106.465135,95.9747979 C105.094386,97.3249326 103.287824,98 101.045449,98 L83.3578388,98 C76.3585194,98 69.6720683,96.5005965 63.2984855,93.5017895 C56.9249026,90.5029824 51.5761699,86.1952499 47.2522873,80.5785918 C45.6068998,78.474787 44.0365946,76.8334408 42.5413716,75.6545531 C41.0461486,74.4756654 39.4068778,73.6415612 37.6235591,73.1522403 C35.8402404,72.6629195 33.7065888,72.4182591 31.2226042,72.4182591 L13.0890882,72.4182591 C8.82881905,72.4182591 5.58223707,71.3137006 3.34934224,69.1045835 C1.11644741,66.8954664 0,63.703892 0,59.5298603 Z M9.95398274,58.6470682 C9.95398274,59.9633198 10.2746498,60.9407404 10.9159839,61.57933 C11.5573181,62.2179196 12.5021925,62.5372144 13.7506074,62.5372144 L31.2226042,62.5372144 C36.4468624,62.5372144 40.8791632,63.4578579 44.5195066,65.299145 C48.15985,67.140432 51.662721,70.2363096 55.0281195,74.5867776 C58.4742582,79.0312635 62.6655618,82.3966796 67.6020301,84.6830257 C72.5384985,86.9693719 77.7904347,88.112545 83.3578388,88.112545 L97.5580223,88.112545 C97.9452083,88.112545 98.2092961,88.0432525 98.3502856,87.9046676 C98.4912751,87.7660826 98.5617699,87.5227959 98.5617699,87.1748073 L98.5617699,10.8251927 C98.5617699,10.4735411 98.4912751,10.2284228 98.3502856,10.0898379 C98.2092961,9.95125294 97.9452083,9.88196047 97.5580223,9.88196047 L83.3578388,9.88196047 C77.7904347,9.88196047 72.5384985,11.0260493 67.6020301,13.314227 C62.6655618,15.6024046 58.4742582,18.970568 55.0281195,23.418717 C51.662721,27.7661325 48.15985,30.8613995 44.5195066,32.7045181 C40.8791632,34.5476366 36.4468624,35.4691959 31.2226042,35.4691959 L13.7506074,35.4691959 C12.5021925,35.4691959 11.5573181,35.7884907 10.9159839,36.4270803 C10.2746498,37.0656699 9.95398274,38.0409538 9.95398274,39.3529318 L9.95398274,58.6470682 Z M102.053784,38.7650143 L102.053784,20.4882867 L132.812132,20.4882867 C135.34872,20.4882867 137.514178,21.3758102 139.308507,23.1508574 C141.102836,24.9259045 142,27.0756498 142,29.6000934 C142,32.1599464 141.102836,34.3273965 139.308507,36.1024436 C137.514178,37.8774907 135.34872,38.7650143 132.812132,38.7650143 L102.053784,38.7650143 Z M102.053784,77.6371724 L102.053784,59.3549502 L132.812132,59.3549502 C135.34872,59.3549502 137.514178,60.2433896 139.308507,62.0202682 C141.102836,63.7971468 142,65.9478079 142,68.4722516 C142,70.9924216 141.102836,73.1499509 139.308507,74.9448395 C137.514178,76.7397281 135.34872,77.6371724 132.812132,77.6371724 L102.053784,77.6371724 Z" id="Shape"></path>
        </g>
    </g>
</svg>