<?xml version="1.0" encoding="UTF-8"?>
<svg width="200px" height="200px" viewBox="0 0 200 200" version="1.1" xmlns="http://www.w3.org/2000/svg" xmlns:xlink="http://www.w3.org/1999/xlink">
    <title>executable</title>
    <g id="executable" stroke="none" stroke-width="1" fill="none" fill-rule="evenodd">
        <g id="package-svgrepo-com" transform="translate(0.000000, 0.000000)" fill="#000000" fill-rule="nonzero">
            <path d="M181.172727,5.70909606 C179.78975,2.25822087 176.444954,-0.00284664525 172.727273,2.68986878e-06 L27.2727273,2.68986878e-06 C23.5550455,-0.00284664525 20.2102497,2.25822087 18.8272727,5.70909606 L0.645454545,51.1636397 C0.219414283,52.2402529 0,53.3876122 0,54.5454577 L0,190.909089 C0,195.929859 4.07013864,200.000003 9.09090909,200.000003 L190.909091,200.000003 C195.929861,200.000003 200,195.929859 200,190.909089 L200,54.5454577 C200,53.3876122 199.780586,52.2402529 199.354545,51.1636397 L181.172727,5.70909606 Z M33.4272727,18.1818228 L166.572727,18.1818228 L177.481818,45.454549 L22.5181818,45.454549 L33.4272727,18.1818228 Z M18.1818182,181.81818 L18.1818182,63.6363665 L181.818182,63.6363665 L181.818182,181.81818 L18.1818182,181.81818 Z M80.6432654,145.531394 C82.5624969,145.531394 84.1709593,146.086823 85.4686526,147.197683 C86.7663458,148.308543 87.4151924,149.687857 87.4151924,151.335624 C87.4151924,152.928998 86.7663458,154.297761 85.4686526,155.441914 C84.1709593,156.586067 82.5624969,157.158143 80.6432654,157.158143 L43.1969504,157.158143 C41.2711649,157.158143 39.6594255,156.586067 38.3617323,155.441914 C37.064039,154.297761 36.4151924,152.928998 36.4151924,151.335624 C36.4151924,149.687857 37.0656775,148.308543 38.3666478,147.197683 C39.667618,146.086823 41.2777189,145.531394 43.1969504,145.531394 L80.6432654,145.531394 Z M47.3649912,87.4208282 L74.4056267,104.291992 C76.1563355,105.413083 77.344577,106.964238 77.9703512,108.945458 C78.5961254,110.926678 78.6127988,112.907898 78.0203715,114.889118 C77.4279441,116.870338 76.2230292,118.421494 74.4056267,119.542585 L47.3649912,136.523352 C45.2547619,137.857388 43.320906,138.260834 41.5634236,137.733692 C39.8059412,137.206549 38.4694626,136.183058 37.5539878,134.663218 C36.638513,133.143378 36.3373494,131.484968 36.650497,129.687986 C36.9636446,127.891005 38.0752926,126.422575 39.985441,125.282695 L62.020925,111.926683 L39.9651202,98.6442622 C38.0018254,97.4501022 36.8802775,95.9560974 36.6004767,94.1622477 C36.320676,92.3683981 36.638513,90.7112923 37.5539878,89.1909304 C38.4694626,87.6705684 39.8059412,86.6606472 41.5634236,86.1611668 C43.320906,85.6616864 45.2547619,86.0815736 47.3649912,87.4208282 Z" id="Shape"></path>
        </g>
    </g>
</svg>