<?xml version="1.0" encoding="UTF-8"?>
<svg width="200px" height="200px" viewBox="0 0 200 200" version="1.1" xmlns="http://www.w3.org/2000/svg" xmlns:xlink="http://www.w3.org/1999/xlink">
    <title>empty</title>
    <g id="empty" stroke="none" stroke-width="1" fill="none" fill-rule="evenodd">
        <g id="package-copy-3">
            <rect id="Rectangle" x="0" y="0" width="200" height="200"></rect>
            <path d="M23.7984496,156.69241 C19.5846633,154.297678 16.3981418,151.541745 14.2388851,148.424611 C12.0796284,145.307477 11,140.523241 11,134.071904 L11,61.6907654 C11,56.9710031 11.9067297,53.019198 13.7201892,49.8353499 C15.5336487,46.6515019 18.3980848,43.9543171 22.3134975,41.7437955 L85.5380757,5.70333268 C91.0362517,2.56777756 96.5250418,1 102.004446,1 C107.48385,1 112.973134,2.56777756 118.472298,5.70333268 L181.696876,41.7437955 C185.612289,43.9543171 188.474996,46.6515019 190.284998,49.8353499 C192.094999,53.019198 193,56.9710031 193,61.6907654 L193,134.071904 C193,140.523241 191.936427,145.307477 189.80928,148.424611 C187.682133,151.541745 184.511666,154.297678 180.29788,156.69241 L109.501824,196.838767 C106.945888,198.279589 104.44528,199 102,199 C99.5547196,199 97.0827633,198.279589 94.5841313,196.838767 L23.7984496,156.69241 Z M32.6444368,143.701115 L94.3218194,178.930555 L94.3218194,105.230572 L25.9028728,66.0759622 L25.9028728,132.995021 C25.9028728,135.476382 26.4124297,137.525346 27.4315435,139.141914 C28.4506574,140.758483 30.1882885,142.278216 32.6444368,143.701115 Z M171.357045,143.701115 C173.876425,142.278216 175.645425,140.758483 176.664045,139.141914 C177.682665,137.525346 178.191974,135.476382 178.191974,132.995021 L178.191974,66.0759622 L109.773028,105.230572 L109.773028,178.930555 L171.357045,143.701115 Z M102.004504,91.4313418 L169.69129,52.9816092 L111.883379,19.9029465 C105.414995,16.0813331 98.8295334,16.0813331 92.126995,19.9029465 L34.3177173,52.9816092 L102.004504,91.4313418 Z" id="Shape" fill="#000000" fill-rule="nonzero"></path>
        </g>
    </g>
</svg>