<?xml version="1.0" encoding="UTF-8"?>
<svg width="200px" height="200px" viewBox="0 0 200 200" version="1.1" xmlns="http://www.w3.org/2000/svg" xmlns:xlink="http://www.w3.org/1999/xlink">
    <title>tool</title>
    <g id="tool" stroke="none" stroke-width="1" fill="none" fill-rule="evenodd">
        <g id="package-copy-3" transform="translate(-1.000000, 0.000000)">
            <rect id="Rectangle" x="1" y="0" width="200" height="200"></rect>
            <g id="􀩼" transform="translate(0.000000, 21.000000)" fill="#000000" fill-rule="nonzero">
                <path d="M37.631676,66.5699989 L57.4291733,54.5704619 L37.6134191,42.6370419 C35.8495221,41.5641642 34.8418819,40.2218948 34.5904984,38.6102336 C34.339115,36.9985725 34.6246716,35.5097671 35.4471682,34.1438174 C36.2696648,32.7778678 37.4704068,31.8705171 39.0493942,31.4217654 C40.6283817,30.9730136 42.3658296,31.3502558 44.2617381,32.5534919 L68.5560493,47.7111721 C70.1289511,48.7184017 71.1965114,50.1120173 71.7587302,51.8920189 C72.320949,53.6720206 72.335929,55.4520223 71.8036702,57.2320239 C71.2714115,59.0120256 70.1888712,60.4056412 68.5560493,61.4128708 L44.2617381,76.6690231 C42.3658296,77.8675701 40.6283817,78.2300414 39.0493942,77.7564372 C37.4704068,77.282833 36.2696648,76.3632905 35.4471682,74.9978098 C34.6246716,73.632329 34.3540951,72.1423513 34.6354385,70.5278767 C34.916782,68.9134021 35.9155278,67.5941095 37.631676,66.5699989 Z M73.4151924,76.3356245 C73.4151924,74.6878569 73.9727299,73.3085432 75.087805,72.1976833 C76.20288,71.0868235 77.5829141,70.5313936 79.2279073,70.5313936 L111.323531,70.5313936 C112.968524,70.5313936 114.347154,71.0868235 115.45942,72.1976833 C116.571686,73.3085432 117.127819,74.6878569 117.127819,76.3356245 C117.127819,77.9289979 116.571686,79.2977611 115.45942,80.4419139 C114.347154,81.5860667 112.968524,82.1581431 111.323531,82.1581431 L79.2279073,82.1581431 C77.5772966,82.1581431 76.1958581,81.5860667 75.0835919,80.4419139 C73.9713256,79.2977611 73.4151924,77.9289979 73.4151924,76.3356245 Z M27.336191,158 C18.3116668,158 11.4995039,155.72459 6.89970236,151.173769 C2.29990079,146.622948 0,139.879245 0,130.942662 L0,27.0573382 C0,18.1263815 2.29990079,11.384086 6.89970236,6.83045158 C11.4995039,2.27681719 18.3116668,0 27.336191,0 L173.653978,0 C182.738423,0 189.567204,2.27681719 194.140322,6.83045158 C198.713441,11.384086 201,18.1263815 201,27.0573382 L201,130.942662 C201,139.879245 198.713441,146.622948 194.140322,151.173769 C189.567204,155.72459 182.738423,158 173.653978,158 L27.336191,158 Z M27.9414773,142.634122 L173.050096,142.634122 C177.093765,142.634122 180.219907,141.561009 182.428524,139.414785 C184.63714,137.268561 185.741448,134.079704 185.741448,129.848214 L185.741448,28.1602265 C185.741448,23.8752805 184.63714,20.6580541 182.428524,18.5085473 C180.219907,16.3590406 177.093765,15.2842872 173.050096,15.2842872 L27.9414773,15.2842872 C23.9034264,15.2842872 20.7936684,16.3590406 18.6122034,18.5085473 C16.4307384,20.6580541 15.3400059,23.8752805 15.3400059,28.1602265 L15.3400059,129.848214 C15.3400059,134.079704 16.4307384,137.268561 18.6122034,139.414785 C20.7936684,141.561009 23.9034264,142.634122 27.9414773,142.634122 Z" id="Shape"></path>
            </g>
        </g>
    </g>
</svg>