<?xml version="1.0" encoding="UTF-8"?>
<svg width="200px" height="200px" viewBox="0 0 200 200" version="1.1" xmlns="http://www.w3.org/2000/svg" xmlns:xlink="http://www.w3.org/1999/xlink">
    <title>macro</title>
    <g id="macro" stroke="none" stroke-width="1" fill="none" fill-rule="evenodd">
        <g id="ô‡µ" transform="translate(-0.000000, 19.000000)" fill="#000000" fill-rule="nonzero">
            <path d="M0,80.8803697 C0,78.4466007 0.717850477,76.4216757 2.15355143,74.8055948 C3.58925239,73.1895139 5.71751834,72.1276342 8.53834929,71.6199559 C13.429161,70.782115 16.9286285,68.9664359 19.0367518,66.1729184 C21.1448751,63.379401 22.1989367,58.9159904 22.1989367,52.7826867 L22.1989367,31.9065572 C22.1989367,21.0789436 24.7354132,13.0542807 29.8083661,7.83256841 C34.881319,2.61085614 42.6776037,0 53.1972203,0 C54.9714896,0 56.4616186,0.186091569 57.6676074,0.558274707 C59.2935923,1.11054646 60.5023668,1.90958249 61.2939308,2.95538281 C62.0854949,4.00118312 62.481277,5.31175658 62.481277,6.88710318 C62.481277,9.92631295 61.1570035,11.875129 58.5084567,12.7335514 C58.0978891,12.8982039 57.6241078,13.0242659 57.0871128,13.1117375 C56.5501177,13.1992091 55.9721945,13.2729597 55.3533431,13.3329892 C48.9951165,13.7832108 44.4966582,15.5296416 41.8579685,18.5722816 C39.2192787,21.6149216 37.8999338,26.6711239 37.8999338,33.7408884 L37.8999338,58.6883069 C37.8999338,65.3275739 36.1760212,70.5021201 32.7281961,74.2119456 C29.280371,77.921771 24.4493444,80.0969842 18.2351164,80.7375852 C17.9908329,80.7530213 17.8714769,80.8501405 17.8770483,81.0289428 C17.8826197,81.2077451 18.0019757,81.3022916 18.2351164,81.3125824 C24.4493444,81.9094475 29.280371,84.0752275 32.7281961,87.8099223 C36.1760212,91.5446172 37.8999338,96.7311693 37.8999338,103.369579 L37.8999338,128.259112 C37.8999338,135.279137 39.2192787,140.322905 41.8579685,143.390414 C44.4966582,146.457924 48.9951165,148.243803 55.3533431,148.748051 C55.8187674,148.802935 56.2689775,148.860606 56.7039735,148.921064 C57.1389694,148.981523 57.5343229,149.071781 57.8900339,149.19184 C60.9508626,149.940495 62.481277,151.916753 62.481277,155.120615 C62.481277,156.612778 62.0859235,157.898267 61.2952165,158.977084 C60.5045096,160.055901 59.3467346,160.863298 57.8218917,161.399276 C56.6210457,161.799759 55.304915,162 53.8734997,162 C43.0521717,162 35.0677458,159.413799 29.9202222,154.241397 C24.7726985,149.068994 22.1989367,141.019676 22.1989367,130.093443 L22.1989367,109.275199 C22.1989367,103.098159 21.1474465,98.5989455 19.044466,95.7775572 C16.9414855,92.9561689 13.4394466,91.1518525 8.53834929,90.364608 C5.71751834,89.862075 3.58925239,88.7778986 2.15355143,87.112079 C0.717850477,85.4462593 0,83.3690229 0,80.8803697 Z M200,80.8803697 C200,83.3690229 199.280864,85.4462593 197.842591,87.112079 C196.404319,88.7778986 194.275196,89.862075 191.455222,90.364608 C186.558411,91.1518525 183.070943,92.9561689 180.992819,95.7775572 C178.914696,98.5989455 177.875634,103.098159 177.875634,109.275199 L177.875634,130.093443 C177.875634,141.019676 175.301872,149.068994 170.154349,154.241397 C165.006825,159.413799 156.997542,162 146.1265,162 C144.689942,162 143.373812,161.799759 142.178108,161.399276 C140.653265,160.863298 139.494205,160.055901 138.700926,158.977084 C137.907648,157.898267 137.511009,156.612778 137.511009,155.120615 C137.511009,151.916753 139.043995,149.940495 142.109966,149.19184 C142.515391,149.071781 142.923387,148.981523 143.333955,148.921064 C143.744522,148.860606 144.179518,148.802935 144.638943,148.748051 C151.052026,148.243803 155.565484,146.457924 158.179317,143.390414 C160.79315,140.322905 162.100066,135.279137 162.100066,128.259112 L162.100066,103.369579 C162.100066,96.7311693 163.823979,91.5446172 167.271804,87.8099223 C170.719629,84.0752275 175.575513,81.9094475 181.839454,81.3125824 C182.022881,81.3022916 182.11738,81.2077451 182.122952,81.0289428 C182.128523,80.8501405 182.034024,80.7530213 181.839454,80.7375852 C175.575513,80.0969842 170.719629,77.921771 167.271804,74.2119456 C163.823979,70.5021201 162.100066,65.3275739 162.100066,58.6883069 L162.100066,33.7408884 C162.100066,26.6711239 160.79315,21.6149216 158.179317,18.5722816 C155.565484,15.5296416 151.052026,13.7832108 144.638943,13.3329892 C144.025234,13.2729597 143.449882,13.1992091 142.912887,13.1117375 C142.375892,13.0242659 141.902111,12.8982039 141.491543,12.7335514 C138.837854,11.875129 137.511009,9.92631295 137.511009,6.88710318 C137.511009,5.31175658 137.908077,4.00118312 138.702212,2.95538281 C139.496348,1.90958249 140.706408,1.11054646 142.332393,0.558274707 C143.539239,0.186091569 145.029796,0 146.804065,0 C157.372539,0 165.193252,2.61085614 170.266205,7.83256841 C175.339158,13.0542807 177.875634,21.0789436 177.875634,31.9065572 L177.875634,52.7826867 C177.875634,58.9159904 178.917481,63.379401 181.001176,66.1729184 C183.084871,68.9664359 186.569553,70.782115 191.455222,71.6199559 C194.275196,72.1276342 196.404319,73.1895139 197.842591,74.8055948 C199.280864,76.4216757 200,78.4466007 200,80.8803697 Z M63.673123,92.3738824 C60.5368664,92.3738824 57.8368915,91.2412536 55.5731982,88.9759961 C53.309505,86.7107386 52.1776584,84.0096238 52.1776584,80.8726516 C52.1776584,77.6859407 53.309505,74.9723912 55.5731982,72.732003 C57.8368915,70.4916149 60.5368664,69.3714209 63.673123,69.3714209 C66.8085225,69.3714209 69.5082831,70.4916149 71.772405,72.732003 C74.0365268,74.9723912 75.1685877,77.6859407 75.1685877,80.8726516 C75.1685877,84.0096238 74.048741,86.7107386 71.8090475,88.9759961 C69.569354,91.2412536 66.8573792,92.3738824 63.673123,92.3738824 Z M100.145927,92.3738824 C96.9556711,92.3738824 94.2421963,91.2412536 92.0055028,88.9759961 C89.7688093,86.7107386 88.6504625,84.0096238 88.6504625,80.8726516 C88.6504625,77.6859407 89.7688093,74.9723912 92.0055028,72.732003 C94.2421963,70.4916149 96.9556711,69.3714209 100.145927,69.3714209 C103.281327,69.3714209 105.979802,70.4916149 108.241352,72.732003 C110.502902,74.9723912 111.633678,77.6859407 111.633678,80.8726516 C111.633678,84.0096238 110.502902,86.7107386 108.241352,88.9759961 C105.979802,91.2412536 103.281327,92.3738824 100.145927,92.3738824 Z M136.536446,92.3738824 C133.401047,92.3738824 130.701286,91.2412536 128.437165,88.9759961 C126.173043,86.7107386 125.040982,84.0096238 125.040982,80.8726516 C125.040982,77.6859407 126.173043,74.9723912 128.437165,72.732003 C130.701286,70.4916149 133.401047,69.3714209 136.536446,69.3714209 C139.72156,69.3714209 142.433749,70.4916149 144.673014,72.732003 C146.912279,74.9723912 148.031911,77.6859407 148.031911,80.8726516 C148.031911,84.0096238 146.912279,86.7107386 144.673014,88.9759961 C142.433749,91.2412536 139.72156,92.3738824 136.536446,92.3738824 Z" id="Shape"></path>
        </g>
    </g>
</svg>