<?xml version="1.0" encoding="UTF-8"?>
<svg width="53px" height="53px" viewBox="0 0 53 53" version="1.1" xmlns="http://www.w3.org/2000/svg" xmlns:xlink="http://www.w3.org/1999/xlink">
    <title>ЇАле</title>
    <g id="Page-1" stroke="none" stroke-width="1" fill="none" fill-rule="evenodd">
        <g id="Artboard" transform="translate(-45.000000, -289.000000)" fill="#000000" fill-rule="nonzero">
            <g id="ЇАле" transform="translate(45.854125, 289.983887)">
                <path d="M0,34.1333008 C0,33.5066732 0.196940104,32.9964193 0.590820312,32.6025391 C0.984700521,32.2086589 1.49495443,32.0117188 2.12158203,32.0117188 L4.69970703,32.0117188 L4.69970703,27.8222656 L2.12158203,27.8222656 C1.49495443,27.8222656 0.984700521,27.6253255 0.590820312,27.2314453 C0.196940104,26.8375651 0,26.3273112 0,25.7006836 C0,25.074056 0.196940104,24.5638021 0.590820312,24.1699219 C0.984700521,23.7760417 1.49495443,23.5791016 2.12158203,23.5791016 L4.69970703,23.5791016 L4.69970703,19.362793 L2.12158203,19.362793 C1.49495443,19.362793 0.984700521,19.1658529 0.590820312,18.7719727 C0.196940104,18.3780924 0,17.8678385 0,17.2412109 C0,16.6145833 0.196940104,16.1043294 0.590820312,15.7104492 C0.984700521,15.316569 1.49495443,15.1196289 2.12158203,15.1196289 L4.69970703,15.1196289 L4.69970703,6.79443359 C4.69970703,6.16780599 4.89217122,5.66202799 5.27709961,5.27709961 C5.66202799,4.89217122 6.17675781,4.69970703 6.82128906,4.69970703 L15.1464844,4.69970703 L15.1464844,2.12158203 C15.1464844,1.49495443 15.3434245,0.984700521 15.7373047,0.590820312 C16.1311849,0.196940104 16.6414388,0 17.2680664,0 C17.894694,0 18.4094238,0.196940104 18.8122559,0.590820312 C19.2150879,0.984700521 19.4165039,1.49495443 19.4165039,2.12158203 L19.4165039,4.69970703 L23.605957,4.69970703 L23.605957,2.12158203 C23.605957,1.49495443 23.8028971,0.984700521 24.1967773,0.590820312 C24.5906576,0.196940104 25.1009115,0 25.7275391,0 C26.3541667,0 26.8644206,0.196940104 27.2583008,0.590820312 C27.652181,0.984700521 27.8491211,1.49495443 27.8491211,2.12158203 L27.8491211,4.69970703 L32.0385742,4.69970703 L32.0385742,2.12158203 C32.0385742,1.49495443 32.2355143,0.984700521 32.6293945,0.590820312 C33.0232747,0.196940104 33.5335286,0 34.1601562,0 C34.7867839,0 35.3015137,0.196940104 35.7043457,0.590820312 C36.1071777,0.984700521 36.3085938,1.49495443 36.3085938,2.12158203 L36.3085938,4.69970703 L44.6337891,4.69970703 C45.2604167,4.69970703 45.7661947,4.89217122 46.151123,5.27709961 C46.5360514,5.66202799 46.7285156,6.16780599 46.7285156,6.79443359 L46.7285156,15.0927734 L49.2797852,15.0927734 C49.9243164,15.0927734 50.447998,15.2897135 50.8508301,15.6835938 C51.2536621,16.077474 51.4550781,16.5877279 51.4550781,17.2143555 C51.4550781,17.8409831 51.2536621,18.3557129 50.8508301,18.7585449 C50.447998,19.161377 49.9243164,19.362793 49.2797852,19.362793 L46.7285156,19.362793 L46.7285156,23.5522461 L49.2797852,23.5522461 C49.9243164,23.5522461 50.447998,23.7491862 50.8508301,24.1430664 C51.2536621,24.5369466 51.4550781,25.0472005 51.4550781,25.6738281 C51.4550781,26.3004557 51.2536621,26.8107096 50.8508301,27.2045898 C50.447998,27.5984701 49.9243164,27.7954102 49.2797852,27.7954102 L46.7285156,27.7954102 L46.7285156,31.9848633 L49.2797852,31.9848633 C49.9243164,31.9848633 50.447998,32.1818034 50.8508301,32.5756836 C51.2536621,32.9695638 51.4550781,33.4798177 51.4550781,34.1064453 C51.4550781,34.7330729 51.2536621,35.2478027 50.8508301,35.6506348 C50.447998,36.0534668 49.9243164,36.2548828 49.2797852,36.2548828 L46.7285156,36.2548828 L46.7285156,44.6069336 C46.7285156,45.2514648 46.5360514,45.7661947 46.151123,46.151123 C45.7661947,46.5360514 45.2604167,46.7285156 44.6337891,46.7285156 L36.3085938,46.7285156 L36.3085938,49.3066406 C36.3085938,49.9332682 36.1071777,50.4435221 35.7043457,50.8374023 C35.3015137,51.2312826 34.7867839,51.4282227 34.1601562,51.4282227 C33.5335286,51.4282227 33.0232747,51.2312826 32.6293945,50.8374023 C32.2355143,50.4435221 32.0385742,49.9332682 32.0385742,49.3066406 L32.0385742,46.7285156 L27.8491211,46.7285156 L27.8491211,49.3066406 C27.8491211,49.9332682 27.652181,50.4435221 27.2583008,50.8374023 C26.8644206,51.2312826 26.3541667,51.4282227 25.7275391,51.4282227 C25.1009115,51.4282227 24.5906576,51.2312826 24.1967773,50.8374023 C23.8028971,50.4435221 23.605957,49.9332682 23.605957,49.3066406 L23.605957,46.7285156 L19.4165039,46.7285156 L19.4165039,49.3066406 C19.4165039,49.9332682 19.2150879,50.4435221 18.8122559,50.8374023 C18.4094238,51.2312826 17.894694,51.4282227 17.2680664,51.4282227 C16.6414388,51.4282227 16.1311849,51.2312826 15.7373047,50.8374023 C15.3434245,50.4435221 15.1464844,49.9332682 15.1464844,49.3066406 L15.1464844,46.7285156 L6.82128906,46.7285156 C6.17675781,46.7285156 5.66202799,46.5360514 5.27709961,46.151123 C4.89217122,45.7661947 4.69970703,45.2514648 4.69970703,44.6069336 L4.69970703,36.2548828 L2.12158203,36.2548828 C1.49495443,36.2548828 0.984700521,36.0579427 0.590820312,35.6640625 C0.196940104,35.2701823 0,34.7599284 0,34.1333008 Z M9.23828125,41.4379883 C9.23828125,41.9392904 9.48893229,42.1899414 9.99023438,42.1899414 L41.4379883,42.1899414 C41.9392904,42.1899414 42.1899414,41.9392904 42.1899414,41.4379883 L42.1899414,9.99023438 C42.1899414,9.48893229 41.9392904,9.23828125 41.4379883,9.23828125 L9.99023438,9.23828125 C9.48893229,9.23828125 9.23828125,9.48893229 9.23828125,9.99023438 L9.23828125,41.4379883 Z M16.4624023,36.9262695 C15.1733398,36.9262695 14.5288086,36.2727865 14.5288086,34.9658203 L14.5288086,16.4355469 C14.5288086,15.1464844 15.1733398,14.5019531 16.4624023,14.5019531 L35.0463867,14.5019531 C36.3175456,14.5019531 36.953125,15.1464844 36.953125,16.4355469 L36.953125,34.9658203 C36.953125,36.2727865 36.3175456,36.9262695 35.0463867,36.9262695 L16.4624023,36.9262695 Z M18.0737305,32.7636719 C18.0737305,33.1754557 18.2706706,33.3813477 18.6645508,33.3813477 L32.8173828,33.3813477 C33.211263,33.3813477 33.4082031,33.1754557 33.4082031,32.7636719 L33.4082031,18.6376953 C33.4082031,18.2438151 33.211263,18.046875 32.8173828,18.046875 L18.6645508,18.046875 C18.2706706,18.046875 18.0737305,18.2438151 18.0737305,18.6376953 L18.0737305,32.7636719 Z" id="Shape"></path>
            </g>
        </g>
    </g>
</svg>