<?xml version="1.0" encoding="UTF-8"?>
<svg width="62px" height="45px" viewBox="0 0 62 45" version="1.1" xmlns="http://www.w3.org/2000/svg" xmlns:xlink="http://www.w3.org/1999/xlink">
    <title>􁻇</title>
    <g id="Page-1" stroke="none" stroke-width="1" fill="none" fill-rule="evenodd">
        <g id="Artboard" transform="translate(-45.000000, -111.000000)" fill="#000000" fill-rule="nonzero">
            <g id="􁻇" transform="translate(45.934735, 111.698334)">
                <path d="M8.16783905,44.0563965 C5.47138214,44.0563965 3.43596141,43.3772469 2.06157684,42.0189476 C0.687192281,40.6606483 0,38.6494954 0,35.9854889 L0,20.4978561 C0,18.7077713 0.231978099,17.1803665 0.695934296,15.9156418 C1.15989049,14.6509171 1.92785899,13.4736125 2.99983978,12.383728 L11.482811,3.67752075 C12.7276738,2.38398234 13.9465904,1.44767761 15.1395607,0.868606567 C16.332531,0.289535522 17.7661514,0 19.4404221,0 L40.8450699,0 C42.5193405,0 43.952891,0.289535522 45.1457214,0.868606567 C46.3385518,1.44767761 47.5656509,2.38398234 48.8270187,3.67752075 L57.2881699,12.383728 C58.3495204,13.4615835 59.1144117,14.6401469 59.5828438,15.9194183 C60.0512759,17.1986898 60.2854919,18.7248357 60.2854919,20.4978561 L60.2854919,35.9854889 C60.2854919,38.6494954 59.5982297,40.6606483 58.2237053,42.0189476 C56.8491809,43.3772469 54.8136902,44.0563965 52.1172333,44.0563965 L8.16783905,44.0563965 Z M8.31512451,39.5543289 L51.9703674,39.5543289 C54.4967397,39.5543289 55.7599258,38.2740784 55.7599258,35.7135773 L55.7599258,23.6281967 C55.7599258,22.0921199 55.0006994,21.3240814 53.4822464,21.3240814 L6.80282593,21.3240814 C5.30059814,21.3240814 4.54948425,22.0921199 4.54948425,23.6281967 L4.54948425,35.7135773 C4.54948425,38.2740784 5.80469767,39.5543289 8.31512451,39.5543289 Z M6.39076233,17.3091888 L53.8947296,17.3091888 C54.3370056,17.3091888 54.6114349,17.1542803 54.7180176,16.8444633 C54.8246002,16.5346464 54.7534053,16.2462997 54.5044327,15.9794235 L45.1641846,6.11213684 C44.432373,5.33025106 43.7365087,4.78076299 43.0765915,4.46367264 C42.4166743,4.14658229 41.5890503,3.98803711 40.5937195,3.98803711 L19.6913528,3.98803711 C18.6963018,3.98803711 17.8732936,4.14658229 17.2223282,4.46367264 C16.5713628,4.78076299 15.8710225,5.33025106 15.1213074,6.11213684 L5.78063965,15.9794235 C5.53166707,16.2462997 5.46047211,16.5346464 5.56705475,16.8444633 C5.67363739,17.1542803 5.94820658,17.3091888 6.39076233,17.3091888 Z M10.6779861,37.1067047 C10.26872,37.1067047 9.92414474,36.9704692 9.64426041,36.697998 C9.36437607,36.4255269 9.2244339,36.0845184 9.2244339,35.6749725 L9.2244339,25.2802277 C9.2244339,24.8723602 9.36437607,24.524498 9.64426041,24.2366409 C9.92414474,23.9487839 10.26872,23.8048553 10.6779861,23.8048553 C11.0858536,23.8048553 11.4381917,23.9487839 11.7350006,24.2366409 C12.0318095,24.524498 12.1802139,24.8723602 12.1802139,25.2802277 L12.1802139,35.6749725 C12.1802139,36.0845184 12.0318095,36.4255269 11.7350006,36.697998 C11.4381917,36.9704692 11.0858536,37.1067047 10.6779861,37.1067047 Z M16.5983582,37.1067047 C16.2053172,37.1067047 15.8688545,36.9704692 15.5889702,36.697998 C15.3090858,36.4255269 15.1691437,36.0845184 15.1691437,35.6749725 L15.1691437,25.2802277 C15.1691437,24.8723602 15.3090858,24.524498 15.5889702,24.2366409 C15.8688545,23.9487839 16.2053172,23.8048553 16.5983582,23.8048553 C17.0079041,23.8048553 17.3647181,23.9487839 17.6688004,24.2366409 C17.9728826,24.524498 18.1249237,24.8723602 18.1249237,25.2802277 L18.1249237,35.6749725 C18.1249237,36.0845184 17.9728826,36.4255269 17.6688004,36.697998 C17.3647181,36.9704692 17.0079041,37.1067047 16.5983582,37.1067047 Z M22.5460052,37.1067047 C22.1364594,37.1067047 21.7953809,36.9704692 21.5227699,36.697998 C21.2501589,36.4255269 21.1138535,36.0845184 21.1138535,35.6749725 L21.1138535,25.2802277 C21.1138535,24.8723602 21.2501589,24.524498 21.5227699,24.2366409 C21.7953809,23.9487839 22.1364594,23.8048553 22.5460052,23.8048553 C22.9535929,23.8048553 23.3053716,23.9487839 23.6013412,24.2366409 C23.8973109,24.524498 24.0452957,24.8723602 24.0452957,25.2802277 L24.0452957,35.6749725 C24.0452957,36.0845184 23.8973109,36.4255269 23.6013412,36.697998 C23.3053716,36.9704692 22.9535929,37.1067047 22.5460052,37.1067047 Z M30.1972961,27.4324417 C29.6831258,27.4324417 29.2491722,27.2550837 28.8954353,26.9003677 C28.5416985,26.5456518 28.36483,26.1121877 28.36483,25.5999756 C28.36483,25.1023102 28.5416985,24.6761195 28.8954353,24.3214035 C29.2491722,23.9666875 29.6831258,23.7893295 30.1972961,23.7893295 C30.6932831,23.7893295 31.1186345,23.9666875 31.4733505,24.3214035 C31.8280665,24.6761195 32.0054245,25.1023102 32.0054245,25.5999756 C32.0054245,26.1121877 31.8280665,26.5456518 31.4733505,26.9003677 C31.1186345,27.2550837 30.6932831,27.4324417 30.1972961,27.4324417 Z M30.1972961,32.2613907 C29.6831258,32.2613907 29.2491722,32.080466 28.8954353,31.7186165 C28.5416985,31.356767 28.36483,30.9268697 28.36483,30.4289246 C28.36483,29.9329376 28.5416985,29.5035998 28.8954353,29.1409111 C29.2491722,28.7782224 29.6831258,28.5968781 30.1972961,28.5968781 C30.6932831,28.5968781 31.1186345,28.7782224 31.4733505,29.1409111 C31.8280665,29.5035998 32.0054245,29.9329376 32.0054245,30.4289246 C32.0054245,30.9268697 31.8280665,31.356767 31.4733505,31.7186165 C31.1186345,32.080466 30.6932831,32.2613907 30.1972961,32.2613907 Z M30.1972961,37.0903397 C29.6831258,37.0903397 29.2491722,36.9089953 28.8954353,36.5463066 C28.5416985,36.1836179 28.36483,35.7541402 28.36483,35.2578735 C28.36483,34.7602081 28.5416985,34.3304507 28.8954353,33.9686012 C29.2491722,33.6067518 29.6831258,33.425827 30.1972961,33.425827 C30.6932831,33.425827 31.1186345,33.6067518 31.4733505,33.9686012 C31.8280665,34.3304507 32.0054245,34.7602081 32.0054245,35.2578735 C32.0054245,35.7541402 31.8280665,36.1836179 31.4733505,36.5463066 C31.1186345,36.9089953 30.6932831,37.0903397 30.1972961,37.0903397 Z M37.5238037,37.1067047 C37.1142578,37.1067047 36.769193,36.9704692 36.4886093,36.697998 C36.2080256,36.4255269 36.0677338,36.0845184 36.0677338,35.6749725 L36.0677338,25.2802277 C36.0677338,24.8723602 36.2080256,24.524498 36.4886093,24.2366409 C36.769193,23.9487839 37.1142578,23.8048553 37.5238037,23.8048553 C37.9313914,23.8048553 38.2831701,23.9487839 38.5791397,24.2366409 C38.8751094,24.524498 39.0230942,24.8723602 39.0230942,25.2802277 L39.0230942,35.6749725 C39.0230942,36.0845184 38.8751094,36.4255269 38.5791397,36.697998 C38.2831701,36.9704692 37.9313914,37.1067047 37.5238037,37.1067047 Z M43.4441757,37.1067047 C43.050855,37.1067047 42.7143224,36.9704692 42.4345779,36.697998 C42.1548335,36.4255269 42.0149612,36.0845184 42.0149612,35.6749725 L42.0149612,25.2802277 C42.0149612,24.8723602 42.1548335,24.524498 42.4345779,24.2366409 C42.7143224,23.9487839 43.050855,23.8048553 43.4441757,23.8048553 C43.8517634,23.8048553 44.2075984,23.9487839 44.5116806,24.2366409 C44.8157628,24.524498 44.967804,24.8723602 44.967804,25.2802277 L44.967804,35.6749725 C44.967804,36.0845184 44.8157628,36.4255269 44.5116806,36.697998 C44.2075984,36.9704692 43.8517634,37.1067047 43.4441757,37.1067047 Z M49.3888855,37.1067047 C48.9793396,37.1067047 48.6387507,36.9704692 48.3671188,36.697998 C48.095487,36.4255269 47.959671,36.0845184 47.959671,35.6749725 L47.959671,25.2802277 C47.959671,24.8723602 48.095487,24.524498 48.3671188,24.2366409 C48.6387507,23.9487839 48.9793396,23.8048553 49.3888855,23.8048553 C49.7964732,23.8048553 50.1487414,23.9487839 50.4456902,24.2366409 C50.7426389,24.524498 50.8911133,24.8723602 50.8911133,25.2802277 L50.8911133,35.6749725 C50.8911133,36.0845184 50.7426389,36.4255269 50.4456902,36.697998 C50.1487414,36.9704692 49.7964732,37.1067047 49.3888855,37.1067047 Z" id="Shape"></path>
            </g>
        </g>
    </g>
</svg>