<?xml version="1.0" encoding="UTF-8"?>
<svg width="48px" height="48px" viewBox="0 0 48 48" version="1.1" xmlns="http://www.w3.org/2000/svg" xmlns:xlink="http://www.w3.org/1999/xlink">
    <title>android-2-svgrepo-com</title>
    <g id="Page-1" stroke="none" stroke-width="1" fill="none" fill-rule="evenodd">
        <g id="Artboard" transform="translate(-50.000000, -394.000000)">
            <g id="android-2-svgrepo-com" transform="translate(50.000000, 394.000000)">
                <path d="M48,0 L48,48 L0,48 L0,0 L48,0 Z M25.1993865,46.4442276 L25.1762867,46.4475718 L25.0341617,46.5186334 L24.9961645,46.5260394 L24.9961645,46.5260394 L24.9658367,46.5186334 L24.8237159,46.4475718 C24.8040521,46.441278 24.7865049,46.4465926 24.7766905,46.4583604 L24.7684709,46.4802076 L24.7342883,47.334765 L24.7441957,47.3755444 L24.7662159,47.3999734 L24.9733617,47.5479318 L25.0031045,47.5557724 L25.0031045,47.5557724 L25.0266367,47.5479318 L25.2337867,47.3999734 L25.2589939,47.3678922 L25.2589939,47.3678922 L25.2657117,47.334765 L25.2315283,46.4802076 C25.2275511,46.4599482 25.2144287,46.4471442 25.1993865,46.4442276 L25.1993865,46.4442276 Z M25.1577634,46.3406621 L25.1300792,46.3447041 L24.7606708,46.5294091 L24.7407466,46.5499001 L24.7407466,46.5499001 L24.7353708,46.5723125 L24.7711708,47.4313675 L24.780852,47.4569253 L24.780852,47.4569253 L24.7977542,47.4710759 L25.1996626,47.6565675 C25.2238392,47.6638895 25.2454488,47.6560647 25.2566394,47.6405425 L25.2646292,47.6124175 L25.1963376,46.3831559 C25.1915586,46.3592691 25.1758026,46.3440929 25.1577634,46.3406621 L25.1577634,46.3406621 Z M23.8699594,46.3451839 C23.8503004,46.3353545 23.8282174,46.3410907 23.8151378,46.3557603 L23.8036994,46.3836357 L23.7354076,47.6128973 C23.7341294,47.6358973 23.7494846,47.6542899 23.769161,47.6597047 L23.8003768,47.6570473 L24.202286,47.4715557 L24.2211642,47.4554389 L24.2211642,47.4554389 L24.2288734,47.4318473 L24.2646668,46.5727923 L24.2583548,46.5476047 L24.2583548,46.5476047 L24.239371,46.5298889 L23.8699594,46.3451839 Z" id="MingCute"></path>
                <path d="M39.47328,6.25389956 C40.65888,6.84666595 41.13936,8.28825058 40.54656,9.47378336 L37.72776,15.11158 C43.93776,19.4494856 48,26.6503289 48,34.8001167 L48,37.2000778 C48,39.8510748 45.85104,42 43.2,42 L4.8,42 C2.149032,42 0,39.8510748 0,37.2000778 L0,34.8001167 C0,26.6503289 4.062216,19.4494616 10.272336,15.11158 L7.453392,9.47378336 C6.860616,8.28825058 7.341144,6.84666595 8.526696,6.25389956 C9.712248,5.66113317 11.153856,6.14165338 11.746632,7.32718616 L14.4672,12.7682339 C17.389272,11.5022305 20.61264,10.8005058 24,10.8005058 C27.38736,10.8005058 30.6108,11.5022305 33.5328,12.7682579 L36.25344,7.32718616 C36.84624,6.14165338 38.28768,5.66113317 39.47328,6.25389956 Z M13.2,25.2002724 C11.211768,25.2002724 9.6,26.8120862 9.6,28.800214 C9.6,30.7883418 11.211768,32.4001556 13.2,32.4001556 C15.188232,32.4001556 16.8,30.7883418 16.8,28.800214 C16.8,26.8120862 15.188232,25.2002724 13.2,25.2002724 Z M34.8,25.2002724 C32.81184,25.2002724 31.2,26.8120862 31.2,28.800214 C31.2,30.7883418 32.81184,32.4001556 34.8,32.4001556 C36.78816,32.4001556 38.4,30.7883418 38.4,28.800214 C38.4,26.8120862 36.78816,25.2002724 34.8,25.2002724 Z" id="android" fill="#000000" fill-rule="nonzero"></path>
            </g>
        </g>
    </g>
</svg>