<?xml version="1.0" encoding="UTF-8"?>
<svg width="54px" height="53px" viewBox="0 0 54 53" version="1.1" xmlns="http://www.w3.org/2000/svg" xmlns:xlink="http://www.w3.org/1999/xlink">
    <title>􀤆</title>
    <g id="Page-1" stroke="none" stroke-width="1" fill="none" fill-rule="evenodd">
        <g id="Artboard" transform="translate(-49.000000, -203.000000)" fill="#000000" fill-rule="nonzero">
            <g id="􀤆" transform="translate(49.984262, 203.568466)">
                <path d="M4.29309845,15.2501297 L5.78525543,11.865921 C8.6154302,15.2698517 12.0315297,17.9123179 16.0335541,19.7933197 C20.0355784,21.6743215 24.2889531,22.6067098 28.7936783,22.5904846 C32.2560755,22.5745392 35.5892309,21.9764455 38.7931442,20.7962036 C41.9970576,19.6159617 44.909757,17.9254659 47.5312424,15.7247162 L49.0531921,18.7656784 C46.1849721,21.0542679 43.0181249,22.8074265 39.5526505,24.0251541 C36.087176,25.2428818 32.5008519,25.8517456 28.7936783,25.8517456 C25.6605403,25.8679708 22.6156616,25.4599635 19.6590424,24.6277237 C16.7024231,23.7954839 13.9228821,22.5846799 11.3204193,20.9953117 C8.71795654,19.4059436 6.37551626,17.4908829 4.29309845,15.2501297 Z M1.5278244,29.7130585 L2.34985352,26.036377 C5.54761251,29.0111796 9.06798681,31.3716634 12.9109764,33.1178284 C16.753966,34.8639933 20.7418633,35.9738795 24.8746681,36.4474869 C29.007473,36.9210943 33.121535,36.7400297 37.2168541,35.9042931 C41.3121732,35.0685565 45.2110418,33.5715739 48.9134598,31.4133453 L49.0070343,35.1408005 C45.1868439,37.1418126 41.1946805,38.5173162 37.0305443,39.2673111 C32.866408,40.017306 28.6929703,40.1550802 24.510231,39.6806335 C20.3274918,39.2061869 16.2807083,38.1370036 12.3698807,36.4730835 C8.45905304,34.8091634 4.84503428,32.5558217 1.5278244,29.7130585 Z M14.1591263,47.1821213 C13.4759903,45.1875432 12.951959,43.1705157 12.5870323,41.1310387 C12.2221057,39.0915616 12.0234172,37.0377477 11.9909668,34.9695969 C11.7968241,30.6559372 12.2339948,26.4496994 13.3024788,22.3508835 C14.3709628,18.2520676 16.0080274,14.4030635 18.2136726,10.8038712 C20.4193179,7.20467885 23.1235377,3.98943583 26.3263321,1.15814209 L29.761734,2.54329681 C26.5373993,5.1653417 23.8081423,8.19343567 21.5739632,11.6275787 C19.339784,15.0617218 17.6750247,18.7526703 16.5796852,22.7004242 C15.4843458,26.6481781 15.0499725,30.7137044 15.2765656,34.8970032 C15.3087362,37.1867116 15.5564499,39.4321505 16.0197067,41.6333199 C16.4829636,43.8344892 17.1598053,45.9843953 18.0502319,48.0830383 L14.1591263,47.1821213 Z M30.9924698,49.6952057 C28.5186895,46.1399333 26.633002,42.3005104 25.3354073,38.1769371 C24.0378126,34.0533638 23.3890152,29.792366 23.3890152,25.3939438 C23.3890152,21.3247808 23.9600436,17.3445765 25.1021004,13.453331 C26.2441572,9.56208547 27.9026922,5.91477712 30.0777054,2.51140594 L33.2554626,3.64772797 C31.1162567,6.82786306 29.4810104,10.264314 28.3497238,13.9570808 C27.2184372,17.6498477 26.6527939,21.4621353 26.6527939,25.3939438 C26.6527939,29.5475896 27.2869047,33.5754903 28.5551262,37.4776459 C29.8233477,41.3798014 31.6467921,45.0022125 34.0254593,48.3448792 L30.9924698,49.6952057 Z M45.8678818,40.3004074 C42.8052394,38.4672419 40.149765,36.1892827 37.9014587,33.4665298 C35.6531525,30.743777 33.9140511,27.7279218 32.6841545,24.4189644 C31.454258,21.110007 30.8230845,17.6492182 30.7906342,14.0365982 C30.7746887,12.0783869 30.9308561,10.1590602 31.2591362,8.27861786 C31.5874163,6.39817556 32.0952225,4.5673879 32.7825546,2.78625488 L35.928421,3.67290497 C35.2931213,5.30913035 34.8174858,6.99962616 34.5015144,8.7443924 C34.1855431,10.4891586 34.0437826,12.2451146 34.0762329,14.0122604 C34.1086833,17.3373032 34.6973356,20.5060387 35.8421898,23.5184669 C36.987044,26.5308952 38.5955747,29.2568652 40.6677818,31.6963768 C42.739989,34.1358884 45.2029292,36.1740367 48.0566025,37.8108215 L45.8678818,40.3004074 Z M15.1322174,25.5668259 C14.0104421,25.5668259 13.0489604,25.1665815 12.2477722,24.3660927 C11.4465841,23.5656039 11.04599,22.5956599 11.04599,21.4562607 C11.04599,20.3347651 11.4465841,19.3778992 12.2477722,18.5856628 C13.0489604,17.7934265 14.0104421,17.3973083 15.1322174,17.3973083 C16.2553914,17.3973083 17.2167333,17.7934265 18.016243,18.5856628 C18.8157527,19.3778992 19.2155075,20.3347651 19.2155075,21.4562607 C19.2155075,22.5956599 18.8157527,23.5656039 18.016243,24.3660927 C17.2167333,25.1665815 16.2553914,25.5668259 15.1322174,25.5668259 Z M34.6280289,27.6804352 C33.5014979,27.6804352 32.545681,27.2838275 31.7605782,26.490612 C30.9754753,25.6973966 30.5829239,24.7375234 30.5829239,23.6109924 C30.5829239,22.5183105 30.9754753,21.5753619 31.7605782,20.7821465 C32.545681,19.988931 33.5014979,19.5923233 34.6280289,19.5923233 C35.7369359,19.5923233 36.6839409,19.988931 37.4690437,20.7821465 C38.2541466,21.5753619 38.646698,22.5183105 38.646698,23.6109924 C38.646698,24.7375234 38.2541466,25.6973966 37.4690437,26.490612 C36.6839409,27.2838275 35.7369359,27.6804352 34.6280289,27.6804352 Z M27.0417786,42.2537231 C25.897344,42.2537231 24.9285189,41.8531291 24.1353035,41.0519409 C23.3420881,40.2507528 22.9454803,39.2875926 22.9454803,38.1624603 C22.9454803,37.0359294 23.3420881,36.0760562 24.1353035,35.2828407 C24.9285189,34.4896253 25.897344,34.0930176 27.0417786,34.0930176 C28.1652323,34.0930176 29.1239866,34.4896253 29.9180412,35.2828407 C30.7120959,36.0760562 31.1091232,37.0359294 31.1091232,38.1624603 C31.1091232,39.2875926 30.7125155,40.2507528 29.9193001,41.0519409 C29.1260846,41.8531291 28.1669108,42.2537231 27.0417786,42.2537231 Z M26.0942841,52.1835327 C22.5216675,52.1835327 19.1624959,51.4993477 16.0167694,50.1309776 C12.8710429,48.7626076 10.0994047,46.8800672 7.70185471,44.4833565 C5.30430476,42.0866458 3.42127482,39.3149376 2.05276489,36.168232 C0.684254964,33.0215263 0,29.6627045 0,26.0917664 C0,22.5208282 0.680198669,19.1620763 2.04059601,16.0155106 C3.40099335,12.8689448 5.28402328,10.0932503 7.68968582,7.68842697 C10.0953484,5.28360367 12.8710429,3.40099335 16.0167694,2.04059601 C19.1624959,0.680198669 22.5127157,0 26.0674286,0 C29.6400452,0 32.9992867,0.680198669 36.145153,2.04059601 C39.2910194,3.40099335 42.0667839,5.28360367 44.4724464,7.68842697 C46.878109,10.0932503 48.7651952,12.8689448 50.1337051,16.0155106 C51.5022151,19.1620763 52.18647,22.5208282 52.18647,26.0917664 C52.18647,29.6627045 51.5062714,33.0215263 50.145874,36.168232 C48.7854767,39.3149376 46.9024467,42.0866458 44.4967842,44.4833565 C42.0911217,46.8800672 39.3153572,48.7626076 36.1694908,50.1309776 C33.0236244,51.4993477 29.6652222,52.1835327 26.0942841,52.1835327 Z M26.0942841,48.3901978 C29.1367849,48.3901978 32.0047251,47.8081195 34.6981049,46.6439629 C37.3914846,45.4798063 39.7652562,43.8711357 41.8194199,41.8179512 C43.8735835,39.7647667 45.4826736,37.391065 46.6466904,34.696846 C47.8107071,32.0026271 48.3927155,29.1342672 48.3927155,26.0917664 C48.3927155,23.0492655 47.8107071,20.1809057 46.6466904,17.4866867 C45.4826736,14.7924678 43.8695971,12.418766 41.8074608,10.3655815 C39.7453245,8.312397 37.3715528,6.70379639 34.6861458,5.53977966 C32.0007388,4.37576294 29.127833,3.79375458 26.0674286,3.79375458 C23.0249278,3.79375458 20.1610438,4.37576294 17.4757767,5.53977966 C14.7905095,6.70379639 12.4212837,8.312397 10.3680992,10.3655815 C8.3149147,12.418766 6.70589447,14.7924678 5.54103851,17.4866867 C4.37618256,20.1809057 3.79375458,23.0492655 3.79375458,26.0917664 C3.79375458,29.1342672 4.37618256,32.0026271 5.54103851,34.696846 C6.70589447,37.391065 8.3149147,39.7647667 10.3680992,41.8179512 C12.4212837,43.8711357 14.7945658,45.4798063 17.4879456,46.6439629 C20.1813253,47.8081195 23.0501048,48.3901978 26.0942841,48.3901978 Z" id="Shape"></path>
            </g>
        </g>
    </g>
</svg>