<?xml version="1.0" encoding="UTF-8"?>
<svg width="712px" height="712px" viewBox="0 0 712 712" version="1.1" xmlns="http://www.w3.org/2000/svg" xmlns:xlink="http://www.w3.org/1999/xlink">
    <title>Artboard Copy</title>
    <g id="Artboard-Copy" stroke="none" stroke-width="1" fill="none" fill-rule="evenodd">
        <g id="StreamBird" transform="translate(-82.823180, -129.515593)">
            <g id="SwiftStream" transform="translate(448.511452, 432.089962) rotate(54.000000) translate(-448.511452, -432.089962) translate(170.404723, 79.755684)" fill="#BD1C1C">
                <g id="webber-dark-2-copy-2" transform="translate(0.000000, 0.000000)">
                    <path d="M174.856728,86.0445852 C264.554728,90.9965852 343.888728,122.162585 412.856728,179.544585 C456.565728,216.931585 487.065728,263.098585 504.356728,318.044585 C506.339728,325.309585 508.006728,332.642585 509.356728,340.044585 C555.111728,359.798585 590.111728,391.465585 614.356728,435.044585 C618.743728,442.863585 621.076728,451.196585 621.356728,460.044585 C620.307728,461.061585 619.140728,461.228585 617.856728,460.544585 C574.869728,431.616585 534.535728,434.950585 496.856728,470.544585 C486.491728,480.904585 477.657728,492.404585 470.356728,505.044585 C431.832728,555.585585 381.666728,589.085585 319.856728,605.544585 C208.435728,632.638585 103.102728,617.638585 3.8567282,560.544585 C70.6497282,571.713585 135.982728,566.047585 199.856728,543.544585 C253.585728,523.705585 296.252728,490.038585 327.856728,442.544585 C265.028728,430.490585 203.695728,413.157585 143.856728,390.544585 C72.1147282,363.840585 2.4487282,332.507585 -65.1432718,296.544585 C20.1797282,317.741585 106.513728,334.074585 193.856728,345.544585 C206.144728,347.407585 218.477728,348.407585 230.856728,348.544585 C146.688728,317.627585 65.3547282,280.461585 -13.1432718,237.044585 C-14.4762718,236.377585 -14.4762718,235.711585 -13.1432718,235.044585 C106.845728,275.709585 229.845728,302.709585 355.856728,316.044585 C351.778728,280.976585 340.611728,248.309585 322.356728,218.044585 C285.967728,159.626585 236.800728,115.626585 174.856728,86.0445852 Z" id="Path" transform="translate(278.106728, 352.334278) rotate(-88.000000) translate(-278.106728, -352.334278) "></path>
                </g>
            </g>
            <g id="RightWingWind" transform="translate(172.197983, 649.417087)">
                <path d="M281.504782,114.54484 C328.925403,97.4587985 375.715875,62.586262 421.876199,9.92723027 C381.159398,70.3058914 331.151304,109.439603 271.851915,127.328366 C212.552526,145.217128 134.780776,156.669794 38.5366633,161.686364 C153.094788,147.344722 234.08416,131.630881 281.504782,114.54484 Z" id="Polygon" fill="#BD451C" transform="translate(230.206431, 85.806797) rotate(3.000000) translate(-230.206431, -85.806797) "></path>
                <path d="M248.733614,132.294995 C296.154236,115.208953 335.585607,92.0183251 367.027729,62.7231102 C341.029131,99.7379545 298.380137,127.189758 239.080748,145.07852 C179.781359,162.967283 102.009609,174.419949 5.76549625,179.436518 C120.323621,165.094877 201.312993,149.381036 248.733614,132.294995 Z" id="Polygon-Copy" fill="#CC621A" transform="translate(186.396613, 121.079814) rotate(7.000000) translate(-186.396613, -121.079814) "></path>
            </g>
            <g id="LeftWingWind" transform="translate(293.990359, 238.924552) scale(1, -1) rotate(30.000000) translate(-293.990359, -238.924552) translate(81.197983, 138.417087)">
                <path d="M281.504782,114.54484 C328.925403,97.4587985 375.715875,62.586262 421.876199,9.92723027 C381.159398,70.3058914 331.151304,109.439603 271.851915,127.328366 C212.552526,145.217128 134.780776,156.669794 38.5366633,161.686364 C153.094788,147.344722 234.08416,131.630881 281.504782,114.54484 Z" id="Polygon" fill="#BD451C" transform="translate(230.206431, 85.806797) rotate(3.000000) translate(-230.206431, -85.806797) "></path>
                <path d="M248.733614,132.294995 C296.154236,115.208953 335.585607,92.0183251 367.027729,62.7231102 C341.029131,99.7379545 298.380137,127.189758 239.080748,145.07852 C179.781359,162.967283 102.009609,174.419949 5.76549625,179.436518 C120.323621,165.094877 201.312993,149.381036 248.733614,132.294995 Z" id="Polygon-Copy" fill="#CC621A" transform="translate(186.396613, 121.079814) rotate(7.000000) translate(-186.396613, -121.079814) "></path>
            </g>
        </g>
    </g>
</svg>