<?xml version="1.0" encoding="UTF-8"?>
<svg width="687px" height="534px" viewBox="0 0 687 534" version="1.1" xmlns="http://www.w3.org/2000/svg" xmlns:xlink="http://www.w3.org/1999/xlink">
    <title>Path</title>
    <g id="Page-1" stroke="none" stroke-width="1" fill="none" fill-rule="evenodd">
        <g id="webber-dark-2-copy" transform="translate(0.358780, 0.514530)" fill="#000000">
            <path d="M240,-5.68434189e-14 C329.698,4.952 409.032,36.118 478,93.5 C521.709,130.887 552.209,177.054 569.5,232 C571.483,239.265 573.15,246.598 574.5,254 C620.255,273.754 655.255,305.421 679.5,349 C683.887,356.819 686.22,365.152 686.5,374 C685.451,375.017 684.284,375.184 683,374.5 C640.013,345.572 599.679,348.906 562,384.5 C551.635,394.86 542.801,406.36 535.5,419 C496.976,469.541 446.81,503.041 385,519.5 C273.579,546.594 168.246,531.594 69,474.5 C135.793,485.669 201.126,480.003 265,457.5 C318.729,437.661 361.396,403.994 393,356.5 C330.172,344.446 268.839,327.113 209,304.5 C137.258,277.796 67.592,246.463 0,210.5 C85.323,231.697 171.657,248.03 259,259.5 C271.288,261.363 283.621,262.363 296,262.5 C211.832,231.583 130.498,194.417 52,151 C50.667,150.333 50.667,149.667 52,149 C171.989,189.665 294.989,216.665 421,230 C416.922,194.932 405.755,162.265 387.5,132 C351.111,73.582 301.944,29.582 240,-5.68434189e-14 Z" id="Path"></path>
        </g>
    </g>
</svg>