<?xml version="1.0" encoding="UTF-8"?>
<svg width="512px" height="192px" viewBox="0 0 512 192" version="1.1" xmlns="http://www.w3.org/2000/svg" xmlns:xlink="http://www.w3.org/1999/xlink">
    <title>logo-pwa</title>
    <g id="Page-1" stroke="none" stroke-width="1" fill="none" fill-rule="evenodd">
        <g id="logo-pwa" transform="translate(-0.000000, 0.000000)" fill="#000000" fill-rule="nonzero">
            <polygon id="Path" points="330.7 192 408.42 0 356.9 0 303.74 124.07 265.93 0 226.32 0 185.74 124.07 157.11 67.54 131.21 147 157.51 192 208.21 192 244.89 80.73 279.89 192"></polygon>
            <path d="M48.79,126.09 L80.44,126.09 C89.0874349,126.211419 97.709824,125.131096 106.06,122.88 L114.24,97.69 L137.12,27.3 C135.354804,24.5212992 133.346958,21.9044076 131.12,19.48 C119.4,6.49333333 102.223333,1.13686838e-13 79.59,1.13686838e-13 L0,1.13686838e-13 L0,192 L48.79,192 L48.79,126.09 Z M90.69,44.17 C95.2833333,48.7833333 97.5766667,54.9566667 97.5700145,62.69 C97.5633333,70.4233333 95.5633333,76.6 91.57,81.22 C87.1433333,86.3 78.9966667,88.8366667 67.13,88.8300131 L48.79,88.8300131 L48.79,37.25 L67.21,37.25 C78.27,37.25 86.0966667,39.5566667 90.69,44.17 L90.69,44.17 Z M376.85,157.61 L391.64,120.36 L434.33,120.36 L414.07,63.85 L439.41,0 L512,192 L458.47,192 L446.07,157.61 L376.85,157.61 Z" id="Shape"></path>
        </g>
    </g>
</svg>