<?xml version="1.0" encoding="UTF-8"?>
<svg width="217px" height="221px" viewBox="0 0 217 221" version="1.1" xmlns="http://www.w3.org/2000/svg" xmlns:xlink="http://www.w3.org/1999/xlink">
    <title>Alibaba</title>
    <g id="Alibaba" stroke="none" stroke-width="1" fill="none" fill-rule="evenodd">
        <g id="Alibaba-Cloud_idGn5T4TRR_1" transform="translate(36.000000, 65.000000)" fill="#FF6A00" fill-rule="nonzero">
            <rect id="Rectangle" x="47.9753086" y="39.382716" width="48.3333333" height="11.0987654"></rect>
            <path d="M120.819538,0 L88.7901235,0 L96.5180096,10.8905564 L119.871779,18.1509274 C124.103892,19.4819688 126.964843,23.4118227 126.919222,27.8314219 L126.919222,62.5359951 L126.919222,62.5359951 C126.94906,66.95057 124.094189,70.8720723 119.871779,72.2164896 L96.5180096,79.3316532 L88.7901235,90.2222222 L120.819538,90.2222222 C127.255587,90.2287746 133.428152,87.6772282 137.967708,83.1336891 C142.507264,78.59015 145.038412,72.4303473 145,66.0209731 L145,24.2012365 C145,10.8823762 134.193426,0.0665943001 120.819538,0 L120.819538,0 Z" id="Path"></path>
            <path d="M24.2492996,0 L56.1128793,0 L48.4985993,10.8905579 L25.1950223,18.1509299 C20.9672588,19.4800566 18.104163,23.4077836 18.1384761,27.8314258 L18.1384761,62.5360038 L18.1384761,62.5360038 C18.1198456,66.9546068 20.9768904,70.8740328 25.1950223,72.2164998 L48.4985993,79.3316643 L56.2098765,90.2222222 L24.2492996,90.2222222 C10.8567813,90.2222222 0,79.3869581 0,66.0209824 L0,24.2012399 C0,10.8352642 10.8567813,0 24.2492996,0 Z" id="Path"></path>
        </g>
        <rect id="Rectangle" stroke-opacity="0.012729458" stroke="#FFFFFF" x="1.5" y="0.5" width="215" height="220"></rect>
    </g>
</svg>