<?xml version="1.0" encoding="UTF-8"?>
<svg width="217px" height="221px" viewBox="0 0 217 221" version="1.1" xmlns="http://www.w3.org/2000/svg" xmlns:xlink="http://www.w3.org/1999/xlink">
    <title>Azure</title>
    <defs>
        <linearGradient x1="59.0082715%" y1="7.41438061%" x2="37.1492786%" y2="103.766855%" id="linearGradient-1">
            <stop stop-color="#114A8B" offset="0%"></stop>
            <stop stop-color="#0669BC" offset="100%"></stop>
        </linearGradient>
        <linearGradient x1="59.7423713%" y1="52.3077893%" x2="52.69553%" y2="54.8668239%" id="linearGradient-2">
            <stop stop-color="#000000" stop-opacity="0.3" offset="0%"></stop>
            <stop stop-color="#000000" stop-opacity="0.2" offset="10%"></stop>
            <stop stop-color="#000000" stop-opacity="0.1" offset="30%"></stop>
            <stop stop-color="#000000" stop-opacity="0.1" offset="60%"></stop>
            <stop stop-color="#000000" stop-opacity="0" offset="100%"></stop>
        </linearGradient>
        <linearGradient x1="37.2522128%" y1="4.60096262%" x2="62.4934744%" y2="99.9748074%" id="linearGradient-3">
            <stop stop-color="#3CCBF4" offset="0%"></stop>
            <stop stop-color="#2892DF" offset="100%"></stop>
        </linearGradient>
    </defs>
    <g id="Azure" stroke="none" stroke-width="1" fill="none" fill-rule="evenodd">
        <g id="azure-2" transform="translate(36.000000, 42.000000)" fill-rule="nonzero">
            <path d="M48.4182203,0.00362369937 L91.3939394,0.00362369937 L46.7806004,131.996873 C46.5524743,132.670978 46.2204835,133.30549 45.7965761,133.877573 C45.3735546,134.450118 44.863387,134.952 44.2842288,135.366914 C43.7050705,135.781827 43.0659994,136.104337 42.3869863,136.321759 C41.7079732,136.53918 40.9999114,136.651515 40.2882186,136.651515 L6.8422848,136.651515 C5.75659006,136.651515 4.68541967,136.394232 3.71955078,135.897786 C2.75265665,135.40276 1.91801634,134.684728 1.28490757,133.803287 C0.651385692,132.921873 0.236938137,131.902766 0.0757559127,130.830042 C-0.0858274173,129.757427 0.0122119065,128.661258 0.358980626,127.633939 L41.9240228,4.65464184 C42.1509657,3.98063376 42.4832101,3.34648637 42.9080472,2.77394187 C43.3310687,2.20139737 43.8430518,1.69951501 44.4203945,1.28460143 C44.9995527,0.869687849 45.6386239,0.547178605 46.317637,0.329756643 C46.9966501,0.112334681 47.7047118,0 48.4164047,0 L48.4164047,0.00181184969 L48.4182203,0.00362369937 Z" id="Path" fill="url(#linearGradient-1)"></path>
            <path d="M127.424242,136.649695 L88.924343,136.649695 C88.4950569,136.649695 88.0657707,136.609654 87.6419186,136.527752 C87.2198779,136.447669 86.8050824,136.327546 86.4047777,136.169201 C86.0044729,136.010856 85.6204701,135.814291 85.2563921,135.584964 C84.8927623,135.354095 84.5513566,135.089649 84.2366111,134.795061 L40.5472404,93.796542 C40.0851464,93.362949 39.7633159,92.7998879 39.6234602,92.1803348 C39.3375322,90.9123725 39.8526819,89.5977234 40.9221865,88.8660178 C41.4456619,88.5092874 42.0633268,88.3181818 42.6954823,88.3181818 L110.685707,88.3181818 L127.42062,136.651515 L127.424242,136.649695 Z" id="Path" fill="#0078D4"></path>
            <path d="M91.5050297,0 L61.4316956,88.5456361 L110.569019,88.5347647 L127.424242,136.651515 L88.9931713,136.651515 C88.5957023,136.647854 88.1982334,136.611616 87.8062093,136.540952 C87.4141851,136.470288 87.0294207,136.36701 86.6555458,136.229306 C85.9058505,135.956582 85.2085079,135.557628 84.5937891,135.049762 L55.0431539,107.516188 L46.7707184,131.871696 C46.5565571,132.480493 46.262539,133.058488 45.8959238,133.589373 C45.161125,134.657367 44.1560497,135.511974 42.9829666,136.066235 C42.3989195,136.342063 41.7806265,136.53888 41.1444459,136.651515 L6.84777757,136.651515 C5.75156189,136.655102 4.66986562,136.394189 3.69525003,135.890482 C1.71704301,134.869114 0.361250113,132.949699 0.0617669382,130.746508 C-0.0852696626,129.660424 0.0311248415,128.554969 0.401158216,127.523145 L41.8849359,4.74362898 C42.1009122,4.05692036 42.4257841,3.41007345 42.8468471,2.8266429 C43.2660951,2.24321235 43.7779044,1.72863385 44.3586809,1.30465016 C44.9394574,0.880666471 45.5855713,0.550901379 46.2697987,0.329850053 C46.954026,0.108798727 47.670922,-0.00353883193 48.3914479,0 L91.5068446,0 L91.5050297,0 Z" id="Path" fill="url(#linearGradient-2)"></path>
            <path d="M144.640735,127.6337 C144.987431,128.661606 145.085044,129.756988 144.92556,130.829888 C144.764336,131.902289 144.350894,132.921251 143.719137,133.803212 C142.435355,135.590408 140.368274,136.651515 138.165962,136.651515 L90.3045247,136.651515 C91.3893985,136.651515 92.4597589,136.392414 93.4267116,135.897766 C94.3918501,135.403118 95.2263684,134.683794 95.8595138,133.803212 C96.4926591,132.92263 96.9062899,131.902531 97.0677511,130.829888 C97.2292122,129.757244 97.131247,128.661046 96.7847405,127.6337 L55.2493147,4.64751769 C54.7920933,3.29273303 53.9209193,2.11530123 52.7584591,1.2810117 C52.181553,0.866087117 51.5429651,0.545381218 50.8662796,0.32795349 C50.1895942,0.110525762 49.4820678,0 48.7727273,0 L96.6323502,0 C97.3435049,0 98.0492171,0.110525762 98.7277168,0.32795349 C99.4044022,0.545381218 100.04299,0.867899014 100.62171,1.2810117 C101.198617,1.69593628 101.708398,2.19783195 102.1311,2.76857974 C102.553802,3.33932752 102.883981,3.97349173 103.112566,4.64751769 L144.647992,127.6337 L144.640735,127.6337 Z" id="Path" fill="url(#linearGradient-3)"></path>
        </g>
        <rect id="Rectangle" stroke-opacity="0.012729458" stroke="#FFFFFF" x="1.5" y="0.5" width="215" height="220"></rect>
    </g>
</svg>