<?xml version="1.0" encoding="UTF-8"?>
<svg width="220px" height="220px" viewBox="0 0 220 220" version="1.1" xmlns="http://www.w3.org/2000/svg" xmlns:xlink="http://www.w3.org/1999/xlink">
    <title>DebugIcon</title>
    <g id="DebugIcon" stroke="none" stroke-width="1" fill="none" fill-rule="evenodd">
        <rect id="Rectangle" stroke-opacity="0.012729458" stroke="#FFFFFF" x="1.5" y="0.5" width="215" height="220"></rect>
        <g id="􀯔" transform="translate(32.000000, 29.000000)" fill="#FFA64C" fill-rule="nonzero">
            <path d="M78.4677097,163 C69.3388059,163 61.0498276,161.519354 53.6007751,158.558062 C46.1517225,155.59677 39.7404916,151.35316 34.3670826,145.827232 C28.9936735,140.301304 24.8658016,133.687979 21.983467,125.987257 C19.1011323,118.286536 17.6599649,109.719076 17.6599649,100.284878 C17.6599649,93.3199377 18.6180995,86.4590815 20.5343687,79.7023096 C22.4506378,72.9455376 25.1815291,66.6334894 28.7270425,60.7661648 C32.2725558,54.8988402 36.5005088,49.7858426 41.4109013,45.4271721 C41.4871895,39.0011989 43.0592175,33.4745137 46.1269854,28.8471166 C49.1947534,24.2197195 53.4925742,20.671203 59.020448,18.2015673 C64.5483218,15.7319316 71.0307424,14.4971137 78.4677097,14.4971137 C85.9039217,14.4971137 92.3859646,15.7319316 97.9138384,18.2015673 C103.441712,20.671203 107.750674,24.2087433 110.840724,28.8141881 C113.930774,33.4196329 115.513944,38.935342 115.590232,45.3613152 C120.456815,49.6760811 124.673627,54.8000548 128.240667,60.7332363 C131.807707,66.6664179 134.550684,73.0221815 136.469597,79.8005273 C138.38851,86.5788731 139.347966,93.40699 139.347966,100.284878 C139.347966,109.719076 137.905477,118.286536 135.020499,125.987257 C132.13552,133.687979 128.006326,140.301304 122.632917,145.827232 C117.259508,151.35316 110.837325,155.59677 103.366368,158.558062 C95.895411,161.519354 87.5958582,163 78.4677097,163 Z M78.4677097,62.2876875 C72.4530265,62.2876875 66.6096141,61.7665092 60.9374725,60.7241526 C55.2653309,59.681796 50.4246175,58.3048558 46.4153322,56.593332 C43.4914544,59.6674134 40.707879,63.3989289 38.0646059,67.7878785 C35.4213327,72.176828 33.2552386,77.1121254 31.5663234,82.5937704 C29.8774082,88.0754155 29.0329506,93.9724515 29.0329506,100.284878 C29.0329506,110.532069 31.0948094,119.509999 35.218527,127.218669 C39.3422445,134.927338 45.1182438,140.918429 52.5465249,145.191939 C59.9748059,149.46545 68.6152009,151.602205 78.4677097,151.602205 C88.3632723,151.602205 97.0251941,149.46545 104.453475,145.191939 C111.881756,140.918429 117.646803,134.927338 121.748616,127.218669 C125.850429,119.509999 127.901336,110.532069 127.901336,100.284878 C127.901336,93.9285468 127.056878,88.0095586 125.367963,82.5279135 C123.679048,77.0462684 121.50219,72.1109711 118.83739,67.7220215 C116.17259,63.333072 113.421683,59.6235088 110.584668,56.593332 C106.576138,58.3487604 101.72485,59.7366768 96.0308037,60.7570811 C90.3367576,61.7774853 84.4823929,62.2876875 78.4677097,62.2876875 Z M73.5437213,154.707701 L73.5437213,75.4363687 C73.5437213,74.1154448 74.0010729,72.9968228 74.915776,72.0805028 C75.8304792,71.1641828 76.9487435,70.7060228 78.2705689,70.7060228 C79.5448086,70.7060228 80.6500434,71.1641828 81.5862735,72.0805028 C82.5225035,72.9968228 82.9906185,74.1154448 82.9906185,75.4363687 L82.9906185,154.707701 L73.5437213,154.707701 Z M56.4921737,86.2289607 C54.0766322,86.2289607 52.0174171,85.3624119 50.3145283,83.6293143 C48.6116395,81.8962166 47.7601951,79.8196409 47.7601951,77.3995872 C47.7601951,74.9742346 48.6116395,72.8961449 50.3145283,71.1653182 C52.0174171,69.4344915 54.0766322,68.5690782 56.4921737,68.5690782 C58.9560562,68.5690782 61.040386,69.4344915 62.7451631,71.1653182 C64.4499402,72.8961449 65.3023288,74.9742346 65.3023288,77.3995872 C65.3023288,79.8196409 64.4499402,81.8962166 62.7451631,83.6293143 C61.040386,85.3624119 58.9560562,86.2289607 56.4921737,86.2289607 Z M48.3357557,113.623182 C45.4851448,113.623182 43.0512866,112.612429 41.034181,110.590924 C39.0170755,108.569418 38.0085227,106.130629 38.0085227,103.274557 C38.0085227,100.466174 39.0170755,98.0535008 41.034181,96.036537 C43.0512866,94.0195732 45.4851448,93.0110913 48.3357557,93.0110913 C51.1380255,93.0110913 53.5354391,94.0207087 55.5279965,96.0399434 C57.5205538,98.0591782 58.5168325,100.470716 58.5168325,103.274557 C58.5168325,106.130629 57.5205538,108.569418 55.5279965,110.590924 C53.5354391,112.612429 51.1380255,113.623182 48.3357557,113.623182 Z M56.4921737,137.159094 C54.2843476,137.159094 52.3807302,136.360106 50.7813215,134.762128 C49.1819128,133.164151 48.3822084,131.258841 48.3822084,129.046199 C48.3822084,126.784353 49.1819128,124.864283 50.7813215,123.285987 C52.3807302,121.707691 54.2843476,120.918543 56.4921737,120.918543 C58.7483408,120.918543 60.6748069,121.707691 62.271572,123.285987 C63.868337,124.864283 64.6667196,126.784353 64.6667196,129.046199 C64.6667196,131.258841 63.868337,133.164151 62.271572,134.762128 C60.6748069,136.360106 58.7483408,137.159094 56.4921737,137.159094 Z M100.508959,86.2289607 C98.0450768,86.2289607 95.9496059,85.3624119 94.2225466,83.6293143 C92.4954873,81.8962166 91.6319576,79.8196409 91.6319576,77.3995872 C91.6319576,74.9742346 92.4954873,72.8961449 94.2225466,71.1653182 C95.9496059,69.4344915 98.0450768,68.5690782 100.508959,68.5690782 C102.880692,68.5690782 104.928766,69.4344915 106.653181,71.1653182 C108.377597,72.8961449 109.239805,74.9742346 109.239805,77.3995872 C109.239805,79.8196409 108.377597,81.8962166 106.653181,83.6293143 C104.928766,85.3624119 102.880692,86.2289607 100.508959,86.2289607 Z M108.672175,113.623182 C105.869905,113.623182 103.47117,112.612429 101.475969,110.590924 C99.480768,108.569418 98.4831675,106.130629 98.4831675,103.274557 C98.4831675,100.470716 99.480768,98.0591782 101.475969,96.0399434 C103.47117,94.0207087 105.869905,93.0110913 108.672175,93.0110913 C111.517499,93.0110913 113.948713,94.0195732 115.965819,96.036537 C117.982925,98.0535008 118.991477,100.466174 118.991477,103.274557 C118.991477,106.130629 117.982925,108.569418 115.965819,110.590924 C113.948713,112.612429 111.517499,113.623182 108.672175,113.623182 Z M100.508959,137.159094 C98.2520369,137.159094 96.3251931,136.360106 94.728428,134.762128 C93.131663,133.164151 92.3332804,131.258841 92.3332804,129.046199 C92.3332804,126.784353 93.131663,124.864283 94.728428,123.285987 C96.3251931,121.707691 98.2520369,120.918543 100.508959,120.918543 C102.721317,120.918543 104.614927,121.707691 106.189787,123.285987 C107.764648,124.864283 108.552078,126.784353 108.552078,129.046199 C108.552078,131.258841 107.764648,133.164151 106.189787,134.762128 C104.614927,136.360106 102.721317,137.159094 100.508959,137.159094 Z M48.1624077,10.6183663 C46.3586826,10.1104351 45.1964204,9.19543978 44.6756212,7.87338038 C44.154822,6.55132099 44.1259306,5.20163194 44.5889472,3.82431326 C45.0519637,2.44699458 45.9141716,1.3802255 47.1755706,0.624006006 C48.4369697,-0.132213485 49.9695319,-0.201098343 51.773257,0.41735143 L57.1493097,2.54861867 C60.6313755,3.78778915 63.1738122,5.64616637 64.7766199,8.12375035 C66.3794276,10.6013343 66.9632968,13.5652757 66.5282274,17.0155744 L66.0784291,20.6933446 L55.2651421,20.7660143 L56.1318819,17.0189808 C56.4038002,15.8820022 56.2659527,14.9251839 55.7183393,14.1485261 C55.170726,13.3718682 54.1687823,12.750769 52.7125084,12.2852285 L48.1624077,10.6183663 Z M108.837592,10.6183663 L104.288625,12.2852285 C102.831595,12.750769 101.829463,13.3718682 101.282227,14.1485261 C100.734991,14.9251839 100.599221,15.8820022 100.874916,17.0189808 L101.735991,20.7660143 L90.9283689,20.6933446 L90.407192,17.0155744 C90.0159317,13.5652757 90.6217054,10.6013343 92.2245131,8.12375035 C93.8273208,5.64616637 96.3697575,3.78778915 99.8518233,2.54861867 L105.226743,0.41735143 C107.030468,-0.201098343 108.56303,-0.132213485 109.824429,0.624006006 C111.085828,1.3802255 111.948036,2.44699458 112.411053,3.82431326 C112.874069,5.20163194 112.834415,6.55132099 112.292089,7.87338038 C111.749762,9.19543978 110.598264,10.1104351 108.837592,10.6183663 Z M36.1084931,58.4043982 L29.0828023,67.048691 L15.3701857,55.628187 C14.0249451,54.501806 13.2061687,53.1494676 12.9138564,51.5711716 C12.6215442,49.9928757 13.0109162,48.5436443 14.0819724,47.2234773 C15.2013697,45.8987685 16.5426448,45.2559062 18.1057977,45.2948905 C19.6689507,45.3338748 21.1254134,45.9214778 22.475186,47.0576995 L36.1084931,58.4043982 Z M23.2376904,90.691337 L23.2376904,101.915406 L6.01959284,101.988075 C4.22039965,101.988075 2.76733588,101.472196 1.66040153,100.440437 C0.553467176,99.408678 0,98.0442279 0,96.3470866 C0,94.6983919 0.553467176,93.3557049 1.66040153,92.3190256 C2.76733588,91.2823463 4.22039965,90.7640067 6.01959284,90.7640067 L23.2376904,90.691337 Z M28.5027098,131.350057 L35.5499275,139.942118 L22.6870557,150.842579 C21.302538,152.027248 19.8253038,152.637938 18.2553529,152.674652 C16.6854019,152.711365 15.3407279,152.042766 14.2213306,150.668853 C13.1457424,149.38275 12.7563704,147.942035 13.0532146,146.346707 C13.3500588,144.751379 14.1688352,143.405286 15.5095438,142.308427 L28.5027098,131.350057 Z M120.826926,58.4702552 L134.4591,47.0576995 C135.853437,45.9214778 137.331993,45.3338748 138.894769,45.2948905 C140.457544,45.2559062 141.799008,45.8987685 142.919161,47.2234773 C143.990217,48.5436443 144.379589,49.9928757 144.087277,51.5711716 C143.794964,53.1494676 142.97581,54.501806 141.629814,55.628187 L127.852617,67.1145479 L120.826926,58.4702552 Z M133.763443,90.691337 L150.987205,90.7640067 C152.781866,90.7640067 154.232664,91.2823463 155.339598,92.3190256 C156.446533,93.3557049 157,94.6983919 157,96.3470866 C157,98.0442279 156.446533,99.408678 155.339598,100.440437 C154.232664,101.472196 152.759962,101.988075 150.921492,101.988075 L133.763443,101.915406 L133.763443,90.691337 Z M128.431577,131.2842 L141.490456,142.308427 C142.831165,143.405286 143.65013,144.751379 143.947352,146.346707 C144.244574,147.942035 143.833486,149.38275 142.714089,150.668853 C141.637745,152.042766 140.314598,152.711365 138.744647,152.674652 C137.174696,152.637938 135.697462,152.027248 134.312944,150.842579 L121.385492,139.877397 L128.431577,131.2842 Z" id="Shape"></path>
        </g>
    </g>
</svg>