<?xml version="1.0" encoding="UTF-8"?>
<svg width="217px" height="221px" viewBox="0 0 217 221" version="1.1" xmlns="http://www.w3.org/2000/svg" xmlns:xlink="http://www.w3.org/1999/xlink">
    <title>CloudFlare Workers</title>
    <defs>
        <linearGradient x1="50%" y1="100%" x2="25.7%" y2="8.7%" id="linearGradient-1">
            <stop stop-color="#EB6F07" offset="0%"></stop>
            <stop stop-color="#FAB743" offset="100%"></stop>
        </linearGradient>
        <linearGradient x1="81%" y1="83.7%" x2="40.5%" y2="29.5%" id="linearGradient-2">
            <stop stop-color="#D96504" offset="0%"></stop>
            <stop stop-color="#D96504" stop-opacity="0" offset="100%"></stop>
        </linearGradient>
        <linearGradient x1="42%" y1="8.7%" x2="84%" y2="79.9%" id="linearGradient-3">
            <stop stop-color="#EB6F07" offset="0%"></stop>
            <stop stop-color="#EB720A" stop-opacity="0" offset="100%"></stop>
        </linearGradient>
        <linearGradient x1="50%" y1="100%" x2="25.7%" y2="8.7%" id="linearGradient-4">
            <stop stop-color="#EE6F05" offset="0%"></stop>
            <stop stop-color="#FAB743" offset="100%"></stop>
        </linearGradient>
        <linearGradient x1="-33.2%" y1="100%" x2="91.7%" y2="0%" id="linearGradient-5">
            <stop stop-color="#D96504" stop-opacity="0.8" offset="0%"></stop>
            <stop stop-color="#D96504" stop-opacity="0.2" offset="49.8%"></stop>
            <stop stop-color="#D96504" stop-opacity="0" offset="100%"></stop>
        </linearGradient>
        <linearGradient x1="50%" y1="100%" x2="25.7%" y2="8.7%" id="linearGradient-6">
            <stop stop-color="#FFA95F" offset="0%"></stop>
            <stop stop-color="#FFEBC8" offset="100%"></stop>
        </linearGradient>
        <linearGradient x1="8.1%" y1="1.1%" x2="96.5%" y2="48.8%" id="linearGradient-7">
            <stop stop-color="#FFFFFF" stop-opacity="0.5" offset="0%"></stop>
            <stop stop-color="#FFFFFF" stop-opacity="0.1" offset="100%"></stop>
        </linearGradient>
        <linearGradient x1="-13.7%" y1="104.2%" x2="100%" y2="46.2%" id="linearGradient-8">
            <stop stop-color="#FFFFFF" stop-opacity="0.5" offset="0%"></stop>
            <stop stop-color="#FFFFFF" stop-opacity="0.1" offset="100%"></stop>
        </linearGradient>
    </defs>
    <g id="CloudFlare-Workers" stroke="none" stroke-width="1" fill="none" fill-rule="evenodd">
        <g id="cloudflare-workers-seeklogo" transform="translate(36.000000, 45.000000)" fill-rule="nonzero">
            <path d="M37.2813119,1.88261482 L54.3642983,32.7017167 L38.6758414,60.9409392 C37.1488958,63.682819 37.1488958,67.0194582 38.6758414,69.7613379 L54.3642983,98.0702872 L37.2813119,128.889389 C34.0668951,127.295773 31.3976084,124.784217 29.6113997,121.672699 L2.41807447,74.4330119 C-0.806024823,68.8200891 -0.806024823,61.9170515 2.41807447,56.3041285 L29.6113997,9.06444175 C31.4030069,5.96583593 34.0717609,3.46691171 37.2813119,1.88261482 Z" id="Path" fill="url(#linearGradient-1)"></path>
            <path d="M38.6758414,60.9758021 C37.1618058,63.7086256 37.1618058,67.0285144 38.6758414,69.7613379 L54.3642983,98.0702872 L37.2813119,128.889389 C34.0668951,127.295773 31.3976084,124.784217 29.6113997,121.672699 L2.41807447,74.4330119 C0.256553744,70.7026456 12.3540971,66.2401511 38.6758414,61.0106655 L38.6758414,60.9758021 Z" id="Path" fill="url(#linearGradient-2)" opacity="0.7"></path>
            <path d="M39.0244738,4.98544295 L54.3642983,32.7017167 L51.8192819,37.1293479 L38.2923458,14.2242009 C34.3876632,7.8442284 28.4260496,11.156236 20.9653168,24.0556338 L22.0809404,22.1381558 L29.6113997,9.06444175 C31.3844132,5.97597828 34.0277868,3.47811144 37.2115855,1.88261482 L38.9896105,4.98544295 L39.0244738,4.98544295 Z" id="Path" fill="url(#linearGradient-3)" opacity="0.5"></path>
            <path d="M115.374964,9.06444175 L142.568289,56.3041285 C145.81057,61.8822464 145.81057,68.8548942 142.568289,74.4330119 L115.374964,121.672699 C112.138627,127.278202 106.159182,130.732992 99.686507,130.737141 L72.4931815,130.737141 L106.310522,69.7613379 C107.824558,67.0285144 107.824558,63.7086256 106.310522,60.9758021 L72.4931815,0 L99.686507,0 C106.159182,0.00414838379 112.138627,3.45893833 115.374964,9.06444175 L115.374964,9.06444175 Z" id="Path" fill="url(#linearGradient-4)"></path>
            <path d="M98.2919774,130.527961 L71.4472846,130.772003 L103.939822,69.4824321 C105.414925,66.7149695 105.414925,63.3946332 103.939822,60.62717 L71.4472846,0 L77.5832145,0 L111.67946,60.3482642 C113.323451,63.2490787 113.31019,66.8031459 111.644598,69.6916116 C104.306414,82.445222 97.0199377,95.2285143 89.7853474,108.041173 C83.1613322,119.685494 86.0201177,127.18109 98.2919774,130.527961 L98.2919774,130.527961 Z" id="Path" fill="url(#linearGradient-5)"></path>
            <path d="M45.2998565,130.737141 C42.5107976,130.737141 39.7217385,130.074739 37.2813119,128.889389 L70.8197462,68.4016718 C71.8656436,66.5190569 71.8656436,64.2180836 70.8197462,62.3354688 L37.2813119,1.88261482 C39.774313,0.64816216 42.5179665,0.00400004034 45.2998565,0 L72.4931815,0 L106.310522,60.9758021 C107.824558,63.7086256 107.824558,67.0285144 106.310522,69.7613379 L72.4931815,130.737141 L45.2998565,130.737141 Z" id="Path" fill="url(#linearGradient-6)"></path>
            <path d="M103.939822,62.3354688 L69.3554903,0 L72.4931815,0 L106.310522,60.9758021 C107.824558,63.7086256 107.824558,67.0285144 106.310522,69.7613379 L72.4931815,130.737141 L69.3554903,130.737141 L103.939822,68.4016718 C104.985719,66.5190569 104.985719,64.2180836 103.939822,62.3354688 Z" id="Path" fill="url(#linearGradient-7)" opacity="0.6"></path>
            <path d="M70.8197462,62.3354688 L37.2813119,1.88261482 C38.3272091,1.32480302 39.5822856,0.906444175 40.7676356,0.557811799 C48.158642,13.8407053 59.0708351,33.9916565 73.539079,60.9758021 C75.0531146,63.7086256 75.0531146,67.0285144 73.539079,69.7613379 L40.2446871,130.039876 C39.059337,129.691243 38.4317988,129.447201 37.3161752,128.924252 L70.7848833,68.4365352 C71.8307802,66.5539204 71.8307802,64.2529465 70.7848833,62.3703317 L70.8197462,62.3354688 Z" id="Path" fill="url(#linearGradient-8)" opacity="0.6"></path>
        </g>
        <rect id="Rectangle" stroke-opacity="0.012729458" stroke="#FFFFFF" x="1.5" y="0.5" width="215" height="220"></rect>
    </g>
</svg>