<?xml version="1.0" encoding="UTF-8"?>
<svg width="757px" height="757px" viewBox="0 0 757 757" version="1.1" xmlns="http://www.w3.org/2000/svg" xmlns:xlink="http://www.w3.org/1999/xlink">
    <title>debug-console-svgrepo-com</title>
    <g id="Page-1" stroke="none" stroke-width="1" fill="none" fill-rule="evenodd">
        <g id="debug-console-svgrepo-com" fill="#FC6A5D" fill-rule="nonzero">
            <path d="M234.666667,1.9 L239.3,0 L710.666667,0 L715.333333,1.9 C726.368679,5.9166098 734.075547,10.1159686 738.453939,14.4980766 C742.83233,18.8801845 748.21435,27.7808256 754.6,41.2 L756.5,45.8333333 L756.5,517.2 L754.6,521.866667 C748.263185,535.964308 742.881165,545.224864 738.453939,549.648335 C734.026712,554.071807 726.308733,557.900139 715.3,561.133333 L710.666667,563.033333 L466.666667,563.033333 L466.666667,556.533333 C466.697503,539.475148 460.155618,523.060748 448.4,510.7 L704.166667,510.7 L704.166667,52.3666667 L245.833333,52.3666667 L245.833333,295.1 C228.713839,290.869072 211.090885,289.029375 193.466667,289.633333 L193.466667,45.8333333 L195.366667,41.1666667 C198.649855,28.1767652 202.690098,19.2872352 207.487394,14.4980766 C212.284691,9.70891795 221.344448,5.52067021 234.666667,1.93333333 L234.666667,1.9 Z M320.666667,450.533333 L364.666667,406.533333 L400,441.866667 L342.666667,499.2 L350,506.533333 L350,556.533333 L400,556.533333 L400,604.866667 L350,604.866667 L350,608.2 C347.533325,624.829949 342.940165,641.07405 336.333333,656.533333 L400,721.2 L364.666667,756.533333 L309.666667,701.533333 C283.176631,735.345647 242.941547,755.524336 200,756.533333 C157.060786,755.514972 116.829478,735.338176 90.3333333,701.533333 L35.3333333,756.533333 L0,721.2 L63.6666667,656.533333 C57.1413994,641.392103 52.5496896,625.489108 50,609.2 L50,606.533333 L0,606.533333 L0,556.533333 L50,556.533333 L50,506.533333 L57.3333333,499.2 L0,441.866667 L35.3333333,406.533333 L79.3333333,450.533333 C93.103567,395.095038 142.877116,356.172209 200,356.172209 C257.122884,356.172209 306.896433,395.095038 320.666667,450.533333 Z M253.033333,428.5 C231.583472,407.049876 199.324406,400.633068 171.298655,412.241755 C143.272904,423.850443 125,451.198463 125,481.533333 L275,481.533333 C275,461.642031 267.098522,442.565361 253.033333,428.5 L253.033333,428.5 Z M268,674.5 C286.241937,656.252257 297.557007,632.219519 300,606.533333 L300,531.533333 L100,531.533333 L100,606.533333 C105.037291,659.535389 146.997944,701.496042 200,706.533333 C225.697958,704.097863 249.743659,692.782239 268,674.533333 L268,674.5 Z" id="Shape"></path>
        </g>
    </g>
</svg>