<?xml version="1.0" encoding="UTF-8"?>
<svg width="217px" height="221px" viewBox="0 0 217 221" version="1.1" xmlns="http://www.w3.org/2000/svg" xmlns:xlink="http://www.w3.org/1999/xlink">
    <title>DigitalOcean</title>
    <g id="DigitalOcean" stroke="none" stroke-width="1" fill="none" fill-rule="evenodd">
        <g id="XMLID_44_" transform="translate(36.000000, 38.000000)" fill="#0080FF">
            <g id="XMLID_48_" fill-rule="nonzero">
                <path d="M72.5102958,145 L72.5102958,116.883763 C102.270757,116.883763 125.37211,87.3699349 113.944751,56.0474602 C109.751978,44.5378894 100.462111,35.2480216 88.8703286,31.0552494 C57.5478538,19.7101011 28.0340259,42.7292426 28.0340259,72.4897042 C28.0340259,72.4897042 28.0340259,72.4897042 28.0340259,72.4897042 L0,72.4897042 C0,25.0538303 45.8738606,-11.9412186 95.6116486,3.59670198 C117.315411,10.4202332 134.661978,27.6845894 141.403298,49.3883514 C156.941219,99.1261394 119.94617,145 72.5102958,145 Z" id="XMLID_49_"></path>
            </g>
            <polygon id="XMLID_47_" points="72.5925071 117.048185 44.5584811 117.048185 44.5584811 89.0141593 44.5584811 89.0141593 72.5925071 89.0141593 72.5925071 89.0141593"></polygon>
            <polygon id="XMLID_46_" points="44.5584811 138.505314 23.1013528 138.505314 23.1013528 138.505314 23.1013528 117.048185 44.5584811 117.048185"></polygon>
            <path d="M23.1013528,117.048185 L5.09709563,117.048185 C5.09709563,117.048185 5.09709563,117.048185 5.09709563,117.048185 L5.09709563,99.0439281 C5.09709563,99.0439281 5.09709563,99.0439281 5.09709563,99.0439281 L23.1013528,99.0439281 C23.1013528,99.0439281 23.1013528,99.0439281 23.1013528,99.0439281 L23.1013528,117.048185 Z" id="XMLID_45_"></path>
        </g>
        <rect id="Rectangle" stroke-opacity="0.012729458" stroke="#FFFFFF" x="1.5" y="0.5" width="215" height="220"></rect>
    </g>
</svg>