<?xml version="1.0" encoding="UTF-8"?>
<svg width="217px" height="221px" viewBox="0 0 217 221" version="1.1" xmlns="http://www.w3.org/2000/svg" xmlns:xlink="http://www.w3.org/1999/xlink">
    <title>Discord</title>
    <g id="Discord" stroke="none" stroke-width="1" fill="none" fill-rule="evenodd">
        <rect id="Rectangle" stroke-opacity="0.012729458" stroke="#FFFFFF" x="1.5" y="0.5" width="215" height="220"></rect>
        <g id="discord-icon-svgrepo-com" transform="translate(10.000000, 35.000000)" fill="#5865F2" fill-rule="nonzero">
            <path d="M166.030635,12.7299656 C153.343205,6.78299858 139.777204,2.46099032 125.594323,0 C123.852494,3.15490184 121.81754,7.39831345 120.414514,10.7739319 C105.337746,8.50243486 90.3996156,8.50243486 75.6001221,10.7739319 C74.1973634,7.39831345 72.1161972,3.15490184 70.3587859,0 C56.1605898,2.46099032 42.5790057,6.79887941 29.8915761,12.7614581 C4.30091616,51.5028775 -2.63629102,89.2820261 0.83231929,126.524726 C17.8053902,139.22293 34.2543409,146.936707 50.4256954,151.984388 C54.418493,146.479123 57.979528,140.626903 61.0472733,134.45922 C55.2046398,132.235096 49.6086509,129.490403 44.3211024,126.304009 C45.7238611,125.262873 47.0959907,124.174363 48.4216393,123.054361 C80.6719235,138.166182 115.712679,138.166182 147.577682,123.054361 C148.918914,124.174363 150.290774,125.262873 151.678219,126.304009 C146.375087,129.506015 140.763783,132.250708 134.92115,134.4751 C137.988895,140.626903 141.534615,146.495005 145.542728,152 C161.729665,146.952319 178.193877,139.23881 195.166961,126.524726 C199.236869,83.3509398 188.214426,45.918747 166.030635,12.7299656 Z M65.4409359,103.620801 C55.7597248,103.620801 47.8203418,94.5663054 47.8203418,83.5401642 C47.8203418,72.5140231 55.5901901,63.4439159 65.4409359,63.4439159 C75.2919504,63.4439159 83.2310649,72.4981423 83.0615302,83.5401642 C83.0768443,94.5663054 75.2919504,103.620801 65.4409359,103.620801 Z M130.558385,103.620801 C120.877174,103.620801 112.937791,94.5663054 112.937791,83.5401642 C112.937791,72.5140231 120.70737,63.4439159 130.558385,63.4439159 C140.409131,63.4439159 148.348514,72.4981423 148.178979,83.5401642 C148.178979,94.5663054 140.409131,103.620801 130.558385,103.620801 Z" id="Shape"></path>
        </g>
    </g>
</svg>