<?xml version="1.0" encoding="UTF-8"?>
<svg width="220px" height="220px" viewBox="0 0 220 220" version="1.1" xmlns="http://www.w3.org/2000/svg" xmlns:xlink="http://www.w3.org/1999/xlink">
    <title>Drive</title>
    <g id="Drive" stroke="none" stroke-width="1" fill="none" fill-rule="evenodd">
        <rect id="Rectangle" stroke-opacity="0.012729458" stroke="#FFFFFF" x="1.5" y="0.5" width="215" height="220"></rect>
        <g id="􀤂" transform="translate(14.377765, 41.607605)" fill="#75BEFF" fill-rule="nonzero">
            <path d="M0,100.837394 C0,97.7014987 0.404370034,94.7133247 1.2131101,91.8728717 C2.02185017,89.0324188 2.96099683,86.3260984 4.0305501,83.7539105 L31.0924393,19.6556712 C33.8057732,13.2120512 37.8133104,8.32520094 43.1150508,4.99512057 C48.4167912,1.66504019 54.7063343,0 61.9836799,0 L128.0321,0 C135.309446,0 141.600304,1.66504019 146.904675,4.99512057 C152.209045,8.32520094 156.215267,13.2120512 158.923341,19.6556712 L186.065447,83.9169735 C187.073632,86.5119552 187.981437,89.2062212 188.788862,91.9997716 C189.596287,94.793322 190,97.739196 190,100.837394 C190,107.759683 188.36389,113.996186 185.091671,119.546905 C181.819452,125.097623 177.28985,129.482572 171.502865,132.701752 C165.715881,135.920932 159.048707,137.530522 151.501343,137.530522 L38.4986573,137.530522 C30.9512933,137.530522 24.2841191,135.920932 18.4971346,132.701752 C12.7101501,129.482572 8.18054825,125.097623 4.90832895,119.546905 C1.63610965,113.996186 0,107.759683 0,100.837394 Z M14.0957476,100.837394 C14.0957476,105.143661 15.1094123,109.013559 17.1367418,112.447088 C19.1640712,115.880617 21.9999216,118.582992 25.6442928,120.554214 C29.288664,122.525435 33.5734522,123.511046 38.4986573,123.511046 L151.501343,123.511046 C156.426548,123.511046 160.711336,122.614199 164.355707,120.820506 C168.000078,119.026813 170.835929,116.452433 172.863258,113.097367 C174.890588,109.742301 175.904252,105.655644 175.904252,100.837394 C175.904252,96.5311269 174.890588,92.6739408 172.863258,89.2658357 C170.835929,85.8577305 168.000078,83.1680671 164.355707,81.1968453 C160.711336,79.2256236 156.426548,78.2400127 151.501343,78.2400127 L38.4986573,78.2400127 C33.5734522,78.2400127 29.288664,79.2256236 25.6442928,81.1968453 C21.9999216,83.1680671 19.1640712,85.8577305 17.1367418,89.2658357 C15.1094123,92.6739408 14.0957476,96.5311269 14.0957476,100.837394 Z M27.2328424,66.0615708 C28.9590312,65.4531528 30.7603956,64.9942093 32.6369356,64.6847402 C34.5134755,64.3752711 36.4673828,64.2205365 38.4986573,64.2205365 L151.501343,64.2205365 C153.532617,64.2205365 155.489155,64.3752711 157.370955,64.6847402 C159.252755,64.9942093 161.056749,65.4531528 162.782938,66.0615708 L145.47064,23.0760499 C144.020607,19.4895398 141.764682,16.7790551 138.702867,14.9445959 C135.641051,13.1101368 131.935532,12.1929072 127.586307,12.1929072 L62.4294732,12.1929072 C58.0802488,12.1929072 54.3760439,13.1101368 51.3168586,14.9445959 C48.2576733,16.7790551 46.0004337,19.4895398 44.5451399,23.0760499 L27.2328424,66.0615708 Z M141.028488,100.837394 C141.028488,98.1407168 142.043248,95.7901106 144.072769,93.7855749 C146.10229,91.7810392 148.493443,90.7787714 151.246228,90.7787714 C153.993752,90.7787714 156.369783,91.7810392 158.374318,93.7855749 C160.378854,95.7901106 161.381122,98.1407168 161.381122,100.837394 C161.381122,103.646286 160.380169,106.037658 158.378263,108.01151 C156.376358,109.985362 153.999013,110.972288 151.246228,110.972288 C148.488183,110.972288 146.095715,109.998074 144.068824,108.049646 C142.041933,106.101218 141.028488,103.697134 141.028488,100.837394 Z" id="Shape"></path>
        </g>
    </g>
</svg>