<?xml version="1.0" encoding="UTF-8"?>
<svg width="217px" height="273px" viewBox="0 0 217 273" version="1.1" xmlns="http://www.w3.org/2000/svg" xmlns:xlink="http://www.w3.org/1999/xlink">
    <title>Firebase</title>
    <g id="Firebase" stroke="none" stroke-width="1" fill="none" fill-rule="evenodd">
        <g id="Primary_Vertical_Lockup_Full_Color_Inverted" transform="translate(36.000000, 45.000000)" fill-rule="nonzero">
            <path d="M45,177.729809 C52.6896156,180.817772 61.0329796,182.650285 69.7926712,182.954921 C81.6482519,183.36826 92.9213776,180.92312 103,176.277756 C90.9143967,171.540464 79.9688178,164.613014 70.6273439,156 C64.5714269,165.67253 55.6153418,173.312587 45,177.729809 Z" id="Path" fill="#FF9100"></path>
            <path d="M71,156.25456 C49.8117748,136.564541 36.9584982,108.066626 38.0444741,76.8088984 C38.0798936,75.7936098 38.1333571,74.7789927 38.1955083,73.765047 C34.4009414,72.7786324 30.4393013,72.1769799 26.3622471,72.0339531 C20.5264465,71.8291495 14.8750947,72.5563701 9.53964502,74.0665448 C3.88354838,84.021342 0.47030942,95.4433387 0.0451415012,107.678506 C-1.05226221,139.253176 17.9648131,166.842569 45.5360371,178 C56.0843716,173.5796 64.9826911,165.942776 71,156.25456 Z" id="Path" fill="#FFC400"></path>
            <path d="M70.7687811,156 C75.657381,148.125474 78.6213144,138.893916 78.9661892,128.94813 C79.8741384,102.786041 62.3989356,80.2798626 38.2132655,74 C38.1509228,75.0079286 38.0985284,76.0165248 38.0633777,77.0251209 C36.9849808,108.097358 49.7413681,136.426827 70.7687811,156 Z" id="Path" fill="#FF9100"></path>
            <path d="M76.2771953,0 C62.4235813,11.1243602 51.4840954,25.7928403 44.8654429,42.6905316 C41.0762093,52.3693443 38.6950152,62.7659333 38,73.664083 C62.3241981,79.9546528 79.8990116,102.49614 78.985887,128.70005 C78.6390464,138.662403 75.6488802,147.899358 70.7410857,155.795163 C80.0050648,164.38628 90.8598416,171.2799 102.845852,176 C126.902583,164.852942 143.971143,140.868014 144.959638,112.497938 C145.599959,94.116959 138.554426,77.7350022 128.598767,63.9071813 C118.085495,49.2827599 76.2771953,0 76.2771953,0 Z" id="Path" fill="#DD2C00"></path>
        </g>
        <rect id="Rectangle" stroke-opacity="0.012729458" stroke="#FFFFFF" x="1.5" y="0.5" width="215" height="272"></rect>
    </g>
</svg>