<?xml version="1.0" encoding="UTF-8"?>
<svg width="217px" height="221px" viewBox="0 0 217 221" version="1.1" xmlns="http://www.w3.org/2000/svg" xmlns:xlink="http://www.w3.org/1999/xlink">
    <title>Fly.io</title>
    <defs>
        <radialGradient cx="53.0958084%" cy="49.5648081%" fx="53.0958084%" fy="49.5648081%" r="93.3478912%" gradientTransform="translate(0.530958,0.495648),scale(0.776036,1.000000),translate(-0.530958,-0.495648)" id="radialGradient-1">
            <stop stop-color="#BA7BF0" offset="0%"></stop>
            <stop stop-color="#996BEC" offset="45%"></stop>
            <stop stop-color="#5046E4" offset="100%"></stop>
        </radialGradient>
    </defs>
    <g id="Fly.io" stroke="none" stroke-width="1" fill="none" fill-rule="evenodd">
        <g id="brandmark" transform="translate(36.000000, 45.000000)">
            <path d="M101.395808,17.897515 L118.092515,17.897515 C132.943293,17.897515 145,29.9542216 145,44.805 L145,103.51524 C145,118.366018 132.943293,130.422725 118.092515,130.422725 L116.776228,130.422725 C109.132904,129.227126 105.817874,126.93491 103.257365,124.997814 L82.0291916,107.543114 C80.9318189,106.660241 79.3678518,106.660241 78.270479,107.543114 L71.3738623,113.214611 L51.9508084,97.2437725 C50.8550797,96.3590073 49.2904292,96.3590073 48.1947006,97.2437725 L21.2108084,120.981228 C15.7798204,125.398084 12.1878144,124.582784 9.85826347,124.326647 C3.8411976,119.388832 0,111.896587 0,103.51524 L0,44.805 C0,29.9542216 12.0567066,17.897515 26.9100898,17.897515 L43.5694611,17.897515 L43.5390719,17.9643713 L42.9773054,19.6019162 L42.8027844,20.1636826 L42.0465269,23.5169162 L41.9423353,24.1055988 L41.6106587,27.4640419 L41.5663772,28.3861377 L41.5594311,28.7091317 L41.5906886,30.2494311 L41.6670958,31.1515569 L41.8537725,32.5650898 L42.0925449,33.8362275 L42.3755988,35.007515 L42.7428743,36.2751796 L43.6962275,38.9598503 L44.0105389,39.7647305 L45.6706587,43.272515 L46.2567365,44.3500299 L48.1764671,47.6450898 L48.911018,48.8337425 L51.590479,52.7791317 L51.9777246,53.3018263 L55.4638024,57.8393713 L56.5899401,59.2355389 L60.5709281,63.8894311 L61.3888323,64.7846108 L64.67,68.3149701 L65.9697904,69.6607784 L68.1178743,71.7941018 L67.6863473,72.1544311 L67.4180539,72.3966766 C66.6876167,73.0774818 65.9965191,73.7993077 65.3481138,74.5586527 C65.0364072,74.9259281 64.7394611,75.3053593 64.4581437,75.6960778 C64.0283533,76.2925749 63.6437126,76.9203293 63.3085629,77.575 C63.1366467,77.914491 62.9829641,78.2626647 62.847515,78.6186527 C62.4975916,79.527265 62.2874003,80.4836646 62.2241018,81.4552695 L62.2119461,82.294012 C62.2423353,83.4765868 62.4828443,84.6444012 62.9230539,85.7427545 C63.3689331,86.8562975 64.0194862,87.8764496 64.8410479,88.7504192 C65.4386793,89.3868864 66.1187737,89.9405399 66.8632335,90.3966467 C67.4979341,90.7847605 68.1743114,91.1051497 68.8767365,91.3482635 C70.4048802,91.8666168 72.0259281,92.0506886 73.6313473,91.8891916 L73.6400299,91.8891916 C75.0096696,91.7563281 76.3409221,91.3610204 77.5611078,90.7248503 C78.0876284,90.4465626 78.5885372,90.1223084 79.057994,89.7558683 C80.4033829,88.7086871 81.445938,87.3224094 82.0786826,85.7392814 C82.5727246,84.5046108 82.8149701,83.1857186 82.7932635,81.8572754 L82.7550599,81.1635329 C82.6647892,80.2465874 82.4458639,79.3469186 82.1047305,78.491018 C81.9571257,78.1185329 81.7886826,77.7547305 81.6011377,77.3996108 C81.2538323,76.7466766 80.8579042,76.1206587 80.4185629,75.5258982 C80.2171257,75.2541317 80.0087425,74.9875749 79.7934132,74.7262275 C79.0762571,73.8706267 78.3044955,73.0623216 77.4829641,72.3063772 L76.9020958,71.8123353 L77.8858383,70.8407485 L82.1134132,66.4256287 L83.5755689,64.8202096 L85.8486826,62.2631737 L87.3273353,60.5335928 L89.435479,57.9661377 L90.8629042,56.1714371 L92.9588922,53.3686826 L94.0173054,51.9186826 L95.5185329,49.6742216 L96.7688323,47.7614371 L99.1244311,43.6588922 L100.471976,40.9672754 L100.511048,40.8847904 L101.542545,38.3876647 C101.555569,38.3555389 101.567725,38.3225449 101.577275,38.2886826 L102.688653,34.8234431 L102.805,34.3181138 L103.286886,31.5596407 L103.380659,30.8129341 L103.409311,30.3553593 L103.442305,28.6283832 L103.433623,28.3062575 L103.34506,26.7598802 L103.235659,25.5590719 L102.688653,22.0955689 C102.680423,22.049009 102.669699,22.0029247 102.656527,21.957515 L101.954102,19.397006 L101.711856,18.6850299 L101.395808,17.897515 Z M109.332605,91.1103593 C105.853473,91.158982 103.005569,94.0068862 102.956946,97.4851497 C103.008174,100.963413 105.854341,103.809581 109.332605,103.859072 C112.81,103.808713 115.657036,100.963413 115.71,97.4851497 C115.659641,94.0068862 112.811737,91.158982 109.332605,91.1103593 L109.332605,91.1103593 Z" id="Shape" fill="url(#radialGradient-1)"></path>
            <path d="M62.9482335,128.130509 L61.8229641,129.076916 C60.7818019,129.933951 59.4786963,130.408866 58.1302395,130.422746 L26.9100898,130.422746 C20.6910125,130.430679 14.6627499,128.275557 9.85826347,124.326647 C12.1878144,124.582784 15.7798204,125.398084 21.2108084,120.981228 L48.1947006,97.2437725 C49.2904292,96.3590073 50.8550797,96.3590073 51.9508084,97.2437725 L71.3738623,113.214611 L78.270479,107.543114 C79.3678518,106.660241 80.9318189,106.660241 82.0291916,107.543114 L103.257365,124.997814 C105.817874,126.93491 109.132904,129.227126 116.776228,130.422746 L102.65479,130.422746 C101.407256,130.407141 100.195523,130.003534 99.1878144,129.267934 L98.9403593,129.076916 L97.8923653,128.206048 C97.8089246,128.103902 97.7158843,128.009989 97.614521,127.925599 C92.2080217,123.437434 86.7990289,118.952273 81.3875449,114.47012 C80.7309655,113.925365 79.7789142,113.927557 79.1248503,114.475329 C79.1248503,114.475329 79.1630539,114.520479 63.1609581,127.925599 C63.0828144,127.990719 63.0116168,128.059311 62.9482335,128.130509 L62.9482335,128.130509 Z M109.332605,91.1103593 C105.853473,91.158982 103.005569,94.0068862 102.956946,97.4851497 C103.008174,100.963413 105.854341,103.809581 109.332605,103.859072 C112.81,103.808713 115.657036,100.963413 115.71,97.4851497 C115.659641,94.0068862 112.811737,91.158982 109.332605,91.1103593 Z M68.1178743,71.7941018 L65.9697904,69.6607784 L64.67,68.3149701 L61.3888323,64.7846108 L60.5709281,63.8894311 L56.5899401,59.2355389 L55.4638024,57.838503 L51.9777246,53.3018263 L51.590479,52.7791317 L48.911018,48.8337425 L48.1764671,47.6450898 L46.2567365,44.3500299 L45.6706587,43.272515 L44.0105389,39.7647305 L43.6962275,38.9598503 L42.7428743,36.2751796 L42.3755988,35.007515 L42.0925449,33.8362275 L41.8537725,32.5642216 L41.6670958,31.1515569 L41.5906886,30.2494311 L41.5594311,28.7091317 L41.5663772,28.3861377 L41.6106587,27.4640419 L41.9423353,24.1047305 L42.0465269,23.5169162 L42.8027844,20.1636826 L42.9773054,19.6019162 L43.5390719,17.9643713 L43.7188024,17.5406587 L44.6131138,15.5766467 L45.2330539,14.4079641 L46.0961078,12.984012 L46.9565569,11.7163473 L47.5695509,10.9105988 L48.2754491,10.0597006 L49.0525449,9.20446108 L49.718503,8.53502994 L51.3395509,7.10847305 L52.5247305,6.13862275 C52.5533832,6.11431138 52.5829042,6.09260479 52.6132934,6.07176647 L54.0155389,5.12362275 L55.129521,4.41338323 L57.245479,3.2994012 C57.2776048,3.27943114 57.3140719,3.2638024 57.3479341,3.24817365 L60.3486527,2.00308383 L60.6256287,1.89889222 L63.2929341,1.11832335 L64.4190719,0.865658683 L65.942006,0.56002994 L66.9517964,0.406347305 L68.5007784,0.213592814 L69.5565868,0.119820359 L71.6534431,0.00868263473 L72.4748204,0 L74.0298802,0.0321257485 L74.434491,0.0547005988 L76.688503,0.242245509 L79.6692515,0.66248503 L80.0139521,0.734550898 L82.9599701,1.46736527 L83.8247605,1.72523952 L84.7859281,2.05778443 L85.9563473,2.5005988 L86.8819162,2.89305389 L88.2416168,3.53383234 L89.0985928,3.97404192 L90.6388922,4.87790419 L91.2128144,5.23128743 L93.3122754,6.76377246 L93.9148503,7.28646707 L95.3787425,8.62011976 L95.4508084,8.69218563 L96.6924251,10.0241018 L97.1196108,10.505988 L98.5765569,12.4422156 L98.873503,12.905 L100.03003,14.8577246 L100.378204,15.5271557 L101.030269,16.9841018 L101.711856,18.6850299 L101.954102,19.397006 L102.656527,21.957515 C102.669551,22.0026647 102.67997,22.0486826 102.688653,22.0955689 L103.235659,25.5582036 L103.34506,26.7598802 L103.433623,28.3062575 L103.442305,28.6283832 L103.409311,30.3553593 L103.380659,30.8129341 L103.286886,31.5596407 L102.805,34.3181138 L102.688653,34.8234431 L101.577275,38.2886826 C101.567388,38.3222453 101.555796,38.3552821 101.542545,38.3876647 L100.511048,40.8847904 L100.471976,40.9672754 L99.1244311,43.6588922 L96.7688323,47.7614371 L95.5185329,49.6742216 L94.0173054,51.9186826 L92.9588922,53.3686826 L90.8629042,56.1714371 L89.435479,57.9661377 L87.3273353,60.5335928 L85.8486826,62.2631737 L83.5755689,64.8202096 L82.1134132,66.4256287 L77.8858383,70.8407485 L76.9020958,71.8123353 L77.4829641,72.3063772 C78.3043413,73.0626347 79.0762275,73.8692515 79.7934132,74.7262275 C80.0087425,74.9875749 80.2171257,75.2541317 80.4185629,75.5258982 C80.8579042,76.1206587 81.2538323,76.7466766 81.6011377,77.3996108 C81.7886826,77.752994 81.9562575,78.1185329 82.1047305,78.491018 C82.442485,79.3462575 82.6699701,80.2501198 82.7550599,81.1635329 L82.7932635,81.8572754 C82.8149701,83.1857186 82.5718563,84.505479 82.0786826,85.7392814 C81.4461722,87.3223001 80.4035604,88.7083535 79.057994,89.755 C78.5882635,90.1231437 78.0872754,90.4461377 77.5611078,90.7248503 C76.3409221,91.3610204 75.0096696,91.7563281 73.6400299,91.8891916 L73.6313473,91.8891916 C72.026031,92.0508753 70.4047081,91.8664187 68.8767365,91.3482635 C68.1733281,91.1043211 67.4982618,90.7852729 66.8632335,90.3966467 C66.1187375,89.940591 65.4386367,89.3869323 64.8410479,88.7504192 C64.0194862,87.8764496 63.3689331,86.8562975 62.9230539,85.7427545 C62.4830165,84.6445482 62.242216,83.4767096 62.2119461,82.294012 L62.2241018,81.4552695 C62.287485,80.4836826 62.4976048,79.5268563 62.847515,78.6186527 C62.9838323,78.2617964 63.137515,77.9136228 63.3085629,77.575 C63.6437126,76.9194611 64.0292216,76.2925749 64.4581437,75.6960778 C64.7385928,75.3053593 65.0372754,74.9259281 65.3481138,74.5586527 C65.9965191,73.7993077 66.6876167,73.0774818 67.4180539,72.3966766 L67.6863473,72.1544311 L68.1178743,71.7941018 L68.1178743,71.7941018 Z" id="Shape" fill="#24175B"></path>
            <path d="M61.8229641,129.076916 L79.1248503,114.475329 C79.7789142,113.927557 80.7309655,113.925365 81.3875449,114.47012 L98.9403593,129.076916 C100.007845,129.945814 101.341763,130.421009 102.718174,130.422725 L58.0668563,130.422725 C59.437066,130.42322 60.7648521,129.947476 61.8229641,129.076916 L61.8229641,129.076916 Z M72.5929042,76.9515868 L72.7622156,77.0010778 C72.8169162,77.0271257 72.8629341,77.0661976 72.9124251,77.1000599 L73.0539521,77.2250898 C73.402994,77.5463473 73.742485,77.8841018 74.0689521,78.2296707 C74.2990419,78.4753892 74.5230539,78.7280539 74.7383832,78.9894012 C75.0118862,79.3193413 75.268024,79.6657784 75.5015868,80.0261078 C75.6023054,80.185 75.6960778,80.3456287 75.7837725,80.5132036 C75.8601796,80.6582036 75.9287725,80.8084132 75.9886826,80.9603593 C76.0946108,81.2251796 76.174491,81.5047605 76.1988024,81.7886826 L76.1935928,82.3217964 C76.1220373,83.2985517 75.585039,84.1812708 74.7505389,84.6938922 C74.2168397,85.0166467 73.6168513,85.2140699 72.9957784,85.2712874 L72.3367665,85.2903892 L71.7802096,85.2417665 C71.5200955,85.2032934 71.2640479,85.1410979 71.0152695,85.0559581 C70.7620962,84.9698822 70.5192377,84.8560241 70.2911377,84.7164671 L69.857006,84.3986826 C69.3454089,83.9616311 68.9968384,83.3642566 68.8680539,82.7038323 C68.8466122,82.5925356 68.8295233,82.4804443 68.8168263,82.3678144 L68.8011976,81.859012 C68.8098802,81.7218263 68.8307186,81.585509 68.8611078,81.4491916 C68.9366467,81.1531138 69.0460479,80.8648503 69.1841018,80.5913473 C69.3620958,80.247515 69.5652695,79.9175749 69.7918862,79.6041317 C70.1678443,79.0953293 70.5759281,78.6117066 71.0117964,78.1541317 C71.2931138,77.8571856 71.580509,77.5697904 71.8809281,77.2919461 L72.094521,77.1000599 C72.242994,77.0010778 72.2447305,77.0010778 72.4140419,76.9515868 L72.5929042,76.9515868 L72.5929042,76.9515868 Z M71.4997605,6.03964072 L71.5683533,6.03443114 L71.5683533,65.4965868 L71.4198802,65.2230838 C69.4625615,61.6019352 67.6405545,57.9092649 65.9576347,54.1527246 C64.5920069,51.1129507 63.3553661,48.0168587 62.251018,44.8727246 C61.3680267,42.3676471 60.6219545,39.8163932 60.0161078,37.2302695 C59.5463772,35.1768263 59.1860479,33.092994 59.0384431,30.9874551 C58.981442,30.0891354 58.9643493,29.188728 58.9872156,28.2888922 C59.0011078,27.5048503 59.0332335,26.7225449 59.0818563,25.9402395 C59.16,24.7090419 59.2850299,23.4813174 59.4656287,22.2631437 C59.6088922,21.3045808 59.7851497,20.3486228 60.0039521,19.4039521 C60.1776048,18.6529042 60.3781737,17.9079341 60.6082635,17.1751198 C60.9399401,16.1158383 61.3376048,15.0808683 61.8003892,14.0702096 C61.9697006,13.7064072 62.1520359,13.3443413 62.3421856,12.9892216 C63.4900299,10.8628443 65.0476946,8.90491018 67.0881138,7.59383234 C68.4137113,6.73143279 69.9263279,6.19854879 71.4997605,6.03964072 L71.4997605,6.03964072 Z M79.2099401,6.1898503 L83.2100299,7.3307485 C85.0708422,8.01003695 86.8423206,8.91268621 88.4855988,10.0188922 C90.7192591,11.5268768 92.6445069,13.4474094 94.1579641,15.6773653 C95.0462663,17.0027192 95.7833828,18.423365 96.3555389,19.9127545 C97.1877996,22.1145367 97.702627,24.423513 97.8845509,26.7702994 C97.937515,27.3850299 97.9679042,28.001497 97.9800599,28.6170958 C97.9939521,29.1892814 97.990479,29.7640719 97.9444611,30.3362575 C97.830801,31.6165536 97.5899729,32.8823555 97.2255389,34.1149401 C96.9327194,35.1241012 96.586666,36.1170483 96.1888323,37.0896108 C95.6947636,38.2989242 95.1457389,39.4850495 94.5434731,40.6442814 C93.2098204,43.2195509 91.6747305,45.6828144 90.0328443,48.0653293 C87.9969086,50.993543 85.8265324,53.8259549 83.5286826,56.5534731 C81.0327939,59.5292647 78.4300638,62.4137859 75.7255988,65.2013772 C77.5611078,61.7604491 79.2741916,58.2552695 80.8613772,54.6936527 C81.7438063,52.7091047 82.5764421,50.7027883 83.358503,48.6765868 C84.2190102,46.4515968 84.9949258,44.1948092 85.6845808,41.9110778 C86.2000563,40.20023 86.6461294,38.4692347 87.0217066,36.7223353 C87.3412275,35.2228443 87.5921557,33.7077246 87.7475749,32.1830539 C87.8778144,30.9119162 87.9255689,29.6329641 87.8943114,28.357485 C87.8822965,27.5769588 87.8533476,26.7967852 87.807485,26.017515 C87.6199401,22.8813473 87.1432635,19.7555988 86.228982,16.7479341 C85.8823063,15.6074537 85.4608646,14.4910538 84.9673952,13.405988 C83.796976,10.8558982 82.1629042,8.47164671 79.9523054,6.73251497 L79.2099401,6.1898503 L79.2099401,6.1898503 Z" id="Shape" fill="#FFFFFF"></path>
        </g>
        <rect id="Rectangle" stroke-opacity="0.012729458" stroke="#FFFFFF" x="1.5" y="0.5" width="215" height="220"></rect>
    </g>
</svg>