<?xml version="1.0" encoding="UTF-8"?>
<!--Generator: Apple Native CoreSVG 232.5-->
<!DOCTYPE svg
PUBLIC "-//W3C//DTD SVG 1.1//EN"
       "http://www.w3.org/Graphics/SVG/1.1/DTD/svg11.dtd">
<svg version="1.1" xmlns="http://www.w3.org/2000/svg" xmlns:xlink="http://www.w3.org/1999/xlink" width="239.336" height="228.734">
 <g>
  <rect height="228.734" opacity="0" width="239.336" x="0" y="0"/>
  <path d="M5.94718 203.478L22.9394 220.568C31.5331 229.259 41.3964 228.673 50.6737 218.419L157.607 100.548L147.939 90.7828L41.787 207.58C38.2714 211.584 34.9511 212.56 30.2636 207.873L18.5448 196.252C13.8573 191.662 14.9316 188.244 18.9355 184.63L133.682 76.6226L123.916 66.9547L7.99796 175.841C-1.86532 185.021-2.64657 194.787 5.94718 203.478ZM70.1073 21.5445C65.9081 25.6461 65.6152 31.4078 67.9589 35.314C70.3027 38.9273 74.8925 41.2711 81.3378 39.6109C95.9862 36.1929 111.221 35.607 125.478 44.982L119.619 59.5328C116.201 67.8336 117.959 73.6929 123.33 79.1617L146.279 102.306C151.162 107.189 155.264 107.384 160.928 106.408L171.572 104.455L178.213 111.193L177.822 116.759C177.432 121.74 178.701 125.548 183.584 130.334L191.201 137.755C195.986 142.541 202.139 142.834 206.826 138.146L235.928 108.947C240.615 104.259 240.42 98.3023 235.635 93.5172L227.92 85.9C223.135 81.1148 219.424 79.5523 214.639 79.9429L208.877 80.4312L202.432 74.0836L204.873 62.8531C206.142 57.189 204.58 52.7945 198.721 46.9351L176.748 25.0601C143.35-8.143 99.0136-7.36175 70.1073 21.5445ZM85.0487 25.2554C109.365 7.482 142.275 10.5093 164.541 32.775L188.857 56.8961C191.201 59.2398 191.592 61.0953 190.908 64.5132L187.685 79.357L202.725 94.2007L212.588 93.6148C215.127 93.5172 215.908 93.7125 217.861 95.6656L223.623 101.427L199.209 125.841L193.447 120.08C191.494 118.127 191.201 117.345 191.299 114.709L191.982 104.943L177.041 90.0992L161.807 92.6382C158.584 93.3218 157.119 93.0289 154.678 90.6851L134.658 70.6656C132.119 68.3218 131.826 66.6617 133.389 62.9507L142.178 42.0523C126.553 27.5015 106.24 21.2515 85.9277 27.2086C84.3652 27.5992 83.7792 26.3297 85.0487 25.2554Z" fill="#89D184" fill-opacity="0.85"/>
 </g>
</svg>
