<?xml version="1.0" encoding="UTF-8"?>
<svg width="217px" height="252px" viewBox="0 0 217 252" version="1.1" xmlns="http://www.w3.org/2000/svg" xmlns:xlink="http://www.w3.org/1999/xlink">
    <title>heroku</title>
    <g id="heroku" stroke="none" stroke-width="1" fill="none" fill-rule="evenodd">
        <g id="heroku-icon-svgrepo-com" transform="translate(36.000000, 45.000000)" fill="#430098" fill-rule="nonzero">
            <path d="M130.5,0 C138.42715,0 144.869993,6.3615977 144.998057,14.2601834 L145,14.5 L145,146.611111 C145,154.538261 138.636429,160.981104 130.739757,161.109168 L130.5,161.111111 L14.5,161.111111 C6.57285,161.111111 0.130007,154.74754 0.001942855,146.850869 L0,146.611111 L0,14.5 C0,6.57085626 6.3635715,0.129967125 14.2602427,0.00194225688 L14.5,0 L130.5,0 Z M130.5,8.05555556 L14.5,8.05555556 C11.0030078,8.05555556 8.14609009,10.8578328 8.05766518,14.3339689 L8.05555554,14.5 L8.05555554,146.611111 C8.05555554,150.108103 10.8578328,152.965021 14.3339689,153.053446 L14.5,153.055556 L130.5,153.055556 C133.998975,153.055556 136.853972,150.253278 136.942336,146.777142 L136.944445,146.611111 L136.944445,14.5 C136.944445,10.9475 134.054514,8.05555556 130.5,8.05555556 Z M36.25,104.722222 L54.375,120.833333 L36.25,136.944445 L36.25,104.722222 Z M52.3611111,24.1666667 L52.3611111,69.9040974 C60.4045831,67.286042 71.648125,64.4444447 82.5694446,64.4444447 C92.528125,64.4444447 98.4892359,68.3594447 101.735625,71.6440974 C108.594125,78.5823474 108.757453,87.4016405 108.748309,88.5778188 L108.747986,88.611111 L108.75,136.944445 L92.6388891,136.944445 L92.6388891,88.8326393 C92.5603473,85.0727083 90.7478473,80.5555556 82.5694446,80.5555556 C66.3522821,80.5555556 48.1810451,88.6304226 47.6414213,88.8720368 L47.6304861,88.8769447 L36.25,94.0325001 L36.25,24.1666667 L52.3611111,24.1666667 Z M108.75,24.1666667 C107.6625,33.3177778 103.952917,42.0902778 96.6666669,50.3472223 L96.6666669,50.3472223 L80.5555554,50.3472223 C86.8872223,42.0399306 90.8626391,33.297639 92.6388891,24.1666667 L92.6388891,24.1666667 L108.75,24.1666667 Z" id="Shape"></path>
        </g>
        <rect id="Rectangle" stroke-opacity="0.012729458" stroke="#FFFFFF" x="1.5" y="0.5" width="215" height="251"></rect>
    </g>
</svg>