<?xml version="1.0" encoding="UTF-8"?>
<svg width="217px" height="221px" viewBox="0 0 217 221" version="1.1" xmlns="http://www.w3.org/2000/svg" xmlns:xlink="http://www.w3.org/1999/xlink">
    <title>Nginx</title>
    <g id="Nginx" stroke="none" stroke-width="1" fill="none" fill-rule="evenodd">
        <rect id="Rectangle" stroke-opacity="0.012729458" stroke="#FFFFFF" x="1.5" y="0.5" width="215" height="220"></rect>
        <g id="nginx-svgrepo-com" transform="translate(24.000000, 13.000000)" fill="#000000" fill-rule="nonzero">
            <path d="M84.7775384,0 L0,49 L0,147 L84.7775384,196 L169.595855,147 L169.595855,49 L84.7775384,0 Z M133.711183,135.485 C133.230002,141.430333 128.295859,146.069 122.277021,146.069 C121.910019,146.069 121.551172,146.052667 121.192325,146.02 L121.241259,146.02 C121.176014,146.02 121.102614,146.02 121.029213,146.02 C115.263199,146.02 110.092544,143.463833 106.585633,139.4295 L106.569321,139.405 L57.6356772,81.0868333 L57.6356772,135.476833 L57.6356772,135.591167 C57.6356772,141.332333 53.0032922,145.987333 47.2699002,146.011833 L46.6174516,146.011833 C40.8269704,145.962833 36.1456518,141.275167 36.0967181,135.485 L36.0967181,60.515 C36.4963429,54.5941667 41.3978629,49.9391667 47.3759231,49.9391667 C47.710303,49.9391667 48.0446829,49.9555 48.3709072,49.98 L48.3301292,49.98 L48.6481979,49.98 C54.4549903,49.98 59.674579,52.528 63.2385794,56.5786667 L63.2548906,56.6031667 L111.943867,114.921333 L111.943867,60.5231667 C111.9928,54.7248333 116.674119,50.0371667 122.456444,49.9881667 L123.076271,49.9881667 C128.866752,50.0371667 133.54807,54.7248333 133.597004,60.515 L133.597004,135.493167 L133.711183,135.485 Z" id="Shape"></path>
        </g>
    </g>
</svg>