<?xml version="1.0" encoding="UTF-8"?>
<svg width="217px" height="221px" viewBox="0 0 217 221" version="1.1" xmlns="http://www.w3.org/2000/svg" xmlns:xlink="http://www.w3.org/1999/xlink">
    <title>Ngrok</title>
    <g id="Ngrok" stroke="none" stroke-width="1" fill="none" fill-rule="evenodd">
        <rect id="Rectangle" stroke-opacity="0.012729458" stroke="#FFFFFF" x="1.5" y="0.5" width="215" height="220"></rect>
        <g id="ngrok-yellow" transform="translate(29.000000, 34.610000)" fill="#FFDB62" fill-rule="nonzero">
            <path d="M148.912241,18.4493042 C146.094859,15.1320648 142.913945,12.2692417 139.505822,9.72451008 C136.461233,7.49786992 133.234876,5.54387958 129.73587,3.95342232 C128.05453,3.18091451 126.282306,2.54473161 124.419199,1.95399034 C121.738143,1.09059926 118.829878,0.499857995 115.83073,0 L78.0232888,0 L53.0303891,28.4919057 L53.0303891,25.1746663 L53.0303891,0.590741267 L0,0.590741267 L0,150.911673 L53.0303891,150.911673 L53.0303891,86.4299915 L53.0303891,49.4859415 L60.3919341,49.4859415 L75.1604658,49.4859415 L102.198239,49.4859415 L102.834422,49.4859415 L102.834422,49.4859415 L106.969611,49.3950582 L106.969611,150.866231 L160,150.866231 L160,56.8474865 C160,48.8497586 159.227492,41.7154218 157.682477,35.444476 C156.137461,29.2189719 153.229196,23.584209 148.912241,18.4493042 Z" id="Path"></path>
        </g>
    </g>
</svg>