<?xml version="1.0" encoding="UTF-8"?>
<svg width="220px" height="220px" viewBox="0 0 220 220" version="1.1" xmlns="http://www.w3.org/2000/svg" xmlns:xlink="http://www.w3.org/1999/xlink">
    <title>Run</title>
    <g id="Run" stroke="none" stroke-width="1" fill="none" fill-rule="evenodd">
        <rect id="Rectangle" stroke-opacity="0.012729458" stroke="#FFFFFF" x="1.5" y="0.5" width="215" height="220"></rect>
        <g id="􀊃" transform="translate(25.440118, 15.745087)" fill="#89D185" fill-rule="nonzero">
            <path d="M14.3481804,190 C10.0263003,190 6.5544669,188.477809 3.93268014,185.433428 C1.31089338,182.389047 0,178.288786 0,173.132646 L0,16.8801051 C0,11.7154645 1.31089338,7.61095346 3.93268014,4.56657208 C6.5544669,1.52219069 10.0263003,0 14.3481804,0 C16.5995897,0 18.7629584,0.39618246 20.8382866,1.18854738 C22.9136148,1.9809123 25.1571308,3.08263348 27.5688346,4.49371093 L156.780784,79.3202822 C161.526473,82.0161445 164.86412,84.5189247 166.793726,86.8286229 C168.723332,89.1383211 169.688135,91.8621135 169.688135,95 C169.688135,98.208319 168.723332,100.949719 166.793726,103.224201 C164.86412,105.498683 161.526473,107.983856 156.780784,110.679718 L27.5688346,185.517218 C25.1571308,186.928296 22.9136148,188.028195 20.8382866,188.816917 C18.7629584,189.605639 16.5995897,190 14.3481804,190 Z M21.215343,165.804636 C21.5808631,165.804636 22.035638,165.683808 22.5796679,165.442152 L142.101085,96.2477471 C142.397387,96.1008104 142.636918,95.9320154 142.819678,95.7413621 C143.002438,95.5507088 143.093818,95.3035881 143.093818,95 C143.093818,94.6964119 143.002438,94.4514163 142.819678,94.2650132 C142.636918,94.0786101 142.397387,93.9422991 142.101085,93.8560801 L22.5796679,24.6507459 C22.035638,24.3398717 21.5808631,24.1844346 21.215343,24.1844346 C20.5304483,24.1844346 20.1880009,24.6082435 20.1880009,25.4558615 L20.1880009,164.533209 C20.1880009,165.380827 20.5304483,165.804636 21.215343,165.804636 Z" id="Shape"></path>
        </g>
    </g>
</svg>