<?xml version="1.0" encoding="UTF-8"?>
<svg width="220px" height="220px" viewBox="0 0 220 220" version="1.1" xmlns="http://www.w3.org/2000/svg" xmlns:xlink="http://www.w3.org/1999/xlink">
    <title>SFTP</title>
    <defs>
        <linearGradient x1="50%" y1="0%" x2="50%" y2="100%" id="linearGradient-1">
            <stop stop-color="#FCD610" offset="0%"></stop>
            <stop stop-color="#EBA435" offset="100%"></stop>
        </linearGradient>
    </defs>
    <g id="SFTP" stroke="none" stroke-width="1" fill="none" fill-rule="evenodd">
        <rect id="Rectangle" stroke-opacity="0.012729458" stroke="#FFFFFF" x="1.5" y="0.5" width="215" height="220"></rect>
        <g id="gnome-fs-ftp-svgrepo-com" transform="translate(12.000000, 29.000000)" fill="url(#linearGradient-1)" fill-rule="nonzero">
            <path d="M12.8375,0 C5.74216587,0 0,5.74216587 0,12.8375 L0,35.5875 L0,55.0333333 L0,113.048806 C0,120.144128 5.74216587,125.83214 12.8375,125.83214 L87.3708333,125.83214 L87.3708333,146.141667 L77.0791667,146.141667 C74.5857493,146.141667 72.5833333,148.144083 72.5833333,150.6375 L72.5833333,158.979167 C72.5833333,161.472584 74.5857493,163.475 77.0791667,163.475 L117.920833,163.475 C120.414251,163.475 122.416667,161.472584 122.416667,158.979167 L122.416667,150.6375 C122.416667,148.144083 120.414251,146.141667 117.920833,146.141667 L107.629167,146.141667 L107.629167,125.83214 L182.1625,125.83214 C189.257831,125.83214 195,120.144128 195,113.048806 L195,35.5875 C195,28.4921659 189.257692,22.84776 182.1625,22.8041667 L79.1375,22.8041667 L79.1375,12.8375 C79.1375,5.74216587 73.4495008,0 66.3541667,0 L12.8375,0 Z M0,149.175 L0,160.441667 L68.6291667,160.441667 C68.62726,160.366093 68.6291667,160.301093 68.6291667,160.225 L68.6291667,150.8 C68.6291667,150.245784 68.6947733,149.700356 68.7916667,149.175 L0,149.175 Z M126.208333,149.175 C126.305227,149.700356 126.370833,150.245784 126.370833,150.8 L126.370833,160.225 C126.370833,160.301093 126.37274,160.366093 126.370833,160.441667 L195,160.441667 L195,149.175 L126.208333,149.175 Z" id="Shape"></path>
        </g>
    </g>
</svg>