<?xml version="1.0" encoding="UTF-8"?>
<svg width="220px" height="220px" viewBox="0 0 220 220" version="1.1" xmlns="http://www.w3.org/2000/svg" xmlns:xlink="http://www.w3.org/1999/xlink">
    <title>Stop</title>
    <g id="Stop" stroke="none" stroke-width="1" fill="none" fill-rule="evenodd">
        <rect id="Rectangle" stroke-opacity="0.012729458" stroke="#FFFFFF" x="1.5" y="0.5" width="215" height="220"></rect>
        <g id="􀛶" transform="translate(14.402999, 15.633499)" fill="#C11F07" fill-rule="nonzero">
            <path d="M0,163.679382 L0,26.3320498 C0,18.057043 2.38089031,11.5996163 7.14267092,6.95976977 C11.9044515,2.31992326 18.498419,0 26.9245733,0 L163.086858,0 C171.505391,0 178.095548,2.31992326 182.857329,6.95976977 C187.61911,11.5996163 190,18.057043 190,26.3320498 L190,163.679382 C190,171.955659 187.61911,178.411498 182.857329,183.046899 C178.095548,187.6823 171.505391,190 163.086858,190 L26.9245733,190 C18.498419,190 11.9044515,187.6823 7.14267092,183.046899 C2.38089031,178.411498 0,171.955659 0,163.679382 Z M20.8107214,158.196157 C20.8107214,161.659848 21.7763505,164.37574 23.7076088,166.343832 C25.6388672,168.311925 28.2995073,169.295971 31.6895293,169.295971 L158.400016,169.295971 C161.863707,169.295971 164.561181,168.311925 166.492439,166.343832 C168.423698,164.37574 169.389327,161.659848 169.389327,158.196157 L169.389327,31.8286104 C169.389327,28.3636497 168.423698,25.6471231 166.492439,23.6790305 C164.561181,21.710938 161.863707,20.7268917 158.400016,20.7268917 L31.6895293,20.7268917 C28.2995073,20.7268917 25.6388672,21.710938 23.7076088,23.6790305 C21.7763505,25.6471231 20.8107214,28.3636497 20.8107214,31.8286104 L20.8107214,158.196157 Z" id="Shape"></path>
        </g>
    </g>
</svg>