<?xml version="1.0" encoding="UTF-8"?>
<svg width="217px" height="221px" viewBox="0 0 217 221" version="1.1" xmlns="http://www.w3.org/2000/svg" xmlns:xlink="http://www.w3.org/1999/xlink">
    <title>Swift Forums</title>
    <g id="Swift-Forums" stroke="none" stroke-width="1" fill="none" fill-rule="evenodd">
        <rect id="Rectangle" stroke-opacity="0.012729458" stroke="#FFFFFF" x="1.5" y="0.5" width="215" height="220"></rect>
        <g id="telegram-svgrepo-com" transform="translate(7.944336, 61.062500)" fill="#5D8FD1" fill-rule="nonzero">
            <g id="ô€Š">
                <path d="M70.0390625,98.5058594 C59.7981771,98.5058594 54.6777344,94.7102865 54.6777344,87.1191406 C54.6777344,82.9654948 55.8414714,78.9461263 58.1689453,75.0610352 C60.4964193,71.175944 63.745931,67.6847331 67.9174805,64.5874023 C72.0890299,61.4900716 76.9677734,59.0372721 82.5537109,57.2290039 C88.1396484,55.4207357 94.1731771,54.5166016 100.654297,54.5166016 C107.135417,54.5166016 113.159993,55.4207357 118.728027,57.2290039 C124.296061,59.0372721 129.165853,61.4900716 133.337402,64.5874023 C137.508952,67.6847331 140.758464,71.175944 143.085938,75.0610352 C145.413411,78.9461263 146.577148,82.9654948 146.577148,87.1191406 C146.577148,94.7102865 141.456706,98.5058594 131.21582,98.5058594 L70.0390625,98.5058594 Z M71.7578125,84.7021484 L129.550781,84.7021484 C129.873047,84.7021484 130.078939,84.6126302 130.168457,84.4335938 C130.257975,84.2545573 130.302734,84.0576172 130.302734,83.8427734 C130.302734,82.5179036 129.631348,80.9781901 128.288574,79.2236328 C126.945801,77.4690755 124.994303,75.7682292 122.434082,74.1210938 C119.873861,72.4739583 116.758626,71.0953776 113.088379,69.9853516 C109.418132,68.8753255 105.273438,68.3203125 100.654297,68.3203125 C95.999349,68.3203125 91.8367513,68.8753255 88.1665039,69.9853516 C84.4962565,71.0953776 81.3810221,72.4739583 78.8208008,74.1210938 C76.2605794,75.7682292 74.309082,77.4690755 72.9663086,79.2236328 C71.6235352,80.9781901 70.9521484,82.5179036 70.9521484,83.8427734 C70.9521484,84.0576172 71.0058594,84.2545573 71.1132812,84.4335938 C71.2207031,84.6126302 71.4355469,84.7021484 71.7578125,84.7021484 Z M100.654297,50.2734375 C96.25,50.2734375 92.2753906,49.1455078 88.7304688,46.8896484 C85.1855469,44.6337891 82.3746745,41.5901693 80.2978516,37.7587891 C78.2210286,33.9274089 77.1647135,29.6663411 77.1289062,24.9755859 C77.093099,20.4280599 78.1404622,16.2565104 80.2709961,12.4609375 C82.4015299,8.66536458 85.2482096,5.63964844 88.8110352,3.38378906 C92.3738607,1.12792969 96.3216146,0 100.654297,0 C104.951172,0 108.881022,1.12792969 112.443848,3.38378906 C116.006673,5.63964844 118.844401,8.66536458 120.957031,12.4609375 C123.069661,16.2565104 124.125977,20.4280599 124.125977,24.9755859 C124.125977,29.6663411 123.078613,33.9274089 120.983887,37.7587891 C118.88916,41.5901693 116.069336,44.6337891 112.524414,46.8896484 C108.979492,49.1455078 105.022786,50.2734375 100.654297,50.2734375 Z M100.654297,36.4697266 C102.408854,36.4697266 104.020182,35.9684245 105.488281,34.9658203 C106.95638,33.9632161 108.120117,32.5935872 108.979492,30.8569336 C109.838867,29.1202799 110.268555,27.1598307 110.268555,24.9755859 C110.268555,22.898763 109.820964,21.0188802 108.925781,19.3359375 C108.030599,17.6529948 106.85791,16.3102214 105.407715,15.3076172 C103.95752,14.305013 102.373047,13.8037109 100.654297,13.8037109 C98.9355469,13.8037109 97.3421224,14.305013 95.8740234,15.3076172 C94.4059245,16.3102214 93.2242839,17.6529948 92.3291016,19.3359375 C91.4339193,21.0188802 90.9863281,22.8808594 90.9863281,24.921875 C90.9863281,27.1419271 91.4249674,29.1202799 92.3022461,30.8569336 C93.1795247,32.5935872 94.3522135,33.9632161 95.8203125,34.9658203 C97.2884115,35.9684245 98.8997396,36.4697266 100.654297,36.4697266 Z M13.5351562,98.5595703 C9.0234375,98.5595703 5.63964844,97.5032552 3.38378906,95.390625 C1.12792969,93.2779948 0,90.2880859 0,86.4208984 C0,82.195638 1.03841146,78.1762695 3.11523438,74.362793 C5.19205729,70.5493164 8.07454427,67.1565755 11.7626953,64.1845703 C15.4508464,61.2125651 19.7298177,58.8671875 24.5996094,57.1484375 C29.469401,55.4296875 34.679362,54.5703125 40.2294922,54.5703125 C43.2014974,54.5703125 46.6300456,54.9820964 50.5151367,55.8056641 C54.4002279,56.6292318 57.828776,57.6855469 60.8007812,58.9746094 C58.3658854,60.3710938 56.3248698,61.9645182 54.6777344,63.7548828 C53.030599,65.5452474 51.6878255,67.5146484 50.6494141,69.6630859 C49.8974609,69.4482422 48.8769531,69.2154948 47.5878906,68.9648438 C46.2988281,68.7141927 44.9739583,68.499349 43.6132812,68.3203125 C42.2526042,68.141276 41.1246745,68.0517578 40.2294922,68.0517578 C36.7203776,68.0517578 33.4619141,68.5262044 30.4541016,69.4750977 C27.4462891,70.4239909 24.8144531,71.6861979 22.5585938,73.2617188 C20.3027344,74.8372396 18.5481771,76.5738932 17.2949219,78.4716797 C16.0416667,80.3694661 15.4150391,82.2672526 15.4150391,84.1650391 C15.4150391,84.3440755 15.46875,84.5141602 15.5761719,84.675293 C15.6835938,84.8364258 15.8984375,84.9169922 16.2207031,84.9169922 L45.546875,84.9169922 C45.3320312,87.2444661 45.699056,89.7688802 46.6479492,92.4902344 C47.5968424,95.2115885 49.1276042,97.2347005 51.2402344,98.5595703 L13.5351562,98.5595703 Z M40.2294922,51.2939453 C36.398112,51.2939453 32.9158529,50.300293 29.7827148,48.3129883 C26.6495768,46.3256836 24.1609701,43.6490885 22.3168945,40.2832031 C20.472819,36.9173177 19.5507812,33.1396484 19.5507812,28.9501953 C19.514974,24.9755859 20.4370117,21.3232422 22.3168945,17.9931641 C24.1967773,14.6630859 26.7032878,11.9954427 29.8364258,9.99023438 C32.9695638,7.98502604 36.4339193,6.98242188 40.2294922,6.98242188 C43.9892578,6.98242188 47.4446615,7.97607422 50.5957031,9.96337891 C53.7467448,11.9506836 56.262207,14.609375 58.1420898,17.9394531 C60.0219727,21.2695312 60.9619141,24.9397786 60.9619141,28.9501953 C60.9619141,33.1038411 60.0309245,36.8725586 58.1689453,40.2563477 C56.3069661,43.6401367 53.8094076,46.3256836 50.6762695,48.3129883 C47.5431315,50.300293 44.0608724,51.2939453 40.2294922,51.2939453 Z M40.2294922,37.7050781 C41.554362,37.7050781 42.7539062,37.3291016 43.828125,36.5771484 C44.9023438,35.8251953 45.7617188,34.7957357 46.40625,33.4887695 C47.0507812,32.1818034 47.3730469,30.6689453 47.3730469,28.9501953 C47.3730469,27.4104818 47.0328776,26.0050456 46.3525391,24.7338867 C45.6722005,23.4627279 44.7949219,22.4511719 43.7207031,21.6992188 C42.6464844,20.9472656 41.4827474,20.5712891 40.2294922,20.5712891 C38.976237,20.5712891 37.8035482,20.9472656 36.7114258,21.6992188 C35.6193034,22.4511719 34.7420247,23.4716797 34.0795898,24.7607422 C33.4171549,26.0498047 33.1038411,27.4462891 33.1396484,28.9501953 C33.1396484,30.6689453 33.4619141,32.1818034 34.1064453,33.4887695 C34.7509766,34.7957357 35.6103516,35.8251953 36.6845703,36.5771484 C37.7587891,37.3291016 38.9404297,37.7050781 40.2294922,37.7050781 Z M187.773438,98.5595703 L150.12207,98.5595703 C152.234701,97.2347005 153.765462,95.2115885 154.714355,92.4902344 C155.663249,89.7688802 156.01237,87.2444661 155.761719,84.9169922 L185.141602,84.9169922 C185.463867,84.9169922 185.669759,84.8364258 185.759277,84.675293 C185.848796,84.5141602 185.893555,84.3440755 185.893555,84.1650391 C185.893555,82.2672526 185.266927,80.3694661 184.013672,78.4716797 C182.760417,76.5738932 181.014811,74.8372396 178.776855,73.2617188 C176.5389,71.6861979 173.907064,70.4239909 170.881348,69.4750977 C167.855632,68.5262044 164.588216,68.0517578 161.079102,68.0517578 C160.183919,68.0517578 159.064941,68.141276 157.722168,68.3203125 C156.379395,68.499349 155.054525,68.7141927 153.747559,68.9648438 C152.440592,69.2154948 151.411133,69.4482422 150.65918,69.6630859 C149.656576,67.5146484 148.331706,65.5452474 146.68457,63.7548828 C145.037435,61.9645182 142.996419,60.3710938 140.561523,58.9746094 C143.497721,57.6855469 146.908366,56.6292318 150.793457,55.8056641 C154.678548,54.9820964 158.107096,54.5703125 161.079102,54.5703125 C166.665039,54.5703125 171.883952,55.4296875 176.73584,57.1484375 C181.587728,58.8671875 185.857747,61.2125651 189.545898,64.1845703 C193.234049,67.1565755 196.116536,70.5493164 198.193359,74.362793 C200.270182,78.1762695 201.308594,82.195638 201.308594,86.4208984 C201.308594,90.2880859 200.189616,93.2779948 197.95166,95.390625 C195.713704,97.5032552 192.320964,98.5595703 187.773438,98.5595703 Z M161.079102,51.2939453 C157.247721,51.2939453 153.765462,50.300293 150.632324,48.3129883 C147.499186,46.3256836 145.010579,43.6401367 143.166504,40.2563477 C141.322428,36.8725586 140.400391,33.1038411 140.400391,28.9501953 C140.400391,24.9397786 141.340332,21.2695312 143.220215,17.9394531 C145.100098,14.609375 147.606608,11.9506836 150.739746,9.96337891 C153.872884,7.97607422 157.319336,6.98242188 161.079102,6.98242188 C164.874674,6.98242188 168.347982,7.98502604 171.499023,9.99023438 C174.650065,11.9954427 177.156576,14.6630859 179.018555,17.9931641 C180.880534,21.3232422 181.811523,24.9755859 181.811523,28.9501953 C181.775716,33.1396484 180.835775,36.9173177 178.991699,40.2832031 C177.147624,43.6490885 174.667969,46.3256836 171.552734,48.3129883 C168.4375,50.300293 164.946289,51.2939453 161.079102,51.2939453 Z M161.079102,37.7050781 C162.368164,37.7050781 163.558757,37.3291016 164.650879,36.5771484 C165.743001,35.8251953 166.611328,34.7957357 167.255859,33.4887695 C167.900391,32.1818034 168.222656,30.6689453 168.222656,28.9501953 C168.222656,27.4462891 167.891439,26.0498047 167.229004,24.7607422 C166.566569,23.4716797 165.68929,22.4511719 164.597168,21.6992188 C163.505046,20.9472656 162.332357,20.5712891 161.079102,20.5712891 C159.861654,20.5712891 158.706868,20.9472656 157.614746,21.6992188 C156.522624,22.4511719 155.645345,23.4627279 154.98291,24.7338867 C154.320475,26.0050456 153.989258,27.4104818 153.989258,28.9501953 C153.989258,30.6689453 154.311523,32.1818034 154.956055,33.4887695 C155.600586,34.7957357 156.459961,35.8251953 157.53418,36.5771484 C158.608398,37.3291016 159.790039,37.7050781 161.079102,37.7050781 Z" id="Shape"></path>
            </g>
        </g>
    </g>
</svg>