<?xml version="1.0" encoding="UTF-8"?>
<svg width="220px" height="220px" viewBox="0 0 220 220" version="1.1" xmlns="http://www.w3.org/2000/svg" xmlns:xlink="http://www.w3.org/1999/xlink">
    <title>TargetActionIcon</title>
    <g id="TargetActionIcon" stroke="none" stroke-width="1" fill="none" fill-rule="evenodd">
        <rect id="Rectangle" stroke-opacity="0.012729458" stroke="#FFFFFF" x="1.5" y="0.5" width="215" height="220"></rect>
        <g id="􀢊" transform="translate(15.000000, 15.000000)" fill="#F47B00" fill-rule="nonzero">
            <path d="M95.0038193,190 C81.9966711,190 69.7666316,187.508885 58.3137006,182.526656 C46.8607696,177.544427 36.7698157,170.690107 28.0408388,161.963694 C19.3118619,153.237282 12.4561446,143.145505 7.47368675,131.688364 C2.49122892,120.231224 0,108.001769 0,95 C0,81.9982309 2.4764608,69.7690308 7.42938239,58.3123995 C12.382304,46.8557682 19.2380213,36.7494773 27.9965345,27.9935269 C36.7550476,19.2375764 46.8607696,12.383001 58.3137006,7.42980058 C69.7666316,2.47660019 81.9640794,0 94.9060442,0 C107.913192,0 120.143487,2.47660019 131.596927,7.42980058 C143.050367,12.383001 153.156344,19.2375764 161.914857,27.9935269 C170.67337,36.7494773 177.543855,46.8557682 182.526313,58.3123995 C187.508771,69.7690308 190,81.9982309 190,95 C190,108.001769 187.523539,120.231224 182.570618,131.688364 C177.617696,143.145505 170.761979,153.237282 162.003466,161.963694 C153.244952,170.690107 143.138976,177.544427 131.685536,182.526656 C120.232095,187.508885 108.004857,190 95.0038193,190 Z M95.0038193,172.596574 C105.803898,172.596574 115.900962,170.600984 125.295014,166.609802 C134.689065,162.618621 142.925602,157.068551 150.004623,149.959593 C157.083645,142.850635 162.633402,134.598866 166.653895,125.204286 C170.674388,115.809706 172.655099,105.74161 172.597309,95 C172.597309,84.2583896 170.58578,74.1902943 166.565287,64.7957141 C162.544794,55.4011338 156.97874,47.1496194 149.867127,40.0411708 C142.755514,32.9327222 134.518977,27.3826525 125.157518,23.3909617 C115.796058,19.3992709 105.712233,17.4034255 94.9060442,17.4034255 C84.1650384,17.4034255 74.1138056,19.3992709 64.7523459,23.3909617 C55.3908861,27.3826525 47.1691177,32.9327222 40.0870408,40.0411708 C33.0049638,47.1496194 27.4684469,55.4011338 23.47749,64.7957141 C19.4865331,74.1902943 17.4910547,84.2583896 17.4910547,95 C17.4910547,105.74161 19.4865331,115.809706 23.47749,125.204286 C27.4684469,134.598866 33.0049638,142.850635 40.0870408,149.959593 C47.1691177,157.068551 55.4056542,162.618621 64.7966502,166.609802 C74.1876462,170.600984 84.2567026,172.596574 95.0038193,172.596574 Z M95.0038193,153.498794 C87.0707932,153.498794 79.5775005,151.971481 72.5239412,148.916854 C65.470382,145.862228 59.2463837,141.637544 53.8519463,136.242803 C48.4575088,130.848062 44.216767,124.623713 41.1297209,117.569757 C38.0426748,110.515801 36.4991517,102.992549 36.4991517,95 C36.4991517,87.0074515 38.0279067,79.4841991 41.0854165,72.4302428 C44.1429264,65.3762866 48.3673724,59.1519379 53.7587543,53.7571968 C59.1501363,48.3624558 65.3726069,44.1232577 72.4261661,41.0396028 C79.4797253,37.9559478 87.0056097,36.4141203 95.0038193,36.4141203 C103.009158,36.4141203 110.538608,37.95442 117.592167,41.0350193 C124.645726,44.1156186 130.868197,48.351761 136.259579,53.7434464 C141.65096,59.1351319 145.872096,65.3579527 148.922986,72.411909 C151.973876,79.4658652 153.499321,86.9952289 153.499321,95 C153.499321,102.992549 151.972348,110.515801 148.918403,117.569757 C145.864458,124.623713 141.640266,130.848062 136.245829,136.242803 C130.851391,141.637544 124.627393,145.862228 117.573834,148.916854 C110.520275,151.971481 102.996936,153.498794 95.0038193,153.498794 Z M95.0038193,137.502493 C100.812273,137.502493 106.262982,136.378525 111.355947,134.130589 C116.448911,131.882653 120.956242,128.799252 124.877942,124.880388 C128.799641,120.961523 131.882868,116.455465 134.127622,111.362215 C136.372376,106.268964 137.494753,100.814892 137.494753,95 C137.494753,89.2502948 136.372376,83.799279 134.127622,78.6469524 C131.882868,73.4946258 128.799641,68.9575024 124.877942,65.0355822 C120.956242,61.1136619 116.434142,58.0287338 111.311642,55.7807977 C106.189142,53.5328616 100.753201,52.4088935 95.0038193,52.4088935 C89.2483269,52.4088935 83.8093304,53.5313338 78.6868301,55.7762142 C73.5643298,58.0210947 69.0422299,61.104495 65.1205304,65.0264152 C61.1988309,68.9483355 58.1303722,73.4706899 55.9151543,78.5934786 C53.6999365,83.7162673 52.5923275,89.1851078 52.5923275,95 C52.5923275,100.749705 53.6999365,106.185952 55.9151543,111.308741 C58.1303722,116.431529 61.2003586,120.953884 65.1251136,124.875804 C69.0498685,128.797724 73.5719684,131.882653 78.6914133,134.130589 C83.8108582,136.378525 89.2483269,137.502493 95.0038193,137.502493 Z M95.0924281,118.493326 C90.8137475,118.493326 86.8854278,117.436837 83.307469,115.323858 C79.7295102,113.21088 76.8690783,110.363528 74.7261733,106.781803 C72.5832683,103.200078 71.5118158,99.2432722 71.5118158,94.9113863 C71.5118158,90.6324649 72.5832683,86.718693 74.7261733,83.1700708 C76.8690783,79.6214485 79.7147421,76.7903935 83.2631647,74.6769058 C86.8115872,72.563418 90.754675,71.5066742 95.0924281,71.5066742 C99.3649977,71.5066742 103.290262,72.563418 106.868221,74.6769058 C110.446179,76.7903935 113.291843,79.6214485 115.405212,83.1700708 C117.518581,86.718693 118.575265,90.6324649 118.575265,94.9113863 C118.575265,99.2504021 117.520363,103.20899 115.410559,106.78715 C113.300755,110.36531 110.456874,113.21088 106.878915,115.323858 C103.300956,117.436837 99.3721271,118.493326 95.0924281,118.493326 Z" id="Shape"></path>
        </g>
    </g>
</svg>