<?xml version="1.0" encoding="UTF-8"?>
<svg width="217px" height="221px" viewBox="0 0 217 221" version="1.1" xmlns="http://www.w3.org/2000/svg" xmlns:xlink="http://www.w3.org/1999/xlink">
    <title>Telegram</title>
    <g id="Telegram" stroke="none" stroke-width="1" fill="none" fill-rule="evenodd">
        <rect id="Rectangle" stroke-opacity="0.012729458" stroke="#FFFFFF" x="1.5" y="0.5" width="215" height="220"></rect>
        <g id="telegram-svgrepo-com" transform="translate(11.000000, 21.000000)" fill="#0082BF">
            <path d="M195.622961,21.3393859 C198.443503,7.58917791 184.937907,-3.83752114 171.844879,1.22126571 L11.3499268,63.2306873 C-3.27166804,68.8799336 -3.92316973,89.3261558 10.3090147,95.8944072 L45.2603103,112.026239 L61.8871338,170.219544 C62.750775,173.242377 65.1494334,175.582921 68.1925842,176.371679 C71.235735,177.15955 74.4690218,176.279406 76.6919175,174.055978 L102.30375,148.443967 L138.181149,175.352238 C148.595594,183.162628 163.595305,177.473634 166.210894,164.721306 L195.622961,21.3393859 Z M17.7451661,79.7829825 L178.240119,17.7736496 L148.828051,161.156369 L106.794969,129.630891 C103.262859,126.981587 98.3200346,127.332935 95.1978305,130.455139 L84.2279723,141.424997 L87.5240758,123.297759 L152.107297,58.7148037 C155.250795,55.5717495 155.582624,50.5879345 152.884521,47.0555586 C150.186419,43.5230939 145.291505,42.5323109 141.432003,44.7376392 L52.2405968,95.7036502 L17.7451661,79.7829825 Z M63.1156089,109.927024 L68.495666,128.757845 L70.5612538,117.396713 C70.8841211,115.621343 71.7407531,113.986156 73.016873,112.710302 L92.7126661,93.0153074 L63.1156089,109.927024 Z" id="Shape"></path>
        </g>
    </g>
</svg>