<?xml version="1.0" encoding="UTF-8"?>
<svg width="217px" height="221px" viewBox="0 0 217 221" version="1.1" xmlns="http://www.w3.org/2000/svg" xmlns:xlink="http://www.w3.org/1999/xlink">
    <title>Yandex Cloud</title>
    <defs>
        <linearGradient x1="24.8123596%" y1="100%" x2="80.6653823%" y2="5.60333333%" id="linearGradient-1">
            <stop stop-color="#D2DFFF" offset="0%"></stop>
            <stop stop-color="#4E7FFF" offset="100%"></stop>
        </linearGradient>
        <linearGradient x1="74.7136596%" y1="0%" x2="18.5215639%" y2="91.6066667%" id="linearGradient-2">
            <stop stop-color="#D2DFFF" offset="0%"></stop>
            <stop stop-color="#4E7FFF" offset="100%"></stop>
        </linearGradient>
    </defs>
    <g id="Yandex-Cloud" stroke="none" stroke-width="1" fill="none" fill-rule="evenodd">
        <g id="Yandex_Cloud_logo" transform="translate(36.000000, 38.000000)" fill-rule="nonzero">
            <g id="Group">
                <path d="M24.1666667,72.5 C24.1666667,45.8055 45.8055,24.1666667 72.5,24.1666667 C99.1945,24.1666667 120.833333,45.8055 120.833333,72.5 C120.833333,99.1945 99.1945,120.833333 72.5,120.833333 C45.8055,120.833333 24.1666667,99.1945 24.1666667,72.5 Z" id="Path" fill="#FFFFFF"></path>
                <path d="M72.5,145 C54.4813333,144.565 47.3521667,132.520333 45.1771667,120.891333 C43.993,114.569333 44.5101667,104.056833 45.1771667,100.301333 C46.255,94.1871667 47.995,85.3953333 49.9235,75.197 C52.6785,60.581 59.9961667,52.2676667 75.7963333,49.3 L101.635333,44.37 C102.321667,40.5323333 103.617,30.3726667 102.437667,24.1135 C100.2385,12.354 91.1808333,0.1885 72.79,0 C32.7361667,0 0,32.4461667 0,72.5 C0,112.553833 32.4461667,145 72.5,145 L72.5,145 Z" id="Path" fill="url(#linearGradient-1)"></path>
                <path d="M72.5,0 C90.5138333,0.435 99.4313333,12.5038333 101.606333,24.1328333 C102.7905,30.4548333 100.489833,40.948 99.8228333,44.6986667 C98.745,50.8128333 97.005,59.6046667 95.0765,69.803 C92.3215,84.419 84.999,92.7323333 69.2036667,95.7 L45.1578333,100.422167 C44.4715,104.255 42.2143333,114.6225 43.3936667,120.881667 C45.5928333,132.636333 53.8191667,144.8115 72.21,145 C112.263833,145 145,112.553833 145,72.5 C145,32.4461667 112.553833,0 72.5,0 L72.5,0 Z" id="Path" fill="url(#linearGradient-2)"></path>
            </g>
        </g>
        <rect id="Rectangle" stroke-opacity="0.012729458" stroke="#FFFFFF" x="1.5" y="0.5" width="215" height="220"></rect>
    </g>
</svg>